<svg class="dots" viewBox="0 0 305 305">
	<g>
		<path d="M358.655,150.989C359.016,147.021 358.661,143.021 357.604,139.179C351.85,117.351 335.993,102.288 312.574,109.309C297.468,113.826 283.031,120.599 279.344,137.362C276.341,150.788 281.947,173.939 292.072,185.214C302.197,196.488 311.445,191.944 324.357,186.157C340.773,178.765 356.975,168.057 358.655,150.989Z" transform="translate(-53.992 -19.606)" />
		<path d="M216.448,208.7C214.882,187.373 189.837,173.781 170.633,183.041C155.96,190.113 149.972,194.14 154.541,211.996C157.603,224.022 162.684,237.833 173.999,242.425C188.996,248.504 212.838,231.991 215.894,217.007C216.464,214.278 216.651,211.482 216.448,208.7Z" transform="translate(-53.992 -19.606)" />
		<path d="M263.583,32.74C265.572,14.711 245.921,18.801 236.66,24.222C223.91,31.709 213.885,40.286 221.838,56.63C237.32,88.535 254.915,51.847 263.583,32.74Z" transform="translate(-53.992 -19.606)" />
		<path d="M95.59,270.048C90.042,255.206 88.767,249.891 72.426,250.975C58.703,251.957 54.611,261.849 54.023,275.58C52.797,304.714 88.992,292.76 95.59,270.048Z" transform="translate(-53.992 -19.606)" />
		<path d="M254.501,316.489C254.461,303.518 249.185,290.461 235.211,294.454C228.449,296.372 221.994,301.113 220.887,308.5C219.089,321.148 246.896,328.979 251.615,319.345" transform="translate(-53.992 -19.606)" />
	</g>
</svg>
