<svg class="squiggle" viewBox="0 0 269 100">
	<g transform="matrix(1,0,0,1,-208.609,-163.433)">
		<g transform="matrix(0.455386,0,0,0.455386,207.345,127.565)">
			<path d="M591.213,271.157C595.047,255.199 582.772,240.524 567.351,243.044C562.611,243.74 558.161,246.165 553.519,247.281C540.112,250.48 526.723,254.29 513.124,256.18C498.975,258.26 487.178,251.754 479.203,240.025C471.92,229.568 465.232,218.734 458.187,208.169C438.634,179.134 416.576,170.92 382.871,179.848C370.593,183.098 358.294,186.46 345.897,189.149C325.381,193.646 308.421,186.923 294.999,171.333C286.719,161.709 279.3,151.307 271.115,141.597C259.643,127.961 246.865,116.251 228.375,112.644C215.943,110.746 203.228,112.439 191.726,117.524C181.478,121.56 171.334,126.303 161.075,130.268C154.131,132.816 147.058,135.002 139.886,136.815C135.767,138.074 131.365,138.064 127.252,136.786C123.139,135.509 119.506,133.023 116.826,129.652C110.029,121.761 103.196,113.876 95.956,106.411C75.977,85.786 50.716,78.404 22.837,78.779C17.54,78.916 12.5,81.09 8.764,84.847C5.029,88.605 2.885,93.658 2.78,98.956C2.674,104.253 4.614,109.388 8.197,113.291C11.78,117.195 16.729,119.568 22.017,119.916C47.329,120.026 65.405,131.391 80.052,151.137C101.271,179.711 129.691,185.472 162.208,174.369C175.766,169.739 188.924,163.866 202.18,158.413C219.974,151.136 225.181,152.142 237.719,166.886C245.33,175.886 252.3,185.45 259.861,194.602C286.61,227.603 320.79,238.877 361.969,228.923C372.96,226.259 383.828,223 394.84,220.225C410.165,216.311 414.799,218.087 423.431,231.093C430.757,242.086 437.557,253.445 445.149,264.038C462.688,288.467 486.586,299.855 516.843,298.203C538.126,296.732 558.957,291.356 578.294,282.343C583.033,280.165 586.824,274.982 591.213,271.157Z" />
		</g>
	</g>
</svg>
