<svg fill-rule="evenodd" stroke-linejoin="round" stroke-miterlimit="2" class="blend" clip-rule="evenodd" viewBox="0 0 960 971">
	<g transform="translate(-416.231 -3.73) scale(4.16667)">
		<clipPath id="a">
			<path d="M263.93,-104.424L-7.137,68.598L166.156,340.091L437.224,167.069L263.93,-104.424Z" />
		</clipPath>
		<g clip-path="url(#a)">
			<path fill="url(#_Linear2)" d="M215.228,0.895C214.236,0.905 213.233,1.133 212.285,1.602C208.895,3.273 207.503,7.375 209.174,10.765L317.21,229.84C318.882,233.229 322.984,234.622 326.373,232.95C329.763,231.279 331.155,227.177 329.484,223.787L221.447,4.712C220.267,2.32 217.877,0.922 215.381,0.895L215.228,0.895ZM191.216,47.54C190.989,47.561 190.768,47.601 190.546,47.644C190.338,47.686 190.131,47.729 189.925,47.79C189.684,47.863 189.453,47.957 189.22,48.055C189.098,48.105 188.971,48.133 188.851,48.193C188.792,48.222 188.746,48.264 188.689,48.294C188.457,48.415 188.241,48.561 188.023,48.709C187.866,48.817 187.704,48.919 187.557,49.04C187.37,49.192 187.201,49.367 187.029,49.54C186.883,49.688 186.734,49.831 186.603,49.988C186.462,50.161 186.34,50.351 186.215,50.539C186.088,50.728 185.961,50.915 185.854,51.118C185.818,51.184 185.77,51.236 185.738,51.304L100.603,223.939C98.931,227.328 100.324,231.43 103.713,233.101C107.102,234.773 111.204,233.38 112.875,229.991L191.876,69.796L207.275,101.026L165.214,186.318C165.141,186.467 165.106,186.622 165.045,186.772C164.947,187.005 164.85,187.236 164.78,187.479C164.732,187.646 164.704,187.813 164.67,187.982C164.611,188.264 164.559,188.545 164.535,188.834C164.526,188.956 164.53,189.074 164.528,189.196C164.518,189.534 164.525,189.871 164.568,190.21C164.576,190.273 164.59,190.334 164.6,190.397C164.658,190.78 164.743,191.159 164.868,191.534C164.873,191.548 164.879,191.56 164.884,191.574C164.992,191.889 165.096,192.207 165.253,192.512C166.984,195.872 171.11,197.193 174.469,195.463L214.906,174.637L255.344,195.463C255.482,195.535 255.628,195.57 255.769,195.63C255.997,195.729 256.221,195.828 256.458,195.902C256.67,195.967 256.883,196.008 257.097,196.053C257.316,196.098 257.531,196.144 257.752,196.168C257.976,196.191 258.196,196.192 258.419,196.194C258.639,196.196 258.858,196.2 259.079,196.18C259.303,196.16 259.521,196.117 259.741,196.075C259.954,196.035 260.167,195.998 260.38,195.936C260.618,195.867 260.846,195.77 261.077,195.675C261.219,195.617 261.364,195.585 261.502,195.517C261.545,195.495 261.581,195.463 261.622,195.441C261.851,195.323 262.064,195.175 262.279,195.031C262.441,194.923 262.611,194.824 262.761,194.703C262.936,194.563 263.09,194.396 263.252,194.238C263.412,194.079 263.58,193.929 263.723,193.757C263.848,193.609 263.949,193.439 264.062,193.278C264.209,193.067 264.36,192.858 264.482,192.632C264.505,192.59 264.537,192.555 264.559,192.512C264.631,192.375 264.666,192.229 264.726,192.088C264.825,191.861 264.925,191.635 264.998,191.398C265.063,191.186 265.105,190.973 265.149,190.759C265.194,190.541 265.241,190.325 265.264,190.103C265.288,189.88 265.288,189.66 265.29,189.438C265.293,189.217 265.296,188.998 265.276,188.776C265.256,188.552 265.213,188.335 265.171,188.116C265.131,187.902 265.094,187.688 265.033,187.476C264.964,187.237 264.867,187.01 264.772,186.78C264.713,186.639 264.682,186.493 264.613,186.354L198.014,51.304C197.98,51.236 197.932,51.184 197.897,51.118C197.79,50.915 197.662,50.728 197.535,50.538C197.41,50.351 197.288,50.161 197.147,49.989C197.016,49.831 196.867,49.687 196.72,49.54C196.549,49.367 196.381,49.192 196.194,49.04C196.047,48.919 195.885,48.817 195.727,48.709C195.509,48.561 195.293,48.415 195.061,48.294C195.004,48.264 194.958,48.222 194.899,48.193C194.779,48.133 194.652,48.105 194.53,48.055C194.297,47.957 194.067,47.863 193.825,47.79C193.619,47.729 193.413,47.686 193.204,47.644C192.982,47.601 192.761,47.561 192.535,47.54C192.314,47.518 192.096,47.513 191.876,47.513C191.655,47.513 191.436,47.518 191.216,47.54ZM214.905,116.496L243.163,173.797L218.298,160.991C217.822,160.721 217.317,160.518 216.793,160.369C216.753,160.358 216.714,160.354 216.674,160.343C216.28,160.238 215.881,160.165 215.473,160.131C215.451,160.129 215.429,160.13 215.407,160.13C215.388,160.13 215.369,160.13 215.35,160.129C214.947,160.102 214.544,160.108 214.137,160.155C214.116,160.157 214.096,160.164 214.074,160.166C213.661,160.218 213.251,160.303 212.846,160.433C212.837,160.436 212.827,160.441 212.818,160.444C212.471,160.557 212.124,160.677 211.789,160.849L186.646,173.799L214.905,116.496Z" />
		</g>
	</g>
	<defs>
		<linearGradient id="_Linear2" x1="0" x2="1" y1="0" y2="0" gradientTransform="rotate(147.45 137.697 76.476) scale(153.7698)" gradientUnits="userSpaceOnUse">
			<stop offset="0" stop-color="#0877ba" />
			<stop offset="1" stop-color="#12a9b8" />
		</linearGradient>
	</defs>
</svg>
