<svg viewBox="0 0 101 94" fill="none" xmlns="http://www.w3.org/2000/svg">
	<path d="M13.2522 9.448H13.2322C12.1426 9.448 11.2595 10.3311 11.2595 11.4207C11.2595 12.5102 12.1426 13.3933 13.2322 13.3933H13.2522C14.3418 13.3933 15.2249 12.5102 15.2249 11.4207C15.2249 10.3311 14.3418 9.448 13.2522 9.448Z" fill="white" />
	<path d="M23.0231 9.448H23.0031C21.9135 9.448 21.0304 10.3311 21.0304 11.4207C21.0304 12.5102 21.9135 13.3933 23.0031 13.3933H23.0231C24.1127 13.3933 24.9957 12.5102 24.9957 11.4207C24.9957 10.3311 24.1127 9.448 23.0231 9.448Z" fill="white" />
	<path d="M32.7938 9.448H32.7738C31.6842 9.448 30.8011 10.3311 30.8011 11.4207C30.8011 12.5102 31.6842 13.3933 32.7738 13.3933H32.7938C33.8834 13.3933 34.7665 12.5102 34.7665 11.4207C34.7665 10.3311 33.8834 9.448 32.7938 9.448Z" fill="white" />
	<path d="M87.6468 9.448H49.5884C48.4988 9.448 47.6157 10.3311 47.6157 11.4207C47.6157 12.5095 48.4988 13.3933 49.5884 13.3933H87.6468C88.7364 13.3933 89.6194 12.5095 89.6194 11.4207C89.6194 10.3311 88.7364 9.448 87.6468 9.448Z" fill="white" />
	<path d="M51.8594 89.1519C51.3408 89.1519 50.8337 89.363 50.4646 89.7298C50.0979 90.0966 49.8867 90.6059 49.8867 91.1245C49.8867 91.6431 50.0979 92.1525 50.4646 92.5192C50.8337 92.886 51.3408 93.0972 51.8594 93.0972C52.378 93.0972 52.8873 92.886 53.2541 92.5192C53.6224 92.1525 53.832 91.6431 53.832 91.1245C53.832 90.6059 53.6224 90.0966 53.2541 89.7298C52.8873 89.363 52.378 89.1519 51.8594 89.1519Z" fill="white" />
	<path d="M94.733 0H6.26704C2.81181 0 0 2.81181 0 6.26704V86.83C0 90.286 2.81181 93.097 6.26704 93.097H43.5957C44.6853 93.097 45.5684 92.214 45.5684 91.1244C45.5684 90.0348 44.6853 89.1517 43.5957 89.1517H6.26704C4.98712 89.1517 3.94531 88.1107 3.94531 86.83V22.8412H97.0547V86.83C97.0547 88.1099 96.0129 89.1517 94.733 89.1517H59.9033C58.8137 89.1517 57.9306 90.0348 57.9306 91.1244C57.9306 92.214 58.8137 93.097 59.9033 93.097H94.733C98.1882 93.097 101 90.286 101 86.83V6.26704C101 2.81181 98.1882 0 94.733 0ZM3.94531 18.8951V6.26704C3.94531 4.98712 4.98712 3.94531 6.26704 3.94531H94.733C96.0129 3.94531 97.0547 4.98712 97.0547 6.26704V18.8959H3.94531V18.8951Z" fill="white" />
	<path d="M35.121 45.3713C35.121 41.4553 31.9355 38.2698 28.0195 38.2698H21.3779C20.2883 38.2698 19.4053 39.1528 19.4053 40.2424V60.7581C19.4053 61.8476 20.2883 62.7307 21.3779 62.7307H28.0195C31.9355 62.7307 35.121 59.5452 35.121 55.6292C35.121 53.6141 34.2765 51.794 32.9234 50.5002C34.2765 49.2065 35.121 47.3864 35.121 45.3713ZM31.1757 55.6292C31.1757 57.3691 29.7594 58.7854 28.0195 58.7854H23.3506V52.4729H28.0195C29.7594 52.4729 31.1757 53.8884 31.1757 55.6292ZM23.3506 48.5276V42.2151H28.0195C29.7602 42.2151 31.1757 43.6314 31.1757 45.3713C31.1757 47.1113 29.7602 48.5276 28.0195 48.5276H23.3506Z" fill="white" />
	<path d="M40.7646 38.2698C39.6751 38.2698 38.792 39.1528 38.792 40.2424V56.1955C38.792 59.7995 41.724 62.7307 45.3272 62.7307C46.4168 62.7307 47.2998 61.8476 47.2998 60.7581C47.2998 59.6685 46.4168 58.7854 45.3272 58.7854C43.8993 58.7854 42.7373 57.6234 42.7373 56.1955V40.2424C42.7373 39.1528 41.8542 38.2698 40.7646 38.2698Z" fill="white" />
	<path d="M64.0852 55.5873C64.0852 51.6482 60.8811 48.4434 56.942 48.4434C53.0029 48.4434 49.7988 51.6482 49.7988 55.5873C49.7988 59.5265 53.0036 62.7305 56.942 62.7305C60.8811 62.7305 64.0852 59.5265 64.0852 55.5873ZM53.7441 55.5873C53.7441 53.8235 55.1789 52.3887 56.942 52.3887C58.7051 52.3887 60.1399 53.8235 60.1399 55.5873C60.1399 57.3504 58.7058 58.7852 56.942 58.7852C55.1782 58.7852 53.7441 57.3504 53.7441 55.5873Z" fill="white" />
	<path d="M74.4508 68.2539C72.6877 68.2539 71.2529 66.8191 71.2529 65.0561C71.2529 63.9665 70.3699 63.0834 69.2803 63.0834C68.1907 63.0834 67.3076 63.9665 67.3076 65.0561C67.3076 68.9952 70.5124 72.1992 74.4508 72.1992C78.3899 72.1992 81.5947 68.9952 81.5947 65.0561V55.5873C81.5947 51.6482 78.3899 48.4434 74.4508 48.4434C70.5124 48.4434 67.3076 51.6482 67.3076 55.5873C67.3076 59.5265 70.5124 62.7305 74.4508 62.7305C75.6005 62.7305 76.6862 62.4562 77.6494 61.9715V65.0561C77.6494 66.8191 76.2146 68.2539 74.4508 68.2539ZM74.4508 58.7852C72.6877 58.7852 71.2529 57.3504 71.2529 55.5873C71.2529 53.8235 72.6877 52.3887 74.4508 52.3887C76.2146 52.3887 77.6494 53.8235 77.6494 55.5873C77.6494 57.3504 76.2146 58.7852 74.4508 58.7852Z" fill="white" />
	<path d="M21.3779 82.0625H79.6221C80.7117 82.0625 81.5948 81.1794 81.5948 80.0898C81.5948 79.0003 80.7117 78.1172 79.6221 78.1172H21.3779C20.2891 78.1172 19.4053 79.0003 19.4053 80.0898C19.4053 81.1794 20.2891 82.0625 21.3779 82.0625Z" fill="white" />
</svg>
