<svg viewBox="0 0 66 66" fill="none" xmlns="http://www.w3.org/2000/svg">
	<path d="M32.5895 65.1296C50.5463 65.1296 65.1032 50.5727 65.1032 32.6158C65.1032 14.659 50.5463 0.102051 32.5895 0.102051C14.6326 0.102051 0.0756836 14.659 0.0756836 32.6158C0.0756836 50.5727 14.6326 65.1296 32.5895 65.1296Z" fill="white" />
	<path d="M0.0580148 30.5543C0.225228 29.3652 0.355274 28.1761 0.559647 26.9871C1.30282 22.3422 3.08644 18.1062 5.74327 14.2231C9.77498 8.3706 15.163 4.26458 21.8329 1.88643C26.3663 0.27003 31.0483 -0.175874 35.8417 0.27003C41.8057 0.827408 47.1751 2.92687 51.9686 6.49409C57.8025 10.8231 61.7413 16.5083 63.8221 23.4756C65.1599 27.9346 65.4386 32.5051 64.8069 37.1128C63.5435 46.1981 59.0287 53.3882 51.8014 58.9063C49.1817 60.9129 46.2276 62.3435 43.1062 63.4025C41.6756 63.8855 40.7095 63.1981 40.6909 61.6932C40.6723 58.8691 40.6909 56.0637 40.6909 53.2396C40.6909 51.8462 40.6166 50.4341 40.0035 49.1336C39.6505 48.3718 39.1489 47.703 38.7029 46.9784C39.892 46.7554 41.174 46.5882 42.4374 46.2724C45.7445 45.4177 48.7172 43.95 50.7237 41.033C52.1915 38.915 52.8604 36.4997 53.1576 33.9729C53.3806 32.0592 53.4549 30.127 53.0833 28.2133C52.6746 26.0953 51.7642 24.2002 50.3336 22.5838C50.0735 22.2865 50.0363 22.045 50.1664 21.692C51.0953 19.0165 50.7423 16.3969 49.7576 13.8329C49.7019 13.6657 49.4232 13.5171 49.2374 13.4985C48.1041 13.3313 47.0451 13.6657 46.0418 14.1302C44.4068 14.9105 42.809 15.8023 41.1926 16.6012C40.8953 16.7499 40.5051 16.8428 40.2079 16.7684C35.1357 15.5051 30.0822 15.5051 25.01 16.7684C24.7127 16.8428 24.2854 16.7684 24.0253 16.5827C21.9073 15.2821 19.7335 14.2231 17.3553 13.5914C17.3182 13.5728 17.281 13.5728 17.2253 13.5542C15.7018 13.2384 15.4417 13.4056 14.9958 14.8919C14.3269 17.1958 14.1969 19.4996 15.0143 21.822C15.0887 22.0078 15.0143 22.3237 14.8843 22.4723C12.1531 25.575 11.54 29.2537 11.9116 33.2111C12.1346 35.5335 12.6734 37.7445 13.7138 39.8439C15.1816 42.7795 17.6526 44.5817 20.6624 45.6221C22.4461 46.2352 24.3597 46.4953 26.1991 46.9226C26.292 46.9412 26.4034 46.9598 26.422 46.9598C25.9575 47.8144 25.4559 48.6691 25.01 49.5423C24.8614 49.8396 24.7499 50.174 24.7313 50.5084C24.7127 51.1959 24.3411 51.5117 23.728 51.6789C21.6657 52.2363 19.622 52.5893 17.6526 51.3817C16.6122 50.75 15.8504 49.8582 15.2373 48.8177C14.3083 47.2199 12.9892 46.0494 11.2056 45.5292C10.5553 45.3434 9.79356 45.3806 9.08755 45.4363C8.66022 45.4549 8.51159 45.8079 8.80886 46.1795C9.10613 46.5325 9.38482 46.9598 9.77498 47.1828C11.5214 48.186 12.5061 49.8024 13.2865 51.5675C13.7324 52.5708 14.1597 53.574 15.0143 54.3358C16.3892 55.562 18.0242 56.0265 19.7892 56.1008C21.3127 56.1751 22.8548 56.1194 24.4898 56.1194C24.4898 57.0484 24.4898 58.1074 24.4898 59.185C24.4898 60.0025 24.5269 60.8385 24.5269 61.656C24.5269 63.1795 23.5237 63.9227 22.0745 63.4211C17.2624 61.7861 13.0449 59.2036 9.49629 55.562C6.05912 52.032 3.42086 47.9817 1.80446 43.2997C0.894076 40.6428 0.355277 37.9117 0.132325 35.1248C0.113746 34.8833 0.058008 34.6231 0.0394287 34.3816C0.058008 33.0996 0.0580148 31.8177 0.0580148 30.5543Z" fill="currentColor" />
</svg>
