<svg fill-rule="evenodd" stroke-linejoin="round" stroke-miterlimit="2" clip-rule="evenodd" viewBox="0 0 209 209">
	<g fill-rule="nonzero">
		<path fill="none" d="M0 0H50V50H0z" transform="scale(4.16667)" />
		<path fill="#fff" d="M25.006,46.5L3.5,24.995L24.992,3.5L46.5,25.008L25.006,46.5ZM26.293,31.057L28.962,31.057L32.272,18.087L29.757,18.087L27.959,26.586C27.875,27.059 27.808,27.508 27.768,27.934L27.721,28.279L27.66,28.279C27.62,27.616 27.549,27.068 27.46,26.634L25.661,18.087L23.074,18.087L26.293,31.057ZM35.53,20.26L36.363,20.26C36.875,20.26 37.293,20.433 37.612,20.782C37.929,21.127 38.089,21.653 38.089,22.351C38.089,23.773 37.524,24.484 36.389,24.484L35.53,24.484L35.53,20.26ZM35.53,26.634L36.571,26.634C37.806,26.634 38.799,26.217 39.554,25.386C40.307,24.55 40.685,23.498 40.685,22.219C40.685,20.874 40.342,19.851 39.654,19.144C38.973,18.442 38.015,18.087 36.779,18.087L33.036,18.087L33.036,31.057L35.53,31.057L35.53,26.634ZM17.171,25.91C17.097,26.242 17.022,26.772 16.945,27.501L16.882,27.981L16.837,27.981C16.8,27.444 16.693,26.778 16.509,25.985L14.694,18.087L11.194,18.087L11.194,31.057L13.263,31.057L13.263,24.181C13.263,22.997 13.232,21.79 13.174,20.575L13.246,20.575L13.596,22.873L15.579,31.057L17.859,31.057L19.749,22.753C19.928,21.852 20.055,21.123 20.137,20.575L20.192,20.575C20.131,21.883 20.1,22.86 20.1,23.512L20.1,31.057L22.243,31.057L22.243,18.087L18.88,18.087L17.171,25.91Z" transform="scale(4.16667)" />
	</g>
</svg>
