<svg viewBox="0 0 64 65" fill="none" xmlns="http://www.w3.org/2000/svg">
	<circle cx="31.9627" cy="32.0647" r="31.9627" fill="currentColor" />
	<path d="M10.9586 48.0345C15.9809 48.4851 20.4427 47.2762 24.465 44.2321C20.2559 43.8694 17.4425 41.7704 15.871 37.8251C17.2777 37.9899 18.5965 38.0229 19.9812 37.6273C17.7942 37.1108 16.0468 36.0448 14.6951 34.3633C13.3434 32.6709 12.662 30.7477 12.673 28.4948C13.9588 29.1432 15.2556 29.5608 16.7941 29.6048C14.783 28.1432 13.4972 26.3189 12.9807 24.0001C12.4642 21.6812 12.7939 19.4723 13.9808 17.3403C18.9701 23.1978 25.2562 26.4288 32.938 26.9563C32.8831 26.3519 32.8061 25.8134 32.7732 25.2639C32.4215 19.4723 37.7735 14.7357 43.4991 15.7688C45.3784 16.1095 47.0158 16.9117 48.3786 18.2524C48.6093 18.4832 48.8071 18.5162 49.1149 18.4393C50.8512 18.0326 52.4997 17.4282 54.0492 16.56C54.1701 16.4941 54.302 16.4282 54.5218 16.3183C53.8075 18.4722 52.5107 20.0548 50.7084 21.2636C50.7194 21.3076 50.7413 21.3405 50.7523 21.3845C51.5766 21.2087 52.4228 21.0658 53.236 20.846C54.0492 20.6262 54.8405 20.3185 55.7307 20.0108C55.346 20.5163 55.0603 21.0109 54.6756 21.3955C53.6426 22.4395 52.5656 23.4506 51.4886 24.4616C51.2688 24.6594 51.1809 24.8353 51.1919 25.132C51.2579 33.0446 48.4665 39.7923 42.7958 45.2981C39.2241 48.7599 34.9052 50.8369 30.0148 51.7051C25.2123 52.5623 20.4977 52.2106 15.904 50.5182C14.2445 49.9028 12.662 49.1225 11.1564 48.1884C11.1125 48.1664 11.0795 48.1334 10.9586 48.0345Z" fill="white" />
</svg>
