<svg xmlns="http://www.w3.org/2000/svg" viewBox="0 0 540 300"><mask id="a" fill="#fff"><path d="m.00791631.04982692h91.44602699v81.65435628h-91.44602699z" fill="#fff" fill-rule="evenodd"/></mask><g fill="#10162c" fill-rule="evenodd"><g transform="translate(.035631 168.546638)"><path d="m196.626464 49.1008031c-1.579651.1285856-3.170968.2463633-4.768674.3508391-1.598817.104753-3.203467.196204-4.809229.2713046-1.606594.0753778-3.213744.1344052-4.815339.1748653-1.602705.040183-3.199578.0620759-4.785618.0620759-1.586873 0-3.166246-.0218929-4.738398-.0620759-1.571874-.0404601-3.13597-.0994875-4.691178-.1748653-1.55493-.0751006-3.100971-.1665516-4.638125-.2713046-1.536597-.1044758-3.063751-.2222535-4.58146-.3508391l-.319152.8590849-7.689932 33.02932-.304153.8502169-21.539032 45.5353791-.51331 1.380355h16.205938l11.911964-31.3017276h11.253661l-7.397723 31.3017276h16.20566l.338318-1.380355 6.553317-45.5353791.21999-.8502169 12.691929-33.02932zm-29.959764 35.8063812c-.713023 0-1.35605-.160732-1.880471-.5248732-.52331-.363864-.926625-.9294744-1.161892-1.7381227-.234156-.8044914-.301098-1.8475868-.15416-3.1664207.145549-1.308026.501367-2.8834768 1.110228-4.7590531l4.448967-13.7051753h10.013438l-4.006764 13.7051753c-.548309 1.8755763-1.150226 3.4510271-1.793808 4.7590531-.648582 1.3188339-1.337162 2.3619293-2.052963 3.1664207-.719413.8086483-1.464101 1.3742587-2.222123 1.7381227-.759688.3641412-1.530486.5248732-2.300452.5248732"/><path d="m259.776013 49.1008031h-13.412452c-1.430491 1.9143737-2.806263 3.8642192-4.139258 5.8841772-1.351606 2.0471162-2.660436 4.1673931-3.939545 6.3985197-1.29772 2.2635502-2.566829 4.6437696-3.822051 7.1813955-1.275776 2.5789174-2.538775 5.325495-3.806218 8.285181-.557474-2.959686-1.16217-5.7062636-1.819084-8.285181-.646082-2.5376259-1.344384-4.9178453-2.099073-7.1813955-.744133-2.2311266-1.544375-4.3514035-2.404892-6.3985197-.84885-2.019958-1.757698-3.9698035-2.729599-5.8841772h-13.409675l-.177214.8590849-2.221845 33.02932-.163603.8502169-14.001037 45.5353791-.28471 1.380355h17.07951l9.654566-59.8189121c.759688 1.732026 1.471322 3.3950481 2.124904 5.0037538.660248 1.624779 1.260777 3.1930246 1.791864 4.7208101.536087 1.5421959 1.001344 3.042269 1.385493 4.517678.387483 1.4881568.692747 2.9505409.905515 4.4051657l-10.225651 39.7911495-.203324 1.380355h20.67157l.12805-1.380355-.683858-39.7911495c.561919-1.4546248 1.217723-2.9170089 1.962134-4.4051657.738022-1.475409 1.562707-2.9754821 2.4685-4.517678.897182-1.5277855 1.873805-3.0960311 2.922924-4.7208101 1.03912-1.6087057 2.14907-3.2717278 3.323462-5.0037538l-4.6909 59.8189121h17.082843l.046109-1.380355-3.084028-45.5353791.039998-.8502169 5.701688-33.02932z"/><path d="m335.711182 49.1008031h-17.537267l.139438.8590849 9.952331 33.02932.149715.8502169 2.783208 45.5353791.223879 1.380355h22.336496l-.305264-1.380355-14.672118-45.5353791-.176381-.8502169-2.704045-33.02932z"/><path d="m386.221078 49.1008031h-39.202126l.22249.8590849 13.14552 33.02932.231656.8502169 7.184955 45.5353791.357483 1.380355h49.929978l-.538865-1.380355-22.380383-45.5353791-.320263-.8502169-8.295183-33.02932zm-5.733909 63.8153199-15.838732-51.8103014h11.806691l17.809477 51.8103014z"/><path d="m436.537537 49.1008031h-13.412174l17.526712 34.0998506c-2.374338-3.1799997-4.784785-6.274091-7.239675-9.296407-2.409891-2.9668913-4.863948-5.8664414-7.369946-8.7105666-2.461556-2.7939658-4.973943-5.535278-7.544383-8.2364071-2.525998-2.6542952-5.108104-5.2695159-7.752429-7.8564699h-13.412731l.367484.8590849 18.717769 33.02932.375261.8502169 14.860443 45.5353791.590251 1.380355h17.082566l-27.797917-58.8320729c4.746731 4.9538714 9.167365 9.8326422 13.279958 14.6496144 4.234254 4.9588597 8.134634 9.8440043 11.724751 14.6723385 3.691778 4.964679 7.049961 9.861463 10.102046 14.710859 3.135692 4.981584 5.944177 9.906357 8.459064 14.799261h17.082565l-.771632-1.380355-30.059482-45.5353791-.463035-.8502169-13.865209-33.02932z"/><path d="m30.8881944.04982692h-30.88027809l6.07361578 10.16519128c5.18004481 8.6692751 10.44341931 15.0134784 15.61040921 19.8711878 5.3244828 5.0056937 10.4375862 8.3309065 15.2557029 11.0957742 4.8983908 2.8105932 9.4570747 5.0223212 13.7016061 7.8933274 4.3156393 2.9192259 8.3390695 6.5426243 12.1897297 12.287131l-27.0582278-1.8536835 14.5921216 22.1954281h41.0812083l-10.8622893-15.3041816c-8.1007469-11.4136356-15.0334907-18.9641605-21.1515489-24.3439718-5.9305667-5.2149224-11.2297728-8.5088202-16.0301125-11.151199-4.7247876-2.6005331-9.0009842-4.588899-12.8438669-7.0971497-3.7839966-2.4702848-7.1235686-5.4285852-9.9653853-9.8908384h21.0857186z" mask="url(#a)" transform="translate(448.035409 49.050976)"/><path d="m97.4392852 48.9037955h-39.3121212l-.6091392.8579764-18.8930394 33.1127344-.5955288.8554823-37.04388981 45.6841944-.98551124 1.388392h50.10941345l.8024639-1.388392 15.7490141-33.0345851h-12.8066464l-10.315925 16.5152141h-13.8243784l34.4387292-51.9599483h11.8411343l-8.2696282 13.2396067h11.7128067l17.506435-24.4126985z"/><path d="m295.343275 49.1008031h-23.803929l.004999.8590849 4.79284 33.02932.016944.8502169-4.336749 45.5353791.008333 1.380355h22.336495l-6.280273-39.8451883h10.845623c2.333229 0 4.48341-.658447 6.36527-1.8473097 1.869082-1.180826 3.461789-2.8776572 4.704233-4.9577512 1.227167-2.0548756 2.106572-4.4741695 2.574328-7.1304046.460258-2.613835.520255-5.4485381.123606-8.3863313-.437758-3.2401356-1.249111-6.0886949-2.343784-8.5326528-1.077173-2.4054377-2.433779-4.4301068-3.98732-6.0559943-1.537153-1.6087057-3.274853-2.8355344-5.136991-3.6577618-1.852139-.8183476-3.837328-1.2409619-5.883625-1.2409619m-3.106249 28.9774876c-1.112728 0-2.126571-.2183738-3.024031-.6254692-.895237-.4059869-1.673258-.9990326-2.318229-1.7483763-.642193-.7457411-1.151892-1.6452861-1.514654-2.6675972-.360817-1.01566-.576085-2.1510377-.633583-3.3764807-.064441-1.3692705.013333-2.5911109.238601-3.6519422.223601-1.0539032.592751-1.9509541 1.113283-2.6778507.518032-.7238483 1.187169-1.2803136 2.014354-1.6555397.824685-.3746719 1.808252-.5692131 2.959034-.5692131h1.007177c1.05523 0 2.02102.2255791 2.883759.6384941.864961.4143006 1.62826 1.017877 2.27462 1.7733175.649693.7593202 1.182724 1.6738299 1.582984 2.7050089.402204 1.0383842.670525 2.1973175.786631 3.4377252.114717 1.225443.058887 2.3608207-.159437 3.3764807-.219157 1.0223111-.602473 1.9218561-1.139393 2.6675972-.539976.7493437-1.234667 1.3423894-2.072685 1.7483763-.84024.4070954-1.823251.6254692-2.935979.6254692h-1.054119z"/><path d="m147.505673 49.1008031h-13.892709l-5.477531 12.0050185-7.674933 16.820328h-12.446385l8.314904-16.820328 5.934178-12.0050185h-13.961872l-.464702.8590849-13.276625 33.02932-.4485909.8502169-29.2478515 45.5353791-.7471886 1.380355h17.7830892l8.8182146-17.839036 10.1323222-20.4972113h12.997471l-9.352635 20.4972113-8.1396339 17.839036h17.6944819l.56553-1.380355 14.049091-45.5353791.360261-.8502169 18.129185-33.02932z"/><path d="m193.841756.24007266h-23.32034l-3.18319 6.30124913 9.490128-.41790324-10.88451 24.08763195-.168326.4533751h11.601145l.149715-.4533751 6.011952-24.08763195 9.06126.41790324z"/><path d="m245.911081.24007266h-8.886545l-3.722332 21.09690794c-.090274.4902327-.19638.9206065-.339707 1.2902901-.14416.3710693-.325819.680617-.567197.9289202-.241656.2485804-.542753.4353621-.925514.5600679-.38276.1247059-.846906.1870588-1.414103.1870588-.566919 0-1.018565-.0651241-1.374105-.1912156-.355539-.1260915-.614417-.3128732-.796631-.5564653-.182214-.2427608-.287764-.5417778-.33554-.8923398-.048331-.3500079-.039443-.7507294.006666-1.1980078l2.428502-21.22521644h-6.687477l-4.907279 21.22521644c-.10944.4472784-.239156.8479999-.408871 1.1980078-.169437.350562-.378316.649579-.644415.8923398-.266655.2435921-.590251.4303738-.9894.5564653s-.873294.1912156-1.440491.1912156c-.566363 0-1.008566-.0623529-1.34855-.1870588-.339152-.1247058-.575808-.3114875-.731356-.5600679-.155827-.2483032-.230268-.5578509-.2461-.9289202-.015555-.3696836.027498-.8000574.107217-1.2902901l3.569284-21.09690794h-8.888767l-3.36096 30.42435294h34.749271z"/><path d="m270.558695.24007266h-11.220329l-.014999.3613699 2.231844 13.21134004-.009999.3217411-3.458456 16.0765268-.019166.4533751h12.588323l-.001389-.4533751-2.838483-16.0765268.0025-.3217411 2.741265-13.21134004z"/><path d="m294.862325.24007266h-9.901222l.022221.3613699 3.590117 13.21134004.023054.3217411-1.809641 16.0765268.027499.4533751h22.461212l-.223878-6.7083445-11.751139.5212705z"/><path d="m330.71549.24007266h-11.220329l.072219.3613699 5.416701 13.21134004.067497.3217411.417481 16.0765268.090552.4533751h12.588045l-.110828-.4533751-6.713865-16.0765268-.075274-.3217411-.444147-13.21134004z"/><path d="m369.301811.24007266h-25.080261l.107773.3613699 6.726086 13.21134004.09944.3217411 2.010187 16.0765268.13555.4533751h28.138179l-.180825-.4533751-9.200142-16.0765268-.124994-.3217411-2.486833-13.21134004zm-7.989641 24.41159004-6.494708-19.43416302h7.403834l7.060516 19.43416302z"/><path d="m455.95047 12.2722494h-67.474466l2.11185 4.6526375h68.674689z"/><path d="m152.498948 12.2722494h-68.9266226l-3.3115177 4.6526375h70.1521233z"/></g><path d="m366.793547 79.3926247-2.836135 2.8181702 67.893315 67.4638251h5.672269z"/><path d="m355.494115 89.9962797 29.267494 34.9494903h3.934672l-31.062938-37.0932754z"/><path d="m346.379795 99.1801659 35.472038 50.4944541h4.891379l-37.486004-53.3622556z"/><path d="m323.018935 106.073753-.075963.035291 20.352891 43.565576h4.385978l-20.369466-43.600867z"/><path d="m311.875583 101.787145v.792254 5.661139l9.784707 26.46662h3.23575l-12.270106-33.18872z"/><path d="m306.360517 128.199566h-1.646186l5.72367 22.125814h4.041673l-5.72394-22.125814z"/><path d="m292.344897 128.199566 2.217264 13.015185h2.990919l-2.21781-13.015185z"/><path d="m279.32444 135.158932 1.248176 14.515688h3.960007l-1.566732-18.221258z"/><path d="m266.303983 149.67462h3.255114v-4.555314l-3.255114.00027z"/><path d="m251.981479 149.67462h3.960215l1.247968-14.515854-3.641369-3.705404z"/><path d="m241.222701 128.199566-1.610656 9.110629h2.946774l1.610386-9.110629z"/><path d="m227.758368 128.199566-5.72394 22.125814h4.041673l5.72367-22.125814h-1.646186z"/><path d="m224.638519 102.742589v-.973617l-.692879-.250534-11.676555 31.887202h3.231469l9.137965-24.954448z"/><path d="m212.426589 98.9154013-23.594327 50.7592187h4.399656l23.594327-50.7592187z"/><path d="m199.703188 99.5661605-19.985246 34.4902385h3.451299l19.985524-34.4902385z"/><path d="m189.586429 98.8645014-1.608664-1.6127547-.936999-.9393823-37.269876 53.3622556h4.875672l35.487745-50.8101186z"/><path d="m180.368964 90.6474745-2.132675-2.1442207-30.418468 36.4425162h3.92262z"/><path d="m170.380234 78.7418655-71.3891275 71.5835145h5.6549585l68.561648-68.7480687z"/><path d="m340.528816 105.422993-.249932.256605h-2.241189-.77222l11.565803 20.567691h3.407723z"/><path d="m187.828686 66.3774403h-13.318927l5.560736 5.2060738h13.318927z"/><path d="m155.8478 49.6714413h7.092444l5.493156 5.4293516h-7.091892zm9.363867-5.4198144h-22.602029l16.460446 16.2689805h22.600926z"/><g transform="translate(172.55669)"><path d="m128.705833 105.057942v11.985467h-11.995446l-10.372463-10.363796 11.995447-11.9857457zm-24.304139 17.635465-8.481856 8.475276-8.4818563-8.475554v-14.07913l8.4818563 8.474997 8.481856-8.474719zm-29.2726832-5.649998h-11.9951681v-11.985467l10.3724626-10.3640747 11.9954463 11.9857457zm-16.9325548-45.4660003h12.4594738v12.4493979zm-11.5280804-5.5288036-16.6092934-16.5961396h40.5968476v16.5961396zm-16.0481762 0-16.9779004-16.5961396h8.5914647l16.6095716 16.5961396zm30.5954958-41.1371894 12.7721639 9.2716562c-1.680848 2.9314612-2.7925112 6.2276177-3.1772535 9.74059h-15.7880648c.4662532-6.9525608 2.6737224-13.4325743 6.1931544-19.0122462zm19.4349097-16.23311209 4.8806352 15.00865859c-3.162231 1.4318184-5.9825615 3.489345-8.2912934 6.0235884l-12.7699383-9.2705444c4.3086684-5.1460402 9.8569692-9.2163404 16.1805965-11.76170259zm15.2692331-2.95814618c3.4523873 0 6.804347.43335368 10.009698 1.24001974l-4.880357 15.00838063c-1.6569238-.3424578-3.3722679-.5236936-5.129341-.5236936-1.7570732 0-3.4724173.1812358-5.1293407.5239716l-4.880357-15.00865863c3.2053511-.80666606 6.5573103-1.24001974 10.0096977-1.24001974zm31.450108 14.71984877-12.769939 9.2705444c-2.308731-2.5342434-5.129062-4.59177-8.291571-6.0235884l4.880635-15.00865859c6.323627 2.54536219 11.871928 6.61566239 16.180875 11.76170259zm-34.4434753 45.7361867c-8.4876983-1.2964475-15.2130378-8.0160703-16.5102564-16.4971827 8.4876984 1.2964475 15.2130379 8.0160703 16.5102564 16.4971827zm22.4972693-16.4971827c-1.297219 8.4811124-8.022558 15.2007352-16.5102566 16.4971827 1.2972186-8.4811124 8.0225576-15.2007352 16.5102566-16.4971827zm-19.503902 8.0249653c-3.7620173-7.3408835-11.012587-12.6086742-19.5550895-13.6035253 1.2727374-9.6513619 9.5537376-17.1267824 19.5550895-17.1267824 10.001352 0 18.282352 7.4754205 19.555089 17.1267824-8.542502.9948511-15.7930718 6.2626418-19.555089 13.6035253zm15.581088 35.9978204-15.581088 15.5687661-15.5808103-15.5687661h11.6796961l-5.5332783-5.5285256h-10.2959592v-25.7460454c4.6333207 5.7873147 11.7536956 9.5043163 19.7303517 9.5043163 7.976934 0 15.097309-3.7170016 19.730352-9.5043163v6.385782 2.7644018 16.5958616h-10.295681l-5.5332787 5.5285256zm9.528144-49.778134c-.384742-3.5129723-1.496405-6.8088508-3.176975-9.74059l12.771886-9.2716562c3.519432 5.5796719 5.726901 12.0596854 6.193154 19.0122462zm40.751524 5.5288036-16.609294 16.5961396h-23.987554v-16.5961396zm16.030928 0-16.609572 16.5961396h-8.205609l16.609571-16.5961396zm-56.627776 34.5743411v-12.4493979h12.459474zm33.639494 4.1464637h-29.963995l16.609293-16.5958616h22.025452l27.675572-27.6537468h-48.799953c-1.436316-24.3562004-21.719439-43.73230803-46.449771-43.73230803-24.730054 0-45.0131771 19.37610763-46.4497708 43.73230803h-49.39584505l28.28954595 27.6537468h22.0073694l16.6095716 16.5958616h-53.675303l5.5330001 5.5285256h47.8354549l-9.0732966 9.0659591v19.804458h19.8202083l4.4839306-4.480027v6.89113l14.0151346 14.003801 14.015135-14.003801v-6.89113l4.48393 4.480027h19.820487v-19.804458l-9.073297-9.0659591h31.948909l5.608113-5.6035772h7.131224l-12.414128 12.4043673h7.825041l17.947406-17.9328929h-22.781305z"/><path d="m138.371989 82.6435494h14.052413l5.533-5.5285256h-14.052135z"/><path d="m202.988244 54.9910814h-7.15654l5.543293-5.5385325h7.15654zm-3.905287-11.0673361-16.609293 16.5961396h22.80662l16.609294-16.5961396z"/><path d="m176.912176 66.0486329-5.533278 5.5285256h13.253161l5.533279-5.5285256z"/><path d="m33.882163 77.114996 5.5332782 5.5285256h14.0521344l-5.5330001-5.5285256z"/></g></g></svg>