<svg viewBox="0 0 64 64" width="64" height="64" fill="none" xmlns="http://www.w3.org/2000/svg">
	<circle cx="31.9627" cy="31.9627" r="31.9627" fill="currentColor" />
	<path d="M52 26.3451V26.2842C52 26.2232 52 26.1623 52 26.1623V26.1014C52 26.0404 52 26.0404 51.939 25.9795C51.939 25.9795 51.939 25.9186 51.8781 25.9186C51.8781 25.8576 51.8172 25.8576 51.8172 25.7967L51.7562 25.7357C51.7562 25.6748 51.6953 25.6748 51.6953 25.6139L51.6343 25.5529C51.6343 25.492 51.5734 25.492 51.5734 25.492L51.5125 25.4311C51.4515 25.4311 51.4515 25.3701 51.3906 25.3701L51.3297 25.3092L33.414 13.3045C32.8656 12.9389 32.1343 12.9389 31.525 13.3045L13.7312 25.1873L13.6703 25.2482C13.6094 25.2482 13.6094 25.3092 13.5484 25.3092L13.4875 25.3701L13.4265 25.4311L13.3656 25.492C13.3656 25.5529 13.3047 25.5529 13.3047 25.6139L13.2437 25.6748C13.2437 25.7357 13.1828 25.7357 13.1828 25.7967C13.1828 25.7967 13.1828 25.8576 13.1219 25.8576C13.1219 25.9186 13.1219 25.9186 13.0609 25.9795V26.0404C13.0609 26.1014 13.0609 26.1623 13.0609 26.1623V26.2232C13.0609 26.2842 13.0609 26.3451 13.0609 26.467V38.3498C13.0609 38.4107 13.0609 38.4717 13.0609 38.5936V38.6545C13.0609 38.7154 13.0609 38.7764 13.0609 38.7764V38.8373C13.0609 38.8982 13.0609 38.8982 13.1219 38.9592C13.1219 38.9592 13.1219 39.0201 13.1828 39.0201C13.1828 39.0811 13.2437 39.0811 13.2437 39.142L13.3047 39.2029C13.3047 39.2639 13.3656 39.2639 13.3656 39.3248L13.4265 39.3857C13.4265 39.4467 13.4875 39.4467 13.4875 39.4467L13.5484 39.5076C13.5484 39.5076 13.6094 39.5686 13.6703 39.5686L13.7312 39.6295L31.525 51.5123C31.8297 51.6951 32.1343 51.817 32.439 51.817C32.7437 51.817 33.1094 51.6951 33.3531 51.5123L51.2687 39.8123L51.3297 39.7514C51.3906 39.7514 51.3906 39.6904 51.4515 39.6904L51.5125 39.6295L51.5734 39.5686L51.6343 39.5076C51.6343 39.4467 51.6953 39.4467 51.6953 39.3857L51.7562 39.3248C51.7562 39.2639 51.8172 39.2639 51.8172 39.2029C51.8172 39.2029 51.8172 39.142 51.8781 39.142C51.8781 39.0811 51.8781 39.0811 51.939 39.0201V38.9592C51.939 38.8982 51.939 38.8373 51.939 38.8373V38.7764C51.939 38.7154 51.939 38.6545 51.939 38.5326V26.5279C52 26.467 52 26.4061 52 26.3451ZM34.2062 17.8139L47.3078 26.5889L41.4578 30.4889L34.2062 25.6139V17.8139ZM30.7937 17.8139V25.6139L23.5422 30.4889L17.6922 26.5889L30.7937 17.8139ZM16.3515 29.6967L20.5562 32.4998L16.3515 35.3029V29.6967ZM30.7937 47.1857L17.6922 38.4107L23.5422 34.5107L30.7937 39.3857V47.1857V47.1857ZM32.5 36.4607L26.589 32.4998L32.5 28.5389L38.4109 32.4998L32.5 36.4607ZM34.2062 47.1857V39.3857L41.4578 34.5107L47.3078 38.4107L34.2062 47.1857ZM48.6484 35.3029L44.4437 32.4998L48.6484 29.6967V35.3029Z" fill="white" />
</svg>