<svg viewBox="0 0 65 65" width="65" height="65" fill="none" xmlns="http://www.w3.org/2000/svg">
	<path d="M32.4822 64.0274C50.1347 64.0274 64.4449 49.7172 64.4449 32.0647C64.4449 14.4122 50.1347 0.102051 32.4822 0.102051C14.8297 0.102051 0.519531 14.4122 0.519531 32.0647C0.519531 49.7172 14.8297 64.0274 32.4822 64.0274Z" fill="currentColor" />
	<path d="M44.1542 23.0327C45.5945 23.0327 46.7621 21.8651 46.7621 20.4248C46.7621 18.9845 45.5945 17.8169 44.1542 17.8169C42.7139 17.8169 41.5463 18.9845 41.5463 20.4248C41.5463 21.8651 42.7139 23.0327 44.1542 23.0327Z" fill="white" />
	<path d="M32.4028 20.9497C26.2965 20.9497 21.3351 25.9111 21.3351 32.0174C21.3351 38.1237 26.2965 43.0851 32.4028 43.0851C38.5091 43.0851 43.4704 38.1237 43.4704 32.0174C43.4704 25.9111 38.5091 20.9497 32.4028 20.9497ZM32.4028 40.016C27.982 40.016 24.4041 36.4381 24.4041 32.0174C24.4041 27.5967 27.982 24.0188 32.4028 24.0188C36.8235 24.0188 40.4014 27.5967 40.4014 32.0174C40.4014 36.4381 36.8235 40.016 32.4028 40.016Z" fill="white" />
	<path d="M53.7747 31.3018C53.7588 27.5171 53.5521 24.0028 53.2341 20.7588C53.0273 18.6439 51.6121 12.1878 43.6293 11.1541C40.8465 10.7884 36.4417 10.8043 32.5617 10.8043C28.5385 10.8043 24.7221 10.9951 21.1283 11.1541C18.8702 11.2655 16.31 12.4422 14.5608 14.1755C11.8098 16.9265 11.5235 20.1069 11.5235 20.7429C11.2691 24.6866 11.1737 28.4553 11.1737 32.0014C11.1737 35.961 11.3645 39.7138 11.5235 43.2599C11.6349 45.677 12.7321 48.0464 14.4018 49.8274C16.7075 52.2922 20.4763 52.8487 21.1124 52.8487C24.9288 53.0873 28.9838 53.2304 33.2614 53.1986C36.887 53.1827 40.4172 53.5802 43.6293 52.8487C52.8206 50.7497 53.2341 43.896 53.2341 43.244C53.5839 39.6343 53.8065 35.6271 53.7747 31.3018ZM50.3876 41.7175C50.3876 42.274 49.9265 49.08 42.1187 49.9864C39.304 50.3204 36.3145 50.2727 33.1818 50.2886C29.4926 50.3045 25.9942 50.1931 22.7025 49.9864C22.146 49.9864 19.22 49.9387 16.8507 47.5693C15.3559 46.0746 14.4336 44.0073 14.4336 41.7175C14.2428 38.6643 14.1314 35.4203 14.1314 32.0173C14.1314 28.9642 14.2269 25.7202 14.4336 22.3172C14.4336 21.7607 14.4813 18.8347 16.8507 16.4654C18.3454 14.9706 20.4127 14.0483 22.7025 14.0483C25.8034 13.8575 29.0951 13.7302 32.5617 13.7461C35.917 13.7461 39.0973 13.8575 42.1187 14.0483C49.9265 14.8116 50.2286 20.5044 50.3876 22.3172C50.658 25.116 50.8329 28.1532 50.8488 31.4131C50.8647 35.1341 50.6898 38.5848 50.3876 41.7175Z" fill="white" />
</svg>