<svg viewBox="0 0 64 65" fill="none" xmlns="http://www.w3.org/2000/svg">
	<circle cx="32.0373" cy="32.0647" r="31.9627" fill="currentColor" />
	<path d="M22.261 48.2948H14.3355V22.7696H22.261V48.2948ZM18.2983 19.3013C15.773 19.3013 13.7139 17.2359 13.7139 14.7029C13.7139 12.1699 15.773 10.1045 18.2983 10.1045C20.8235 10.1045 22.8826 12.1699 22.8826 14.7029C22.8826 17.2359 20.8235 19.3013 18.2983 19.3013ZM51.8653 48.2948H43.9786V35.9024C43.9786 32.9407 43.9397 29.1217 39.8604 29.1217C35.7422 29.1217 35.1206 32.3562 35.1206 35.6686V48.2948H27.2339V22.7696H34.8098V26.2379H34.9264C35.9753 24.2505 38.5783 22.1071 42.4246 22.1071C50.4278 22.1071 51.9041 27.407 51.9041 34.2657L51.8653 48.2948Z" fill="white" />
</svg>
