<svg viewBox="0 0 100 100" fill="none" xmlns="http://www.w3.org/2000/svg">
<circle cx="50" cy="50" r="50" fill="currentColor"/>
<path d="M78.303 42.7604C78.303 30.3651 70.1784 26.7306 70.1784 26.7306C62.2056 23.0707 41.0315 23.1089 33.1352 26.7306C33.1352 26.7306 25.0093 30.3651 25.0093 42.7604C25.0093 57.515 24.1677 75.8402 38.4797 79.6277C43.6457 80.9922 48.0848 81.2855 51.6568 81.0815C58.1363 80.7244 61.772 78.7733 61.772 78.7733L61.5552 74.0676C61.5552 74.0676 56.9248 75.5214 51.7205 75.3556C46.5673 75.1771 41.136 74.7945 40.2905 68.4693C40.2122 67.8817 40.1738 67.2895 40.1758 66.6967C51.0957 69.362 60.4075 67.8572 62.9707 67.5511C70.1274 66.6967 76.3608 62.2844 77.1553 58.2546C78.405 51.9039 78.303 42.7604 78.303 42.7604ZM68.7234 58.7265H62.7769V44.1632C62.7769 37.8252 54.6153 37.5829 54.6153 45.0431V53.0134H48.7071V45.0418C48.7071 37.5817 40.5456 37.824 40.5456 44.1619V58.7252H34.5864C34.5864 43.1545 33.9233 39.8644 36.9341 36.4084C40.237 32.723 47.1131 32.4807 50.175 37.1863L51.6542 39.6731L53.1335 37.1863C56.2081 32.4552 63.0957 32.7485 66.3744 36.4084C69.398 39.8899 68.7208 43.1672 68.7208 58.7252L68.7234 58.7265Z" fill="white"/>
</svg>
