<?xml version="1.0" encoding="UTF-8" standalone="no"?>
<!DOCTYPE svg PUBLIC "-//W3C//DTD SVG 1.1//EN" "http://www.w3.org/Graphics/SVG/1.1/DTD/svg11.dtd">
<svg width="100%" height="100%" viewBox="0 0 208 208" version="1.1" xmlns="http://www.w3.org/2000/svg" xmlns:xlink="http://www.w3.org/1999/xlink" xml:space="preserve" xmlns:serif="http://www.serif.com/" style="fill-rule:evenodd;clip-rule:evenodd;stroke-linejoin:round;stroke-miterlimit:2;">
    <g transform="matrix(1,0,0,1,-38.1389,-37.8981)">
        <g transform="matrix(0,-1,-1,0,141.74,37.8986)">
            <path d="M-103.601,-103.601C-160.82,-103.601 -207.203,-57.217 -207.203,0.001C-207.203,57.218 -160.82,103.601 -103.601,103.601C-46.383,103.601 0.001,57.218 0.001,0.001C0.001,-57.217 -46.383,-103.601 -103.601,-103.601" style="fill:rgb(130,70,175);fill-rule:nonzero;"/>
        </g>
        <g transform="matrix(1,0,0,1,72.212,156.248)">
            <path d="M0,-30.744C4.595,-30.744 6.956,-27.996 6.956,-23.186L6.956,-22.242L2.49,-22.242L2.49,-23.487C2.49,-25.635 1.632,-26.45 0.129,-26.45C-1.374,-26.45 -2.232,-25.635 -2.232,-23.487C-2.232,-21.298 -1.288,-19.666 1.804,-16.961C5.754,-13.482 6.999,-10.992 6.999,-7.557C6.999,-2.748 4.595,0 -0.043,0C-4.68,0 -7.085,-2.748 -7.085,-7.557L-7.085,-9.403L-2.619,-9.403L-2.619,-7.257C-2.619,-5.11 -1.675,-4.337 -0.172,-4.337C1.331,-4.337 2.275,-5.11 2.275,-7.257C2.275,-9.446 1.331,-11.078 -1.761,-13.783C-5.711,-17.262 -6.956,-19.752 -6.956,-23.186C-6.956,-27.996 -4.595,-30.744 0,-30.744" style="fill:white;fill-rule:nonzero;"/>
        </g>
        <g transform="matrix(1,0,0,1,86.6368,125.847)">
            <path d="M0,30.057L-4.723,30.057L-4.723,0L0,0L0,12.882L5.367,12.882L5.367,0L10.177,0L10.177,30.057L5.367,30.057L5.367,17.175L0,17.175L0,30.057Z" style="fill:white;fill-rule:nonzero;"/>
        </g>
        <g transform="matrix(1,0,0,1,104.969,143.238)">
            <path d="M0,-4.723L6.484,-4.723L6.484,-0.429L0,-0.429L0,8.373L8.158,8.373L8.158,12.667L-4.723,12.667L-4.723,-17.39L8.158,-17.39L8.158,-13.096L0,-13.096L0,-4.723Z" style="fill:white;fill-rule:nonzero;"/>
        </g>
        <g transform="matrix(1,0,0,1,121.499,137.054)">
            <path d="M0,7.643L0.215,11.937C0.344,14.298 0.987,14.986 2.49,14.986L3.177,14.986L3.177,18.85L0.772,18.85C-1.89,18.85 -3.778,17.347 -3.993,14.083L-4.337,8.33C-4.466,6.355 -4.896,5.754 -6.698,5.754L-6.698,1.889C-4.896,1.889 -4.466,1.289 -4.337,-0.687L-3.993,-6.441C-3.778,-9.704 -1.89,-11.207 0.772,-11.207L3.177,-11.207L3.177,-7.342L2.49,-7.342C0.987,-7.342 0.344,-6.655 0.215,-4.294L0,0C-0.086,1.589 -0.602,3.263 -2.791,3.822C-0.602,4.38 -0.086,6.054 0,7.643" style="fill:rgb(249,164,38);fill-rule:nonzero;"/>
        </g>
        <g transform="matrix(1,0,0,1,140.776,137.055)">
            <path d="M0,7.642L0,11.635C0,16.445 -2.404,19.193 -7.042,19.193C-10.6,19.193 -12.843,17.576 -13.695,14.652C-13.954,13.764 -14.084,12.755 -14.084,11.635L-14.084,-3.994C-14.084,-8.803 -11.68,-11.551 -7.042,-11.551C-2.404,-11.551 0,-8.803 0,-3.994L0,-1.074L-4.466,-1.074L-4.466,-4.295C-4.466,-6.442 -5.41,-7.257 -6.913,-7.257C-8.416,-7.257 -9.36,-6.442 -9.36,-4.295L-9.36,11.936C-9.36,14.082 -8.416,14.856 -6.913,14.856C-5.41,14.856 -4.466,14.082 -4.466,11.936L-4.466,7.642L0,7.642Z" style="fill:rgb(249,164,38);fill-rule:nonzero;"/>
        </g>
        <g transform="matrix(1,0,0,1,147.988,132.761)">
            <path d="M0,16.23C0,18.376 0.944,19.193 2.447,19.193C3.95,19.193 4.895,18.376 4.895,16.23L4.895,0C4.895,-2.148 3.95,-2.963 2.447,-2.963C0.944,-2.963 0,-2.148 0,0L0,16.23ZM-4.724,0.3C-4.724,-4.509 -2.19,-7.257 2.447,-7.257C7.084,-7.257 9.618,-4.509 9.618,0.3L9.618,15.929C9.618,20.739 7.084,23.487 2.447,23.487C-2.19,23.487 -4.724,20.739 -4.724,15.929L-4.724,0.3Z" style="fill:rgb(249,164,38);fill-rule:nonzero;"/>
        </g>
        <g transform="matrix(1,0,0,1,165.375,151.611)">
            <path d="M0,-21.469L0,0L2.662,0C4.165,0 5.067,-0.773 5.067,-2.92L5.067,-18.549C5.067,-20.697 4.165,-21.469 2.662,-21.469L0,-21.469ZM-4.723,-25.763L2.748,-25.763C7.472,-25.763 9.79,-23.144 9.79,-18.335L9.79,-3.135C9.79,1.675 7.472,4.294 2.748,4.294L-4.723,4.294L-4.723,-25.763Z" style="fill:rgb(249,164,38);fill-rule:nonzero;"/>
        </g>
        <g transform="matrix(1,0,0,1,182.892,143.238)">
            <path d="M0,-4.723L6.484,-4.723L6.484,-0.429L0,-0.429L0,8.373L8.158,8.373L8.158,12.667L-4.723,12.667L-4.723,-17.39L8.158,-17.39L8.158,-13.096L0,-13.096L0,-4.723Z" style="fill:rgb(249,164,38);fill-rule:nonzero;"/>
        </g>
        <g transform="matrix(1,0,0,1,200.323,156.248)">
            <path d="M0,-30.744C4.595,-30.744 6.956,-27.996 6.956,-23.186L6.956,-22.242L2.49,-22.242L2.49,-23.487C2.49,-25.635 1.632,-26.45 0.129,-26.45C-1.374,-26.45 -2.232,-25.635 -2.232,-23.487C-2.232,-21.298 -1.288,-19.666 1.804,-16.961C5.754,-13.482 6.999,-10.992 6.999,-7.557C6.999,-2.748 4.595,0 -0.043,0C-4.68,0 -7.085,-2.748 -7.085,-7.557L-7.085,-9.403L-2.619,-9.403L-2.619,-7.257C-2.619,-5.11 -1.675,-4.337 -0.172,-4.337C1.331,-4.337 2.275,-5.11 2.275,-7.257C2.275,-9.446 1.331,-11.078 -1.761,-13.783C-5.711,-17.262 -6.956,-19.752 -6.956,-23.186C-6.956,-27.996 -4.595,-30.744 0,-30.744" style="fill:rgb(249,164,38);fill-rule:nonzero;"/>
        </g>
        <g transform="matrix(1,0,0,1,212.172,144.698)">
            <path d="M0,-7.643L-0.215,-11.937C-0.344,-14.298 -0.987,-14.986 -2.49,-14.986L-3.178,-14.986L-3.178,-18.85L-0.772,-18.85C1.89,-18.85 3.778,-17.347 3.993,-14.084L4.337,-8.33C4.466,-6.355 4.896,-5.754 6.698,-5.754L6.698,-1.889C4.896,-1.889 4.466,-1.289 4.337,0.687L3.993,6.44C3.778,9.704 1.89,11.207 -0.772,11.207L-3.178,11.207L-3.178,7.342L-2.49,7.342C-0.987,7.342 -0.344,6.655 -0.215,4.294L0,-0C0.086,-1.589 0.602,-3.263 2.791,-3.822C0.602,-4.38 0.086,-6.054 0,-7.643" style="fill:rgb(249,164,38);fill-rule:nonzero;"/>
        </g>
    </g>
</svg>
