<svg width="100%" height="100%" viewBox="0 0 3001 2043" version="1.1" xmlns="http://www.w3.org/2000/svg" xmlns:xlink="http://www.w3.org/1999/xlink" xml:space="preserve" xmlns:serif="http://www.serif.com/" style="fill-rule:evenodd;clip-rule:evenodd;stroke-linejoin:round;stroke-miterlimit:2;">
    <g transform="matrix(1,0,0,1,-5,-5)">
        <g transform="matrix(1,0,0,1,5,5)">
            <g transform="matrix(1,0,0,1,-5,-5)">
                <path d="M1089.5,642.5L1090,961L2045,961L2045,218L1621,218L1621,111L2151,111L2150.5,1067.5L983.5,1067.5L983.5,642.5L1089.5,642.5Z" style="fill:rgb(178,30,111);" />
            </g>
        </g>
        <g transform="matrix(1,0,0,1,5,5)">
            <g transform="matrix(1.10156,0,0,1,129.773,-5)">
                <path d="M866.253,5L963.388,5L963.388,111L1059.62,111L1059.62,5L1155.84,5L1155.84,111L1252.98,111L1252.98,324L1155.84,324L1155.84,218L1059.62,218L1060.07,323.5L1155.84,324L1349.21,324L1349.21,536L1252.98,536L1252.52,430.5L1156.3,430.5L1155.84,536L1059.62,536L1059.62,430L963.388,430L963.388,536L867.161,536L866.707,430.5L770.025,430L770.479,536L673.798,536L673.798,324L770.479,324L770.479,111L867.161,111L866.253,5ZM867.161,218L963.388,218L963.388,324L867.161,324L867.161,218Z" style="fill:rgb(178,30,111);" />
            </g>
        </g>
        <g transform="matrix(1,0,0,1,5,5)">
            <g transform="matrix(207,0,0,207,301.116,2004.39)">
                <path d="M0.038,-0.094L0.088,-0.158C0.112,-0.13 0.142,-0.107 0.177,-0.089C0.213,-0.071 0.253,-0.062 0.297,-0.062C0.325,-0.062 0.35,-0.066 0.371,-0.073C0.393,-0.08 0.409,-0.089 0.421,-0.101C0.432,-0.113 0.441,-0.125 0.446,-0.138C0.451,-0.151 0.454,-0.164 0.454,-0.178C0.454,-0.197 0.45,-0.213 0.441,-0.227C0.432,-0.24 0.42,-0.252 0.404,-0.26C0.389,-0.269 0.371,-0.276 0.351,-0.282L0.224,-0.32C0.202,-0.326 0.181,-0.334 0.161,-0.343C0.142,-0.353 0.124,-0.364 0.109,-0.376C0.094,-0.389 0.081,-0.405 0.073,-0.425C0.064,-0.445 0.059,-0.467 0.059,-0.493C0.059,-0.547 0.081,-0.592 0.124,-0.626C0.168,-0.661 0.223,-0.678 0.289,-0.678C0.387,-0.678 0.465,-0.647 0.525,-0.585L0.475,-0.524C0.428,-0.577 0.364,-0.604 0.282,-0.604C0.243,-0.604 0.21,-0.594 0.184,-0.574C0.158,-0.554 0.145,-0.528 0.145,-0.497C0.145,-0.481 0.149,-0.467 0.158,-0.454C0.167,-0.442 0.179,-0.432 0.195,-0.425C0.21,-0.417 0.227,-0.41 0.247,-0.404L0.375,-0.367C0.397,-0.36 0.418,-0.352 0.438,-0.342C0.457,-0.332 0.475,-0.32 0.49,-0.306C0.505,-0.293 0.518,-0.276 0.527,-0.255C0.536,-0.234 0.54,-0.211 0.54,-0.184C0.54,-0.159 0.535,-0.135 0.526,-0.112C0.517,-0.09 0.503,-0.069 0.485,-0.05C0.466,-0.031 0.441,-0.016 0.408,-0.005C0.375,0.007 0.337,0.012 0.294,0.012C0.239,0.012 0.19,0.003 0.147,-0.016C0.104,-0.035 0.067,-0.061 0.038,-0.094Z" style="fill-rule:nonzero;" />
            </g>
        </g>
        <g transform="matrix(1,0,0,1,5,5)">
            <g transform="matrix(207,0,0,207,422.405,2004.39)">
                <path d="M0.008,-0.418L0.008,-0.483L0.09,-0.483L0.09,-0.616L0.165,-0.616L0.165,-0.483L0.264,-0.483L0.264,-0.418L0.165,-0.418L0.165,-0.117C0.165,-0.098 0.169,-0.083 0.177,-0.072C0.185,-0.06 0.197,-0.055 0.212,-0.055C0.235,-0.055 0.252,-0.062 0.264,-0.076L0.286,-0.019C0.264,0.002 0.234,0.012 0.197,0.012C0.162,0.012 0.135,0.002 0.117,-0.017C0.099,-0.037 0.09,-0.065 0.09,-0.101L0.09,-0.418L0.008,-0.418Z" style="fill-rule:nonzero;" />
            </g>
        </g>
        <g transform="matrix(1,0,0,1,5,5)">
            <g transform="matrix(207,0,0,207,483.252,2004.39)">
                <path d="M0.049,-0.148C0.049,-0.174 0.054,-0.198 0.063,-0.219C0.073,-0.24 0.086,-0.256 0.102,-0.269C0.118,-0.281 0.136,-0.291 0.155,-0.297C0.174,-0.304 0.195,-0.307 0.216,-0.307C0.284,-0.307 0.337,-0.285 0.376,-0.242L0.376,-0.329C0.376,-0.36 0.365,-0.385 0.342,-0.403C0.319,-0.421 0.29,-0.43 0.254,-0.43C0.196,-0.43 0.147,-0.408 0.106,-0.363L0.071,-0.415C0.122,-0.468 0.186,-0.495 0.264,-0.495C0.291,-0.495 0.315,-0.492 0.337,-0.486C0.359,-0.48 0.378,-0.47 0.396,-0.458C0.413,-0.445 0.426,-0.428 0.436,-0.407C0.446,-0.385 0.451,-0.36 0.451,-0.332L0.451,-0L0.376,-0L0.376,-0.055C0.336,-0.01 0.282,0.012 0.216,0.012C0.195,0.012 0.175,0.009 0.156,0.002C0.136,-0.005 0.118,-0.015 0.102,-0.028C0.086,-0.041 0.073,-0.058 0.063,-0.079C0.054,-0.1 0.049,-0.123 0.049,-0.148ZM0.124,-0.148C0.124,-0.117 0.135,-0.092 0.157,-0.072C0.179,-0.052 0.208,-0.042 0.244,-0.042C0.271,-0.042 0.296,-0.047 0.319,-0.057C0.343,-0.068 0.362,-0.083 0.376,-0.102L0.376,-0.194C0.362,-0.213 0.343,-0.227 0.319,-0.238C0.296,-0.248 0.271,-0.253 0.244,-0.253C0.209,-0.253 0.18,-0.243 0.157,-0.223C0.135,-0.204 0.124,-0.179 0.124,-0.148Z" style="fill-rule:nonzero;" />
            </g>
        </g>
        <g transform="matrix(1,0,0,1,5,5)">
            <g transform="matrix(207,0,0,207,592.513,2004.39)">
                <path d="M0.075,-0L0.075,-0.483L0.15,-0.483L0.15,-0.413C0.169,-0.436 0.194,-0.455 0.225,-0.471C0.256,-0.487 0.289,-0.495 0.323,-0.495C0.425,-0.495 0.477,-0.443 0.477,-0.339L0.477,-0L0.402,-0L0.402,-0.316C0.402,-0.357 0.392,-0.385 0.374,-0.403C0.355,-0.42 0.328,-0.428 0.293,-0.428C0.265,-0.428 0.238,-0.421 0.212,-0.406C0.186,-0.392 0.166,-0.374 0.15,-0.353L0.15,-0L0.075,-0Z" style="fill-rule:nonzero;" />
            </g>
        </g>
        <g transform="matrix(1,0,0,1,5,5)">
            <g transform="matrix(207,0,0,207,706.727,2004.39)">
                <path d="M0.047,-0.241C0.047,-0.318 0.067,-0.379 0.107,-0.425C0.147,-0.472 0.199,-0.495 0.263,-0.495C0.295,-0.495 0.325,-0.488 0.353,-0.473C0.381,-0.458 0.405,-0.437 0.425,-0.41L0.425,-0.667L0.5,-0.667L0.5,-0L0.425,-0L0.425,-0.071C0.406,-0.046 0.383,-0.026 0.355,-0.011C0.326,0.005 0.296,0.012 0.263,0.012C0.199,0.012 0.147,-0.011 0.107,-0.056C0.067,-0.102 0.047,-0.164 0.047,-0.241ZM0.168,-0.376C0.14,-0.341 0.126,-0.296 0.126,-0.241C0.126,-0.186 0.14,-0.141 0.168,-0.107C0.195,-0.072 0.233,-0.055 0.281,-0.055C0.31,-0.055 0.338,-0.062 0.365,-0.077C0.392,-0.092 0.412,-0.11 0.425,-0.131L0.425,-0.35C0.412,-0.372 0.392,-0.39 0.365,-0.405C0.338,-0.421 0.31,-0.428 0.281,-0.428C0.234,-0.428 0.196,-0.411 0.168,-0.376Z" style="fill-rule:nonzero;" />
            </g>
        </g>
        <g transform="matrix(1,0,0,1,5,5)">
            <g transform="matrix(207,0,0,207,879.261,2004.39)">
                <path d="M0.075,-0.142L0.075,-0.483L0.15,-0.483L0.15,-0.165C0.15,-0.124 0.159,-0.096 0.178,-0.079C0.196,-0.063 0.223,-0.055 0.259,-0.055C0.287,-0.055 0.314,-0.062 0.34,-0.076C0.366,-0.09 0.386,-0.107 0.401,-0.128L0.401,-0.483L0.476,-0.483L0.476,-0L0.401,-0L0.401,-0.067C0.381,-0.045 0.355,-0.026 0.325,-0.011C0.295,0.005 0.263,0.012 0.229,0.012C0.126,0.012 0.075,-0.039 0.075,-0.142Z" style="fill-rule:nonzero;" />
            </g>
        </g>
        <g transform="matrix(1,0,0,1,5,5)">
            <g transform="matrix(207,0,0,207,993.272,2004.39)">
                <path d="M0.075,0.184L0.075,-0.483L0.15,-0.483L0.15,-0.411C0.168,-0.437 0.192,-0.457 0.22,-0.472C0.249,-0.487 0.28,-0.495 0.313,-0.495C0.377,-0.495 0.429,-0.472 0.469,-0.427C0.509,-0.381 0.528,-0.32 0.528,-0.242C0.528,-0.165 0.509,-0.103 0.469,-0.057C0.429,-0.011 0.377,0.012 0.313,0.012C0.28,0.012 0.25,0.005 0.222,-0.01C0.195,-0.025 0.17,-0.046 0.15,-0.073L0.15,0.184L0.075,0.184ZM0.15,-0.132C0.163,-0.111 0.183,-0.092 0.21,-0.077C0.237,-0.062 0.265,-0.055 0.294,-0.055C0.341,-0.055 0.379,-0.072 0.407,-0.107C0.435,-0.142 0.449,-0.187 0.449,-0.242C0.449,-0.297 0.435,-0.341 0.407,-0.376C0.379,-0.411 0.341,-0.428 0.294,-0.428C0.265,-0.428 0.237,-0.421 0.21,-0.406C0.183,-0.391 0.163,-0.372 0.15,-0.351L0.15,-0.132Z" style="fill-rule:nonzero;" />
            </g>
        </g>
        <g transform="matrix(1,0,0,1,5,5)">
            <g transform="matrix(207,0,0,207,1111.63,2004.39)">
                <path d="M0.057,0.096C0.074,0.085 0.088,0.071 0.101,0.054C0.113,0.036 0.12,0.019 0.122,0.003C0.119,0.004 0.115,0.005 0.108,0.005C0.095,0.005 0.083,0 0.074,-0.009C0.065,-0.019 0.06,-0.03 0.06,-0.044C0.06,-0.058 0.065,-0.07 0.075,-0.081C0.086,-0.091 0.098,-0.096 0.113,-0.096C0.131,-0.096 0.146,-0.09 0.158,-0.076C0.17,-0.063 0.176,-0.045 0.176,-0.023C0.176,0.006 0.168,0.034 0.153,0.061C0.138,0.088 0.119,0.11 0.095,0.127L0.057,0.096Z" style="fill-rule:nonzero;" />
            </g>
        </g>
        <g transform="matrix(1,0,0,1,5,5)">
            <g transform="matrix(207,0,0,207,1212.81,2004.39)">
                <path d="M0.034,-0.065L0.072,-0.119C0.089,-0.099 0.112,-0.083 0.14,-0.07C0.169,-0.056 0.199,-0.05 0.231,-0.05C0.267,-0.05 0.295,-0.057 0.316,-0.073C0.336,-0.088 0.346,-0.108 0.346,-0.132C0.346,-0.148 0.341,-0.161 0.33,-0.172C0.319,-0.183 0.304,-0.19 0.286,-0.195L0.165,-0.23C0.144,-0.236 0.124,-0.244 0.106,-0.253C0.089,-0.263 0.075,-0.276 0.063,-0.293C0.052,-0.311 0.047,-0.331 0.047,-0.355C0.047,-0.395 0.063,-0.429 0.095,-0.455C0.127,-0.482 0.17,-0.495 0.226,-0.495C0.299,-0.495 0.359,-0.471 0.405,-0.424L0.37,-0.372C0.355,-0.391 0.335,-0.405 0.31,-0.416C0.284,-0.428 0.256,-0.433 0.226,-0.433C0.194,-0.433 0.168,-0.426 0.148,-0.411C0.128,-0.396 0.119,-0.377 0.119,-0.355C0.119,-0.34 0.124,-0.328 0.135,-0.318C0.146,-0.309 0.16,-0.301 0.177,-0.296L0.299,-0.262C0.321,-0.256 0.34,-0.249 0.358,-0.239C0.375,-0.229 0.39,-0.216 0.401,-0.198C0.412,-0.18 0.418,-0.159 0.418,-0.134C0.418,-0.092 0.401,-0.057 0.368,-0.029C0.335,-0.002 0.289,0.012 0.229,0.012C0.148,0.012 0.083,-0.013 0.034,-0.065Z" style="fill-rule:nonzero;" />
            </g>
        </g>
        <g transform="matrix(1,0,0,1,5,5)">
            <g transform="matrix(207,0,0,207,1309.03,2004.39)">
                <path d="M0.008,-0.418L0.008,-0.483L0.09,-0.483L0.09,-0.616L0.165,-0.616L0.165,-0.483L0.264,-0.483L0.264,-0.418L0.165,-0.418L0.165,-0.117C0.165,-0.098 0.169,-0.083 0.177,-0.072C0.185,-0.06 0.197,-0.055 0.212,-0.055C0.235,-0.055 0.252,-0.062 0.264,-0.076L0.286,-0.019C0.264,0.002 0.234,0.012 0.197,0.012C0.162,0.012 0.135,0.002 0.117,-0.017C0.099,-0.037 0.09,-0.065 0.09,-0.101L0.09,-0.418L0.008,-0.418Z" style="fill-rule:nonzero;" />
            </g>
        </g>
        <g transform="matrix(1,0,0,1,5,5)">
            <g transform="matrix(207,0,0,207,1369.88,2004.39)">
                <path d="M0.047,-0.242C0.047,-0.288 0.057,-0.331 0.077,-0.369C0.098,-0.408 0.126,-0.439 0.162,-0.461C0.199,-0.484 0.239,-0.495 0.284,-0.495C0.332,-0.495 0.374,-0.484 0.409,-0.46C0.445,-0.437 0.472,-0.406 0.49,-0.367C0.508,-0.329 0.517,-0.285 0.517,-0.236L0.517,-0.217L0.126,-0.217C0.129,-0.169 0.146,-0.13 0.177,-0.098C0.208,-0.066 0.249,-0.05 0.299,-0.05C0.327,-0.05 0.355,-0.055 0.381,-0.066C0.407,-0.077 0.43,-0.092 0.45,-0.112L0.486,-0.063C0.434,-0.013 0.37,0.012 0.293,0.012C0.221,0.012 0.162,-0.011 0.116,-0.059C0.07,-0.106 0.047,-0.167 0.047,-0.242ZM0.125,-0.273L0.442,-0.273C0.442,-0.292 0.439,-0.31 0.432,-0.328C0.426,-0.346 0.417,-0.363 0.404,-0.379C0.392,-0.395 0.375,-0.408 0.354,-0.418C0.333,-0.428 0.31,-0.433 0.283,-0.433C0.259,-0.433 0.236,-0.428 0.216,-0.418C0.196,-0.409 0.179,-0.396 0.167,-0.38C0.154,-0.364 0.144,-0.347 0.137,-0.329C0.13,-0.31 0.126,-0.292 0.125,-0.273Z" style="fill-rule:nonzero;" />
            </g>
        </g>
        <g transform="matrix(1,0,0,1,5,5)">
            <g transform="matrix(207,0,0,207,1486.41,2004.39)">
                <path d="M0.075,0.184L0.075,-0.483L0.15,-0.483L0.15,-0.411C0.168,-0.437 0.192,-0.457 0.22,-0.472C0.249,-0.487 0.28,-0.495 0.313,-0.495C0.377,-0.495 0.429,-0.472 0.469,-0.427C0.509,-0.381 0.528,-0.32 0.528,-0.242C0.528,-0.165 0.509,-0.103 0.469,-0.057C0.429,-0.011 0.377,0.012 0.313,0.012C0.28,0.012 0.25,0.005 0.222,-0.01C0.195,-0.025 0.17,-0.046 0.15,-0.073L0.15,0.184L0.075,0.184ZM0.15,-0.132C0.163,-0.111 0.183,-0.092 0.21,-0.077C0.237,-0.062 0.265,-0.055 0.294,-0.055C0.341,-0.055 0.379,-0.072 0.407,-0.107C0.435,-0.142 0.449,-0.187 0.449,-0.242C0.449,-0.297 0.435,-0.341 0.407,-0.376C0.379,-0.411 0.341,-0.428 0.294,-0.428C0.265,-0.428 0.237,-0.421 0.21,-0.406C0.183,-0.391 0.163,-0.372 0.15,-0.351L0.15,-0.132Z" style="fill-rule:nonzero;" />
            </g>
        </g>
        <g transform="matrix(1,0,0,1,5,5)">
            <g transform="matrix(207,0,0,207,1658.34,2004.39)">
                <path d="M0.075,-0.142L0.075,-0.483L0.15,-0.483L0.15,-0.165C0.15,-0.124 0.159,-0.096 0.178,-0.079C0.196,-0.063 0.223,-0.055 0.259,-0.055C0.287,-0.055 0.314,-0.062 0.34,-0.076C0.366,-0.09 0.386,-0.107 0.401,-0.128L0.401,-0.483L0.476,-0.483L0.476,-0L0.401,-0L0.401,-0.067C0.381,-0.045 0.355,-0.026 0.325,-0.011C0.295,0.005 0.263,0.012 0.229,0.012C0.126,0.012 0.075,-0.039 0.075,-0.142Z" style="fill-rule:nonzero;" />
            </g>
        </g>
        <g transform="matrix(1,0,0,1,5,5)">
            <g transform="matrix(207,0,0,207,1772.35,2004.39)">
                <path d="M0.075,0.184L0.075,-0.483L0.15,-0.483L0.15,-0.411C0.168,-0.437 0.192,-0.457 0.22,-0.472C0.249,-0.487 0.28,-0.495 0.313,-0.495C0.377,-0.495 0.429,-0.472 0.469,-0.427C0.509,-0.381 0.528,-0.32 0.528,-0.242C0.528,-0.165 0.509,-0.103 0.469,-0.057C0.429,-0.011 0.377,0.012 0.313,0.012C0.28,0.012 0.25,0.005 0.222,-0.01C0.195,-0.025 0.17,-0.046 0.15,-0.073L0.15,0.184L0.075,0.184ZM0.15,-0.132C0.163,-0.111 0.183,-0.092 0.21,-0.077C0.237,-0.062 0.265,-0.055 0.294,-0.055C0.341,-0.055 0.379,-0.072 0.407,-0.107C0.435,-0.142 0.449,-0.187 0.449,-0.242C0.449,-0.297 0.435,-0.341 0.407,-0.376C0.379,-0.411 0.341,-0.428 0.294,-0.428C0.265,-0.428 0.237,-0.421 0.21,-0.406C0.183,-0.391 0.163,-0.372 0.15,-0.351L0.15,-0.132Z" style="fill-rule:nonzero;" />
            </g>
        </g>
        <g transform="matrix(1,0,0,1,5,5)">
            <g transform="matrix(207,0,0,207,1890.71,2004.39)">
                <path d="M0.057,0.096C0.074,0.085 0.088,0.071 0.101,0.054C0.113,0.036 0.12,0.019 0.122,0.003C0.119,0.004 0.115,0.005 0.108,0.005C0.095,0.005 0.083,0 0.074,-0.009C0.065,-0.019 0.06,-0.03 0.06,-0.044C0.06,-0.058 0.065,-0.07 0.075,-0.081C0.086,-0.091 0.098,-0.096 0.113,-0.096C0.131,-0.096 0.146,-0.09 0.158,-0.076C0.17,-0.063 0.176,-0.045 0.176,-0.023C0.176,0.006 0.168,0.034 0.153,0.061C0.138,0.088 0.119,0.11 0.095,0.127L0.057,0.096Z" style="fill-rule:nonzero;" />
            </g>
        </g>
        <g transform="matrix(1,0,0,1,5,5)">
            <g transform="matrix(207,0,0,207,1991.89,2004.39)">
                <rect x="0.075" y="-0.667" width="0.075" height="0.667" style="fill-rule:nonzero;" />
            </g>
        </g>
        <g transform="matrix(1,0,0,1,5,5)">
            <g transform="matrix(207,0,0,207,2038.38,2004.39)">
                <path d="M0.047,-0.242C0.047,-0.288 0.057,-0.331 0.077,-0.369C0.098,-0.408 0.126,-0.439 0.162,-0.461C0.199,-0.484 0.239,-0.495 0.284,-0.495C0.332,-0.495 0.374,-0.484 0.409,-0.46C0.445,-0.437 0.472,-0.406 0.49,-0.367C0.508,-0.329 0.517,-0.285 0.517,-0.236L0.517,-0.217L0.126,-0.217C0.129,-0.169 0.146,-0.13 0.177,-0.098C0.208,-0.066 0.249,-0.05 0.299,-0.05C0.327,-0.05 0.355,-0.055 0.381,-0.066C0.407,-0.077 0.43,-0.092 0.45,-0.112L0.486,-0.063C0.434,-0.013 0.37,0.012 0.293,0.012C0.221,0.012 0.162,-0.011 0.116,-0.059C0.07,-0.106 0.047,-0.167 0.047,-0.242ZM0.125,-0.273L0.442,-0.273C0.442,-0.292 0.439,-0.31 0.432,-0.328C0.426,-0.346 0.417,-0.363 0.404,-0.379C0.392,-0.395 0.375,-0.408 0.354,-0.418C0.333,-0.428 0.31,-0.433 0.283,-0.433C0.259,-0.433 0.236,-0.428 0.216,-0.418C0.196,-0.409 0.179,-0.396 0.167,-0.38C0.154,-0.364 0.144,-0.347 0.137,-0.329C0.13,-0.31 0.126,-0.292 0.125,-0.273Z" style="fill-rule:nonzero;" />
            </g>
        </g>
        <g transform="matrix(1,0,0,1,5,5)">
            <g transform="matrix(207,0,0,207,2154.92,2004.39)">
                <path d="M0.003,-0.483L0.085,-0.483L0.245,-0.087L0.406,-0.483L0.487,-0.483L0.286,-0L0.204,-0L0.003,-0.483Z" style="fill-rule:nonzero;" />
            </g>
        </g>
        <g transform="matrix(1,0,0,1,5,5)">
            <g transform="matrix(207,0,0,207,2256.3,2004.39)">
                <path d="M0.047,-0.242C0.047,-0.288 0.057,-0.331 0.077,-0.369C0.098,-0.408 0.126,-0.439 0.162,-0.461C0.199,-0.484 0.239,-0.495 0.284,-0.495C0.332,-0.495 0.374,-0.484 0.409,-0.46C0.445,-0.437 0.472,-0.406 0.49,-0.367C0.508,-0.329 0.517,-0.285 0.517,-0.236L0.517,-0.217L0.126,-0.217C0.129,-0.169 0.146,-0.13 0.177,-0.098C0.208,-0.066 0.249,-0.05 0.299,-0.05C0.327,-0.05 0.355,-0.055 0.381,-0.066C0.407,-0.077 0.43,-0.092 0.45,-0.112L0.486,-0.063C0.434,-0.013 0.37,0.012 0.293,0.012C0.221,0.012 0.162,-0.011 0.116,-0.059C0.07,-0.106 0.047,-0.167 0.047,-0.242ZM0.125,-0.273L0.442,-0.273C0.442,-0.292 0.439,-0.31 0.432,-0.328C0.426,-0.346 0.417,-0.363 0.404,-0.379C0.392,-0.395 0.375,-0.408 0.354,-0.418C0.333,-0.428 0.31,-0.433 0.283,-0.433C0.259,-0.433 0.236,-0.428 0.216,-0.418C0.196,-0.409 0.179,-0.396 0.167,-0.38C0.154,-0.364 0.144,-0.347 0.137,-0.329C0.13,-0.31 0.126,-0.292 0.125,-0.273Z" style="fill-rule:nonzero;" />
            </g>
        </g>
        <g transform="matrix(1,0,0,1,5,5)">
            <g transform="matrix(207,0,0,207,2372.83,2004.39)">
                <rect x="0.075" y="-0.667" width="0.075" height="0.667" style="fill-rule:nonzero;" />
            </g>
        </g>
        <g transform="matrix(1,0,0,1,5,5)">
            <g transform="matrix(207,0,0,207,2472.9,2004.39)">
                <path d="M0.075,-0.142L0.075,-0.483L0.15,-0.483L0.15,-0.165C0.15,-0.124 0.159,-0.096 0.178,-0.079C0.196,-0.063 0.223,-0.055 0.259,-0.055C0.287,-0.055 0.314,-0.062 0.34,-0.076C0.366,-0.09 0.386,-0.107 0.401,-0.128L0.401,-0.483L0.476,-0.483L0.476,-0L0.401,-0L0.401,-0.067C0.381,-0.045 0.355,-0.026 0.325,-0.011C0.295,0.005 0.263,0.012 0.229,0.012C0.126,0.012 0.075,-0.039 0.075,-0.142Z" style="fill-rule:nonzero;" />
            </g>
        </g>
        <g transform="matrix(1,0,0,1,5,5)">
            <g transform="matrix(207,0,0,207,2586.91,2004.39)">
                <path d="M0.075,0.184L0.075,-0.483L0.15,-0.483L0.15,-0.411C0.168,-0.437 0.192,-0.457 0.22,-0.472C0.249,-0.487 0.28,-0.495 0.313,-0.495C0.377,-0.495 0.429,-0.472 0.469,-0.427C0.509,-0.381 0.528,-0.32 0.528,-0.242C0.528,-0.165 0.509,-0.103 0.469,-0.057C0.429,-0.011 0.377,0.012 0.313,0.012C0.28,0.012 0.25,0.005 0.222,-0.01C0.195,-0.025 0.17,-0.046 0.15,-0.073L0.15,0.184L0.075,0.184ZM0.15,-0.132C0.163,-0.111 0.183,-0.092 0.21,-0.077C0.237,-0.062 0.265,-0.055 0.294,-0.055C0.341,-0.055 0.379,-0.072 0.407,-0.107C0.435,-0.142 0.449,-0.187 0.449,-0.242C0.449,-0.297 0.435,-0.341 0.407,-0.376C0.379,-0.411 0.341,-0.428 0.294,-0.428C0.265,-0.428 0.237,-0.421 0.21,-0.406C0.183,-0.391 0.163,-0.372 0.15,-0.351L0.15,-0.132Z" style="fill-rule:nonzero;" />
            </g>
        </g>
        <g transform="matrix(1,0,0,1,5,5)">
            <g transform="matrix(868.902,0,0,868.902,-18.0732,1791.38)">
                <path d="M0.359,-0.563C0.36,-0.563 0.362,-0.563 0.363,-0.564C0.364,-0.565 0.366,-0.565 0.367,-0.565C0.368,-0.565 0.37,-0.565 0.372,-0.566C0.381,-0.571 0.391,-0.576 0.402,-0.581C0.413,-0.586 0.423,-0.59 0.432,-0.594C0.441,-0.597 0.45,-0.6 0.457,-0.603C0.464,-0.605 0.468,-0.606 0.471,-0.606C0.475,-0.606 0.48,-0.602 0.485,-0.593C0.49,-0.584 0.495,-0.575 0.5,-0.564C0.505,-0.553 0.508,-0.542 0.511,-0.533C0.514,-0.524 0.514,-0.519 0.513,-0.518C0.51,-0.517 0.505,-0.515 0.496,-0.514C0.487,-0.513 0.477,-0.511 0.465,-0.51C0.453,-0.509 0.44,-0.509 0.427,-0.508C0.414,-0.507 0.401,-0.507 0.389,-0.506C0.378,-0.483 0.366,-0.455 0.352,-0.423C0.337,-0.39 0.322,-0.356 0.307,-0.32C0.292,-0.283 0.277,-0.247 0.263,-0.211C0.249,-0.174 0.237,-0.141 0.227,-0.11C0.217,-0.079 0.21,-0.053 0.206,-0.031C0.202,-0.009 0.202,0.005 0.207,0.012C0.203,0.012 0.197,0.01 0.188,0.006C0.179,0.002 0.171,-0.003 0.162,-0.01C0.153,-0.016 0.145,-0.023 0.138,-0.031C0.131,-0.039 0.127,-0.047 0.127,-0.056C0.128,-0.067 0.133,-0.087 0.142,-0.117C0.152,-0.146 0.166,-0.181 0.183,-0.222C0.2,-0.263 0.22,-0.307 0.243,-0.356C0.266,-0.405 0.29,-0.453 0.317,-0.502C0.283,-0.499 0.252,-0.495 0.223,-0.492C0.194,-0.488 0.168,-0.483 0.146,-0.477C0.124,-0.471 0.106,-0.464 0.092,-0.455C0.078,-0.446 0.07,-0.436 0.067,-0.423C0.063,-0.424 0.058,-0.43 0.052,-0.439C0.046,-0.448 0.041,-0.459 0.035,-0.469C0.031,-0.481 0.027,-0.491 0.024,-0.501C0.021,-0.511 0.02,-0.517 0.022,-0.52C0.026,-0.526 0.034,-0.531 0.046,-0.536C0.057,-0.541 0.071,-0.545 0.088,-0.548C0.105,-0.551 0.123,-0.554 0.142,-0.556C0.162,-0.558 0.182,-0.56 0.202,-0.561C0.249,-0.564 0.301,-0.564 0.359,-0.563Z" style="fill-rule:nonzero;" />
            </g>
        </g>
        <g transform="matrix(1,0,0,1,5,5)">
            <g transform="matrix(868.902,0,0,868.902,270.402,1791.38)">
                <path d="M0.272,-0.243C0.277,-0.238 0.278,-0.228 0.275,-0.214C0.271,-0.199 0.265,-0.183 0.256,-0.165C0.247,-0.147 0.235,-0.128 0.223,-0.109C0.21,-0.09 0.196,-0.072 0.183,-0.056C0.169,-0.039 0.156,-0.026 0.143,-0.016C0.13,-0.005 0.12,-0 0.111,-0C0.097,-0 0.084,-0.003 0.07,-0.01C0.058,-0.017 0.046,-0.025 0.036,-0.035C0.026,-0.044 0.018,-0.055 0.013,-0.066C0.007,-0.077 0.004,-0.086 0.004,-0.095C0.004,-0.125 0.009,-0.158 0.018,-0.195C0.027,-0.232 0.039,-0.266 0.053,-0.298C0.067,-0.329 0.083,-0.356 0.1,-0.377C0.117,-0.398 0.133,-0.409 0.148,-0.409C0.151,-0.409 0.157,-0.406 0.167,-0.401C0.176,-0.396 0.186,-0.389 0.197,-0.381C0.208,-0.372 0.217,-0.363 0.226,-0.353C0.235,-0.343 0.239,-0.334 0.24,-0.325C0.241,-0.308 0.237,-0.289 0.228,-0.268C0.219,-0.247 0.207,-0.229 0.193,-0.214C0.178,-0.199 0.162,-0.189 0.145,-0.185C0.128,-0.18 0.112,-0.186 0.098,-0.202C0.093,-0.186 0.088,-0.17 0.084,-0.155C0.08,-0.14 0.077,-0.126 0.075,-0.114C0.073,-0.101 0.072,-0.091 0.073,-0.082C0.074,-0.073 0.076,-0.067 0.08,-0.064C0.085,-0.061 0.092,-0.062 0.102,-0.067C0.112,-0.072 0.124,-0.08 0.137,-0.091C0.15,-0.102 0.163,-0.114 0.178,-0.128C0.192,-0.142 0.205,-0.156 0.218,-0.171C0.231,-0.185 0.242,-0.199 0.252,-0.212C0.261,-0.225 0.268,-0.235 0.272,-0.243ZM0.183,-0.353C0.178,-0.353 0.173,-0.349 0.167,-0.342C0.16,-0.335 0.154,-0.325 0.147,-0.313C0.14,-0.301 0.133,-0.287 0.126,-0.271C0.118,-0.255 0.112,-0.239 0.106,-0.222C0.121,-0.226 0.133,-0.234 0.143,-0.245C0.154,-0.256 0.162,-0.268 0.169,-0.281C0.175,-0.294 0.179,-0.308 0.182,-0.321C0.184,-0.334 0.184,-0.344 0.183,-0.353Z" style="fill-rule:nonzero;" />
            </g>
        </g>
        <g transform="matrix(1,0,0,1,5,5)">
            <g transform="matrix(868.902,0,0,868.902,460.692,1791.38)">
                <path d="M0.272,-0.243C0.277,-0.238 0.278,-0.228 0.275,-0.214C0.271,-0.199 0.265,-0.183 0.256,-0.165C0.247,-0.147 0.235,-0.128 0.223,-0.109C0.21,-0.09 0.196,-0.072 0.183,-0.056C0.169,-0.039 0.156,-0.026 0.143,-0.016C0.13,-0.005 0.12,-0 0.111,-0C0.097,-0 0.084,-0.003 0.07,-0.01C0.058,-0.017 0.046,-0.025 0.036,-0.035C0.026,-0.044 0.018,-0.055 0.013,-0.066C0.007,-0.077 0.004,-0.086 0.004,-0.095C0.004,-0.125 0.009,-0.158 0.018,-0.195C0.027,-0.232 0.039,-0.266 0.053,-0.298C0.067,-0.329 0.083,-0.356 0.1,-0.377C0.117,-0.398 0.133,-0.409 0.148,-0.409C0.151,-0.409 0.157,-0.406 0.167,-0.401C0.176,-0.396 0.186,-0.389 0.197,-0.381C0.208,-0.372 0.217,-0.363 0.226,-0.353C0.235,-0.343 0.239,-0.334 0.24,-0.325C0.242,-0.307 0.239,-0.29 0.231,-0.274C0.223,-0.258 0.213,-0.244 0.202,-0.233C0.19,-0.222 0.178,-0.214 0.167,-0.209C0.155,-0.204 0.146,-0.204 0.141,-0.208C0.148,-0.219 0.154,-0.231 0.16,-0.246C0.166,-0.26 0.171,-0.274 0.175,-0.288C0.179,-0.301 0.182,-0.314 0.184,-0.326C0.185,-0.337 0.185,-0.346 0.183,-0.353C0.177,-0.353 0.169,-0.346 0.16,-0.334C0.151,-0.321 0.141,-0.304 0.132,-0.284C0.123,-0.264 0.114,-0.242 0.105,-0.219C0.096,-0.195 0.088,-0.172 0.083,-0.151C0.078,-0.129 0.074,-0.11 0.073,-0.094C0.072,-0.078 0.074,-0.068 0.08,-0.064C0.085,-0.061 0.092,-0.062 0.102,-0.067C0.112,-0.072 0.124,-0.08 0.137,-0.091C0.15,-0.102 0.163,-0.114 0.178,-0.128C0.192,-0.142 0.205,-0.156 0.218,-0.171C0.231,-0.185 0.242,-0.199 0.252,-0.212C0.261,-0.225 0.268,-0.235 0.272,-0.243Z" style="fill-rule:nonzero;" />
            </g>
        </g>
        <g transform="matrix(1,0,0,1,5,5)">
            <g transform="matrix(868.902,0,0,868.902,650.982,1791.38)">
                <path d="M0.249,-0.385C0.252,-0.385 0.256,-0.384 0.262,-0.381C0.268,-0.378 0.275,-0.375 0.281,-0.371C0.289,-0.366 0.295,-0.361 0.301,-0.356C0.307,-0.351 0.311,-0.345 0.314,-0.339C0.309,-0.33 0.302,-0.316 0.294,-0.298C0.285,-0.279 0.277,-0.259 0.268,-0.236C0.259,-0.213 0.251,-0.189 0.243,-0.164C0.235,-0.138 0.229,-0.113 0.225,-0.088C0.235,-0.099 0.246,-0.113 0.258,-0.129C0.269,-0.144 0.28,-0.16 0.291,-0.177C0.301,-0.193 0.31,-0.208 0.318,-0.223C0.326,-0.238 0.332,-0.25 0.335,-0.259C0.34,-0.258 0.342,-0.252 0.341,-0.239C0.34,-0.227 0.336,-0.212 0.33,-0.195C0.324,-0.177 0.317,-0.158 0.308,-0.137C0.299,-0.116 0.289,-0.097 0.28,-0.08C0.27,-0.063 0.26,-0.048 0.251,-0.037C0.242,-0.025 0.234,-0.019 0.228,-0.019C0.222,-0.019 0.215,-0.021 0.206,-0.025C0.197,-0.03 0.189,-0.035 0.181,-0.041C0.173,-0.047 0.166,-0.053 0.161,-0.06C0.155,-0.067 0.152,-0.072 0.152,-0.077C0.152,-0.088 0.153,-0.1 0.156,-0.115C0.159,-0.129 0.162,-0.144 0.167,-0.161C0.171,-0.177 0.176,-0.194 0.182,-0.211C0.188,-0.228 0.194,-0.244 0.2,-0.261C0.188,-0.243 0.174,-0.222 0.16,-0.197C0.145,-0.172 0.13,-0.146 0.117,-0.121C0.104,-0.095 0.092,-0.071 0.082,-0.049C0.072,-0.027 0.066,-0.011 0.063,-0C0.06,-0 0.056,-0.003 0.049,-0.008C0.042,-0.013 0.036,-0.019 0.029,-0.027C0.022,-0.034 0.017,-0.042 0.012,-0.051C0.007,-0.06 0.004,-0.067 0.005,-0.074C0.008,-0.101 0.015,-0.133 0.024,-0.169C0.033,-0.204 0.043,-0.241 0.054,-0.279C0.065,-0.316 0.078,-0.353 0.091,-0.389C0.103,-0.425 0.116,-0.457 0.127,-0.486C0.138,-0.515 0.148,-0.538 0.157,-0.555C0.166,-0.572 0.172,-0.581 0.175,-0.581C0.18,-0.581 0.187,-0.58 0.194,-0.578C0.201,-0.575 0.209,-0.572 0.216,-0.569C0.223,-0.565 0.229,-0.561 0.234,-0.558C0.24,-0.554 0.244,-0.551 0.245,-0.548C0.239,-0.543 0.231,-0.528 0.22,-0.505C0.209,-0.482 0.198,-0.453 0.185,-0.42C0.172,-0.386 0.158,-0.349 0.145,-0.309C0.131,-0.269 0.118,-0.23 0.106,-0.192C0.119,-0.216 0.133,-0.24 0.148,-0.263C0.163,-0.286 0.177,-0.307 0.191,-0.325C0.204,-0.343 0.216,-0.358 0.227,-0.369C0.238,-0.38 0.245,-0.385 0.249,-0.385Z" style="fill-rule:nonzero;" />
            </g>
        </g>
        <g transform="matrix(1,0,0,1,5,5)">
            <g transform="matrix(868.902,0,0,868.902,1031.56,1791.38)">
                <path d="M0.18,0.011C0.167,0.011 0.152,0.008 0.134,0.002C0.116,-0.004 0.099,-0.014 0.083,-0.028C0.066,-0.042 0.053,-0.061 0.042,-0.084C0.031,-0.107 0.027,-0.135 0.029,-0.169C0.03,-0.198 0.035,-0.227 0.042,-0.258C0.049,-0.289 0.059,-0.319 0.07,-0.348C0.082,-0.377 0.096,-0.405 0.112,-0.431C0.127,-0.457 0.144,-0.48 0.163,-0.5C0.182,-0.519 0.201,-0.535 0.222,-0.547C0.242,-0.558 0.263,-0.564 0.285,-0.564C0.303,-0.564 0.321,-0.559 0.339,-0.549C0.356,-0.538 0.372,-0.524 0.385,-0.506C0.398,-0.488 0.409,-0.467 0.418,-0.443C0.426,-0.419 0.43,-0.393 0.429,-0.365C0.428,-0.342 0.425,-0.317 0.419,-0.29C0.413,-0.262 0.404,-0.234 0.393,-0.206C0.382,-0.179 0.368,-0.152 0.353,-0.126C0.338,-0.099 0.321,-0.076 0.303,-0.056C0.284,-0.036 0.265,-0.02 0.244,-0.008C0.223,0.005 0.202,0.011 0.18,0.011ZM0.135,-0.046C0.158,-0.038 0.181,-0.043 0.205,-0.063C0.229,-0.082 0.251,-0.108 0.272,-0.141C0.293,-0.174 0.311,-0.212 0.326,-0.253C0.341,-0.294 0.351,-0.332 0.357,-0.369C0.362,-0.406 0.362,-0.437 0.355,-0.462C0.348,-0.487 0.334,-0.501 0.312,-0.503C0.289,-0.503 0.266,-0.493 0.244,-0.471C0.221,-0.451 0.201,-0.424 0.182,-0.392C0.163,-0.36 0.148,-0.325 0.135,-0.287C0.122,-0.249 0.112,-0.213 0.107,-0.18C0.102,-0.146 0.101,-0.117 0.105,-0.092C0.109,-0.067 0.119,-0.051 0.135,-0.046Z" style="fill-rule:nonzero;" />
            </g>
        </g>
        <g transform="matrix(1,0,0,1,5,5)">
            <g transform="matrix(868.902,0,0,868.902,1382.6,1791.38)">
                <path d="M0.103,-0.408C0.109,-0.408 0.116,-0.407 0.124,-0.405C0.131,-0.402 0.139,-0.399 0.146,-0.396C0.153,-0.392 0.158,-0.388 0.163,-0.385C0.168,-0.381 0.171,-0.378 0.172,-0.376C0.165,-0.366 0.158,-0.352 0.151,-0.335C0.143,-0.317 0.135,-0.297 0.127,-0.276C0.119,-0.255 0.112,-0.233 0.105,-0.211C0.098,-0.189 0.091,-0.168 0.086,-0.149C0.08,-0.13 0.076,-0.113 0.073,-0.099C0.07,-0.085 0.069,-0.076 0.07,-0.071C0.072,-0.071 0.077,-0.077 0.084,-0.087C0.091,-0.099 0.099,-0.113 0.11,-0.132C0.121,-0.151 0.133,-0.173 0.146,-0.198C0.159,-0.223 0.172,-0.25 0.186,-0.279C0.196,-0.312 0.206,-0.34 0.216,-0.363C0.226,-0.386 0.234,-0.397 0.239,-0.397C0.245,-0.397 0.252,-0.396 0.26,-0.394C0.267,-0.391 0.275,-0.389 0.281,-0.386C0.289,-0.383 0.295,-0.379 0.301,-0.375C0.306,-0.371 0.31,-0.368 0.312,-0.365C0.307,-0.358 0.301,-0.346 0.294,-0.33C0.286,-0.313 0.278,-0.293 0.269,-0.27C0.26,-0.247 0.251,-0.22 0.243,-0.19C0.234,-0.16 0.227,-0.128 0.222,-0.094C0.233,-0.106 0.244,-0.12 0.255,-0.135C0.266,-0.15 0.276,-0.166 0.286,-0.182C0.296,-0.197 0.305,-0.212 0.312,-0.226C0.319,-0.239 0.325,-0.25 0.328,-0.259C0.334,-0.258 0.336,-0.251 0.335,-0.238C0.333,-0.225 0.329,-0.21 0.323,-0.192C0.316,-0.174 0.308,-0.155 0.299,-0.135C0.289,-0.114 0.279,-0.095 0.268,-0.078C0.257,-0.061 0.247,-0.046 0.237,-0.035C0.228,-0.023 0.22,-0.017 0.214,-0.017C0.208,-0.017 0.201,-0.02 0.194,-0.025C0.187,-0.03 0.18,-0.037 0.173,-0.044C0.166,-0.051 0.161,-0.059 0.156,-0.067C0.151,-0.075 0.149,-0.082 0.149,-0.087C0.149,-0.095 0.15,-0.103 0.151,-0.113C0.152,-0.122 0.153,-0.131 0.154,-0.141C0.147,-0.124 0.14,-0.108 0.133,-0.091C0.126,-0.074 0.118,-0.059 0.111,-0.046C0.104,-0.032 0.097,-0.021 0.09,-0.013C0.083,-0.004 0.076,-0 0.07,-0C0.067,-0 0.062,-0.001 0.056,-0.003C0.05,-0.005 0.044,-0.008 0.037,-0.013C0.03,-0.018 0.024,-0.024 0.019,-0.031C0.013,-0.038 0.009,-0.047 0.007,-0.057C0.004,-0.071 0.003,-0.089 0.006,-0.112C0.009,-0.134 0.013,-0.158 0.019,-0.184C0.025,-0.21 0.032,-0.236 0.041,-0.263C0.049,-0.29 0.057,-0.314 0.065,-0.335C0.073,-0.356 0.081,-0.374 0.087,-0.388C0.095,-0.401 0.1,-0.408 0.103,-0.408Z" style="fill-rule:nonzero;" />
            </g>
        </g>
        <g transform="matrix(1,0,0,1,5,5)">
            <g transform="matrix(868.902,0,0,868.902,1623.28,1791.38)">
                <path d="M0.016,-0.433C0.001,-0.434 -0.011,-0.439 -0.019,-0.447C-0.028,-0.455 -0.031,-0.461 -0.028,-0.464C-0.015,-0.465 0.003,-0.466 0.024,-0.468C0.045,-0.469 0.078,-0.471 0.121,-0.472C0.131,-0.498 0.14,-0.519 0.148,-0.535C0.156,-0.55 0.162,-0.558 0.165,-0.558C0.17,-0.558 0.177,-0.557 0.184,-0.555C0.191,-0.552 0.199,-0.549 0.205,-0.546C0.213,-0.542 0.219,-0.538 0.225,-0.535C0.23,-0.531 0.234,-0.528 0.235,-0.525C0.232,-0.522 0.228,-0.516 0.223,-0.507C0.218,-0.499 0.212,-0.488 0.206,-0.475C0.243,-0.476 0.275,-0.476 0.303,-0.475C0.331,-0.475 0.349,-0.473 0.357,-0.47C0.36,-0.469 0.364,-0.466 0.367,-0.461C0.37,-0.456 0.372,-0.451 0.374,-0.446C0.376,-0.441 0.378,-0.436 0.379,-0.431C0.38,-0.426 0.38,-0.422 0.379,-0.42C0.372,-0.422 0.363,-0.424 0.35,-0.426C0.337,-0.427 0.323,-0.428 0.306,-0.429C0.289,-0.43 0.27,-0.43 0.25,-0.431C0.229,-0.432 0.209,-0.432 0.188,-0.432C0.179,-0.408 0.169,-0.381 0.159,-0.352C0.148,-0.323 0.138,-0.293 0.128,-0.263C0.118,-0.232 0.109,-0.202 0.1,-0.172C0.091,-0.142 0.084,-0.115 0.078,-0.09C0.089,-0.102 0.101,-0.116 0.114,-0.133C0.127,-0.149 0.139,-0.165 0.15,-0.181C0.161,-0.197 0.171,-0.212 0.18,-0.226C0.189,-0.24 0.195,-0.251 0.198,-0.26C0.205,-0.259 0.207,-0.252 0.204,-0.238C0.202,-0.226 0.197,-0.209 0.189,-0.19C0.18,-0.171 0.17,-0.15 0.158,-0.128C0.146,-0.105 0.134,-0.085 0.122,-0.066C0.109,-0.047 0.098,-0.032 0.087,-0.019C0.076,-0.006 0.068,-0 0.063,-0C0.06,-0 0.056,-0.003 0.049,-0.008C0.042,-0.013 0.036,-0.019 0.029,-0.027C0.022,-0.035 0.017,-0.043 0.012,-0.052C0.007,-0.061 0.004,-0.068 0.005,-0.075C0.008,-0.099 0.013,-0.126 0.02,-0.157C0.027,-0.187 0.035,-0.218 0.044,-0.25C0.053,-0.281 0.063,-0.313 0.074,-0.344C0.085,-0.375 0.095,-0.404 0.105,-0.431L0.044,-0.431C0.038,-0.431 0.033,-0.431 0.029,-0.432C0.025,-0.432 0.021,-0.432 0.016,-0.433Z" style="fill-rule:nonzero;" />
            </g>
        </g>
        <g transform="matrix(1,0,0,1,5,5)">
            <g transform="matrix(868.902,0,0,868.902,1749.27,1791.38)">
                <path d="M0.345,-0.348C0.334,-0.337 0.317,-0.322 0.295,-0.305C0.272,-0.288 0.247,-0.274 0.219,-0.263C0.212,-0.25 0.204,-0.238 0.196,-0.228C0.188,-0.217 0.181,-0.212 0.174,-0.212C0.168,-0.215 0.164,-0.22 0.161,-0.229C0.158,-0.238 0.155,-0.247 0.154,-0.257C0.153,-0.267 0.153,-0.276 0.154,-0.284C0.155,-0.293 0.156,-0.298 0.158,-0.3C0.165,-0.3 0.174,-0.301 0.185,-0.303C0.188,-0.314 0.189,-0.323 0.189,-0.332C0.188,-0.34 0.187,-0.346 0.186,-0.35C0.181,-0.35 0.175,-0.348 0.169,-0.344C0.162,-0.34 0.156,-0.335 0.15,-0.329C0.143,-0.322 0.138,-0.315 0.133,-0.306C0.128,-0.297 0.125,-0.288 0.124,-0.279C0.122,-0.266 0.124,-0.253 0.131,-0.237C0.137,-0.223 0.144,-0.207 0.153,-0.193C0.161,-0.178 0.169,-0.163 0.175,-0.148C0.183,-0.133 0.186,-0.12 0.185,-0.109C0.184,-0.101 0.181,-0.091 0.175,-0.079C0.17,-0.066 0.162,-0.054 0.153,-0.043C0.143,-0.031 0.131,-0.021 0.117,-0.013C0.104,-0.004 0.089,-0 0.072,-0C0.059,-0 0.048,-0.007 0.038,-0.02C0.027,-0.033 0.019,-0.048 0.012,-0.066C0.005,-0.083 0.001,-0.101 -0.001,-0.119C-0.004,-0.138 -0.003,-0.152 0,-0.162C0.007,-0.143 0.016,-0.127 0.027,-0.114C0.038,-0.101 0.049,-0.09 0.059,-0.082C0.07,-0.074 0.081,-0.069 0.09,-0.067C0.099,-0.064 0.105,-0.065 0.108,-0.068C0.113,-0.074 0.113,-0.084 0.107,-0.099C0.101,-0.114 0.093,-0.131 0.084,-0.151C0.075,-0.17 0.066,-0.191 0.058,-0.214C0.049,-0.236 0.045,-0.257 0.046,-0.278C0.047,-0.3 0.051,-0.319 0.059,-0.336C0.068,-0.352 0.077,-0.366 0.088,-0.377C0.099,-0.388 0.11,-0.396 0.121,-0.402C0.132,-0.407 0.14,-0.41 0.147,-0.41C0.154,-0.41 0.163,-0.407 0.174,-0.402C0.185,-0.396 0.197,-0.389 0.207,-0.381C0.219,-0.373 0.228,-0.365 0.235,-0.357C0.243,-0.348 0.247,-0.341 0.247,-0.336C0.247,-0.332 0.245,-0.325 0.242,-0.315C0.253,-0.318 0.265,-0.321 0.276,-0.324C0.286,-0.327 0.297,-0.33 0.306,-0.333C0.315,-0.336 0.324,-0.338 0.331,-0.341C0.338,-0.344 0.342,-0.346 0.345,-0.348Z" style="fill-rule:nonzero;" />
            </g>
        </g>
        <g transform="matrix(1,0,0,1,5,5)">
            <g transform="matrix(868.902,0,0,868.902,1937.83,1791.38)">
                <path d="M0.177,-0.376C0.172,-0.369 0.166,-0.356 0.157,-0.338C0.148,-0.32 0.139,-0.298 0.129,-0.272C0.119,-0.245 0.109,-0.216 0.1,-0.184C0.09,-0.151 0.082,-0.117 0.075,-0.082C0.086,-0.095 0.097,-0.11 0.109,-0.127C0.121,-0.143 0.132,-0.16 0.142,-0.177C0.153,-0.194 0.162,-0.209 0.17,-0.224C0.178,-0.239 0.184,-0.25 0.187,-0.259C0.193,-0.258 0.195,-0.25 0.194,-0.237C0.192,-0.224 0.188,-0.207 0.181,-0.188C0.173,-0.169 0.165,-0.148 0.154,-0.126C0.143,-0.104 0.133,-0.084 0.122,-0.065C0.111,-0.046 0.1,-0.031 0.09,-0.019C0.079,-0.006 0.071,-0 0.065,-0C0.06,-0 0.054,-0.003 0.047,-0.008C0.04,-0.013 0.033,-0.02 0.027,-0.027C0.02,-0.034 0.015,-0.042 0.011,-0.05C0.006,-0.058 0.004,-0.065 0.004,-0.07C0.005,-0.087 0.007,-0.108 0.012,-0.131C0.016,-0.154 0.021,-0.179 0.028,-0.203C0.035,-0.229 0.042,-0.253 0.05,-0.278C0.058,-0.303 0.066,-0.325 0.074,-0.344C0.081,-0.363 0.088,-0.378 0.094,-0.39C0.1,-0.402 0.105,-0.408 0.108,-0.408C0.114,-0.408 0.121,-0.407 0.128,-0.405C0.135,-0.402 0.142,-0.4 0.149,-0.397C0.156,-0.394 0.162,-0.39 0.167,-0.386C0.172,-0.382 0.175,-0.379 0.177,-0.376ZM0.268,-0.612C0.264,-0.609 0.259,-0.603 0.253,-0.594C0.246,-0.585 0.24,-0.574 0.234,-0.563C0.227,-0.551 0.221,-0.539 0.216,-0.526C0.211,-0.513 0.207,-0.5 0.204,-0.488C0.2,-0.488 0.196,-0.49 0.191,-0.493C0.186,-0.496 0.182,-0.5 0.177,-0.505C0.172,-0.51 0.169,-0.515 0.166,-0.52C0.163,-0.525 0.161,-0.529 0.161,-0.532C0.161,-0.547 0.163,-0.561 0.167,-0.575C0.17,-0.588 0.175,-0.6 0.18,-0.611C0.185,-0.621 0.191,-0.629 0.197,-0.635C0.202,-0.641 0.207,-0.644 0.211,-0.644C0.216,-0.644 0.222,-0.643 0.228,-0.641C0.233,-0.638 0.239,-0.635 0.244,-0.632C0.249,-0.629 0.254,-0.625 0.259,-0.622C0.263,-0.618 0.266,-0.615 0.268,-0.612Z" style="fill-rule:nonzero;" />
            </g>
        </g>
        <g transform="matrix(1,0,0,1,5,5)">
            <g transform="matrix(868.902,0,0,868.902,2056,1791.38)">
                <path d="M0.205,-0.019C0.202,-0.019 0.198,-0.021 0.191,-0.027C0.184,-0.032 0.178,-0.038 0.171,-0.046C0.164,-0.054 0.158,-0.062 0.153,-0.071C0.148,-0.08 0.145,-0.087 0.146,-0.094C0.147,-0.101 0.149,-0.109 0.15,-0.117C0.151,-0.125 0.152,-0.133 0.154,-0.142C0.147,-0.125 0.14,-0.108 0.133,-0.091C0.126,-0.074 0.118,-0.059 0.111,-0.046C0.104,-0.032 0.097,-0.021 0.09,-0.013C0.083,-0.004 0.076,-0 0.07,-0C0.067,-0 0.062,-0.001 0.056,-0.003C0.05,-0.005 0.044,-0.008 0.037,-0.013C0.03,-0.018 0.024,-0.024 0.019,-0.031C0.013,-0.038 0.009,-0.047 0.007,-0.057C0.004,-0.07 0.003,-0.089 0.006,-0.113C0.008,-0.137 0.012,-0.163 0.019,-0.19C0.025,-0.217 0.033,-0.244 0.043,-0.272C0.053,-0.299 0.064,-0.324 0.077,-0.345C0.089,-0.366 0.102,-0.383 0.116,-0.395C0.13,-0.407 0.144,-0.411 0.159,-0.407C0.17,-0.404 0.18,-0.399 0.19,-0.393C0.2,-0.387 0.209,-0.38 0.218,-0.373C0.228,-0.402 0.238,-0.429 0.247,-0.454C0.256,-0.479 0.265,-0.501 0.274,-0.521C0.282,-0.54 0.289,-0.555 0.295,-0.566C0.301,-0.577 0.305,-0.582 0.308,-0.582C0.313,-0.582 0.32,-0.581 0.327,-0.579C0.334,-0.576 0.342,-0.573 0.348,-0.57C0.356,-0.566 0.362,-0.562 0.368,-0.559C0.373,-0.555 0.377,-0.552 0.378,-0.549C0.373,-0.545 0.367,-0.535 0.359,-0.519C0.351,-0.502 0.342,-0.482 0.332,-0.458C0.322,-0.433 0.312,-0.406 0.301,-0.376C0.29,-0.345 0.28,-0.314 0.27,-0.282C0.259,-0.251 0.25,-0.22 0.241,-0.189C0.232,-0.158 0.224,-0.13 0.218,-0.105C0.229,-0.118 0.241,-0.133 0.254,-0.15C0.266,-0.167 0.277,-0.183 0.288,-0.2C0.298,-0.216 0.307,-0.231 0.315,-0.245C0.323,-0.259 0.329,-0.27 0.332,-0.278C0.337,-0.277 0.339,-0.27 0.337,-0.257C0.334,-0.244 0.329,-0.228 0.322,-0.209C0.315,-0.19 0.306,-0.169 0.295,-0.147C0.284,-0.124 0.273,-0.104 0.262,-0.085C0.251,-0.066 0.24,-0.051 0.23,-0.038C0.219,-0.025 0.211,-0.019 0.205,-0.019ZM0.07,-0.071C0.072,-0.071 0.077,-0.077 0.085,-0.089C0.092,-0.1 0.102,-0.116 0.113,-0.136C0.124,-0.156 0.137,-0.18 0.151,-0.206C0.165,-0.234 0.179,-0.262 0.193,-0.292C0.195,-0.299 0.197,-0.307 0.199,-0.314C0.201,-0.321 0.203,-0.328 0.206,-0.335C0.198,-0.342 0.191,-0.346 0.185,-0.346C0.179,-0.346 0.173,-0.343 0.168,-0.337C0.16,-0.329 0.152,-0.318 0.143,-0.303C0.135,-0.288 0.127,-0.272 0.119,-0.254C0.112,-0.235 0.105,-0.216 0.099,-0.197C0.092,-0.178 0.087,-0.159 0.082,-0.142C0.077,-0.125 0.074,-0.11 0.072,-0.097C0.07,-0.084 0.069,-0.076 0.07,-0.071Z" style="fill-rule:nonzero;" />
            </g>
        </g>
        <g transform="matrix(1,0,0,1,5,5)">
            <g transform="matrix(868.902,0,0,868.902,2292.34,1791.38)">
                <path d="M0.272,-0.243C0.277,-0.238 0.278,-0.228 0.275,-0.214C0.271,-0.199 0.265,-0.183 0.256,-0.165C0.247,-0.147 0.235,-0.128 0.223,-0.109C0.21,-0.09 0.196,-0.072 0.183,-0.056C0.169,-0.039 0.156,-0.026 0.143,-0.016C0.13,-0.005 0.12,-0 0.111,-0C0.097,-0 0.084,-0.003 0.07,-0.01C0.058,-0.017 0.046,-0.025 0.036,-0.035C0.026,-0.044 0.018,-0.055 0.013,-0.066C0.007,-0.077 0.004,-0.086 0.004,-0.095C0.004,-0.125 0.009,-0.158 0.018,-0.195C0.027,-0.232 0.039,-0.266 0.053,-0.298C0.067,-0.329 0.083,-0.356 0.1,-0.377C0.117,-0.398 0.133,-0.409 0.148,-0.409C0.151,-0.409 0.157,-0.406 0.167,-0.401C0.176,-0.396 0.186,-0.389 0.197,-0.381C0.208,-0.372 0.217,-0.363 0.226,-0.353C0.235,-0.343 0.239,-0.334 0.24,-0.325C0.241,-0.308 0.237,-0.289 0.228,-0.268C0.219,-0.247 0.207,-0.229 0.193,-0.214C0.178,-0.199 0.162,-0.189 0.145,-0.185C0.128,-0.18 0.112,-0.186 0.098,-0.202C0.093,-0.186 0.088,-0.17 0.084,-0.155C0.08,-0.14 0.077,-0.126 0.075,-0.114C0.073,-0.101 0.072,-0.091 0.073,-0.082C0.074,-0.073 0.076,-0.067 0.08,-0.064C0.085,-0.061 0.092,-0.062 0.102,-0.067C0.112,-0.072 0.124,-0.08 0.137,-0.091C0.15,-0.102 0.163,-0.114 0.178,-0.128C0.192,-0.142 0.205,-0.156 0.218,-0.171C0.231,-0.185 0.242,-0.199 0.252,-0.212C0.261,-0.225 0.268,-0.235 0.272,-0.243ZM0.183,-0.353C0.178,-0.353 0.173,-0.349 0.167,-0.342C0.16,-0.335 0.154,-0.325 0.147,-0.313C0.14,-0.301 0.133,-0.287 0.126,-0.271C0.118,-0.255 0.112,-0.239 0.106,-0.222C0.121,-0.226 0.133,-0.234 0.143,-0.245C0.154,-0.256 0.162,-0.268 0.169,-0.281C0.175,-0.294 0.179,-0.308 0.182,-0.321C0.184,-0.334 0.184,-0.344 0.183,-0.353Z" style="fill-rule:nonzero;" />
            </g>
        </g>
        <g transform="matrix(1,0,0,1,5,5)">
            <g transform="matrix(868.902,0,0,868.902,2482.63,1791.38)">
                <path d="M0.18,-0.306C0.179,-0.311 0.175,-0.318 0.169,-0.326C0.163,-0.333 0.155,-0.341 0.146,-0.348C0.139,-0.333 0.131,-0.316 0.122,-0.295C0.113,-0.274 0.103,-0.251 0.095,-0.228C0.086,-0.205 0.077,-0.181 0.068,-0.157C0.059,-0.133 0.052,-0.111 0.046,-0.09C0.039,-0.069 0.035,-0.05 0.032,-0.035C0.029,-0.019 0.029,-0.007 0.032,-0C0.027,-0 0.022,-0.002 0.016,-0.006C0.009,-0.009 0.003,-0.014 -0.003,-0.019C-0.009,-0.024 -0.014,-0.03 -0.018,-0.037C-0.022,-0.044 -0.024,-0.05 -0.024,-0.056C-0.024,-0.063 -0.021,-0.075 -0.016,-0.091C-0.011,-0.107 -0.005,-0.125 0.003,-0.146C0.01,-0.166 0.019,-0.188 0.029,-0.211C0.038,-0.234 0.048,-0.256 0.058,-0.277C0.067,-0.298 0.076,-0.317 0.085,-0.335C0.093,-0.352 0.1,-0.366 0.105,-0.377C0.098,-0.382 0.094,-0.39 0.095,-0.401C0.095,-0.412 0.097,-0.424 0.102,-0.436C0.106,-0.448 0.112,-0.459 0.119,-0.469C0.126,-0.478 0.134,-0.484 0.141,-0.485C0.145,-0.486 0.15,-0.485 0.157,-0.482C0.163,-0.479 0.169,-0.476 0.175,-0.471C0.182,-0.467 0.188,-0.463 0.194,-0.458C0.199,-0.453 0.204,-0.449 0.207,-0.446C0.202,-0.443 0.198,-0.438 0.193,-0.433C0.188,-0.427 0.184,-0.421 0.181,-0.415C0.178,-0.409 0.176,-0.403 0.176,-0.397C0.176,-0.39 0.179,-0.385 0.184,-0.38C0.207,-0.359 0.224,-0.343 0.234,-0.33C0.243,-0.317 0.249,-0.305 0.251,-0.296C0.252,-0.287 0.251,-0.278 0.248,-0.271C0.244,-0.263 0.24,-0.254 0.237,-0.244C0.229,-0.223 0.22,-0.198 0.211,-0.169C0.202,-0.14 0.194,-0.111 0.188,-0.081C0.199,-0.094 0.21,-0.109 0.222,-0.126C0.234,-0.142 0.245,-0.16 0.256,-0.177C0.267,-0.194 0.276,-0.209 0.284,-0.224C0.293,-0.239 0.299,-0.25 0.302,-0.259C0.308,-0.258 0.31,-0.25 0.308,-0.237C0.306,-0.224 0.301,-0.207 0.294,-0.188C0.287,-0.169 0.278,-0.148 0.267,-0.126C0.256,-0.104 0.246,-0.084 0.234,-0.065C0.224,-0.046 0.213,-0.031 0.203,-0.019C0.192,-0.006 0.184,-0 0.178,-0C0.173,-0 0.166,-0.003 0.158,-0.008C0.149,-0.013 0.141,-0.02 0.134,-0.028C0.127,-0.035 0.12,-0.043 0.115,-0.051C0.11,-0.058 0.107,-0.064 0.107,-0.068C0.107,-0.082 0.11,-0.098 0.115,-0.117C0.119,-0.135 0.126,-0.154 0.133,-0.175C0.14,-0.196 0.147,-0.217 0.156,-0.239C0.164,-0.262 0.172,-0.284 0.18,-0.306Z" style="fill-rule:nonzero;" />
            </g>
        </g>
        <g transform="matrix(1,0,0,1,5,5)">
            <g transform="matrix(868.902,0,0,868.902,2700.72,1791.38)">
                <path d="M0.345,-0.348C0.334,-0.337 0.317,-0.322 0.295,-0.305C0.272,-0.288 0.247,-0.274 0.219,-0.263C0.212,-0.25 0.204,-0.238 0.196,-0.228C0.188,-0.217 0.181,-0.212 0.174,-0.212C0.168,-0.215 0.164,-0.22 0.161,-0.229C0.158,-0.238 0.155,-0.247 0.154,-0.257C0.153,-0.267 0.153,-0.276 0.154,-0.284C0.155,-0.293 0.156,-0.298 0.158,-0.3C0.165,-0.3 0.174,-0.301 0.185,-0.303C0.188,-0.314 0.189,-0.323 0.189,-0.332C0.188,-0.34 0.187,-0.346 0.186,-0.35C0.181,-0.35 0.175,-0.348 0.169,-0.344C0.162,-0.34 0.156,-0.335 0.15,-0.329C0.143,-0.322 0.138,-0.315 0.133,-0.306C0.128,-0.297 0.125,-0.288 0.124,-0.279C0.122,-0.266 0.124,-0.253 0.131,-0.237C0.137,-0.223 0.144,-0.207 0.153,-0.193C0.161,-0.178 0.169,-0.163 0.175,-0.148C0.183,-0.133 0.186,-0.12 0.185,-0.109C0.184,-0.101 0.181,-0.091 0.175,-0.079C0.17,-0.066 0.162,-0.054 0.153,-0.043C0.143,-0.031 0.131,-0.021 0.117,-0.013C0.104,-0.004 0.089,-0 0.072,-0C0.059,-0 0.048,-0.007 0.038,-0.02C0.027,-0.033 0.019,-0.048 0.012,-0.066C0.005,-0.083 0.001,-0.101 -0.001,-0.119C-0.004,-0.138 -0.003,-0.152 0,-0.162C0.007,-0.143 0.016,-0.127 0.027,-0.114C0.038,-0.101 0.049,-0.09 0.059,-0.082C0.07,-0.074 0.081,-0.069 0.09,-0.067C0.099,-0.064 0.105,-0.065 0.108,-0.068C0.113,-0.074 0.113,-0.084 0.107,-0.099C0.101,-0.114 0.093,-0.131 0.084,-0.151C0.075,-0.17 0.066,-0.191 0.058,-0.214C0.049,-0.236 0.045,-0.257 0.046,-0.278C0.047,-0.3 0.051,-0.319 0.059,-0.336C0.068,-0.352 0.077,-0.366 0.088,-0.377C0.099,-0.388 0.11,-0.396 0.121,-0.402C0.132,-0.407 0.14,-0.41 0.147,-0.41C0.154,-0.41 0.163,-0.407 0.174,-0.402C0.185,-0.396 0.197,-0.389 0.207,-0.381C0.219,-0.373 0.228,-0.365 0.235,-0.357C0.243,-0.348 0.247,-0.341 0.247,-0.336C0.247,-0.332 0.245,-0.325 0.242,-0.315C0.253,-0.318 0.265,-0.321 0.276,-0.324C0.286,-0.327 0.297,-0.33 0.306,-0.333C0.315,-0.336 0.324,-0.338 0.331,-0.341C0.338,-0.344 0.342,-0.346 0.345,-0.348Z" style="fill-rule:nonzero;" />
            </g>
        </g>
    </g>
</svg>