<svg id="Layer_1" data-name="Layer 1" xmlns="http://www.w3.org/2000/svg" viewBox="0 0 71.14 40.36">
	<polygon fill="currentColor" points="56.08 32.05 58.01 32.05 59.38 30.69 57.45 30.69 56.08 32.05" />
	<polygon fill="currentColor" points="51.47 34.78 53.4 34.78 54.76 33.41 52.83 33.41 51.47 34.78" />
	<path fill="currentColor" d="M62.49,25.23H43.24a9.18,9.18,0,0,1,.7,1.36H57.26L55.89,28H44.38a8.87,8.87,0,0,1,.2,1.37h6.54l-1.36,1.36H44.58a8.57,8.57,0,0,1-.2,1.36h5.93L49,33.42h-5a8.68,8.68,0,0,1-.69,1.36h6.26l1.37-1.36,1.36-1.37h1.91l1.36-1.36,1.36-1.36h3.44L61.68,28l1.37-1.37,1.36-1.36Zm-8.91,5.46H51.69l1.36-1.36h1.89ZM59.75,28H57.81l1.38-1.37h1.93Z" />
	<polygon fill="currentColor" points="11.81 30.69 13.18 32.05 15.11 32.05 13.74 30.69 11.81 30.69" />
	<polygon fill="currentColor" points="16.43 33.41 17.79 34.78 19.73 34.78 18.36 33.41 16.43 33.41" />
	<path fill="currentColor" d="M22.24,33.42l-1.36-1.37h5.93a8.57,8.57,0,0,1-.2-1.36H21.43l-1.36-1.36h6.54a8.87,8.87,0,0,1,.2-1.37H15.31l-1.38-1.37H27.25a9.18,9.18,0,0,1,.7-1.36H6.78l1.36,1.36L9.51,28l1.37,1.37h3.44l1.36,1.36L17,32.05H19l1.36,1.37,1.37,1.36h6.26a8.68,8.68,0,0,1-.69-1.36ZM11.44,28l-1.37-1.37H12L13.38,28Zm6.17,2.73-1.36-1.36h1.89l1.36,1.36Z" />
	<path id="bug" fill="currentColor" d="M35.6,23.45A6.56,6.56,0,1,0,42.15,30,6.55,6.55,0,0,0,35.6,23.45Zm0,11.36A4.81,4.81,0,1,1,40.4,30,4.79,4.79,0,0,1,35.6,34.81Zm3-6.42A1.36,1.36,0,1,1,37.21,27,1.36,1.36,0,0,1,38.57,28.39Zm0,3.23a1.36,1.36,0,1,1-1.36-1.35A1.37,1.37,0,0,1,38.57,31.62Zm-3.24,0A1.36,1.36,0,1,1,34,30.27,1.37,1.37,0,0,1,35.33,31.62Zm0-3.23A1.36,1.36,0,1,1,34,27,1.36,1.36,0,0,1,35.33,28.39Z" />
	<path fill="currentColor" d="M63.59,17.59a14.08,14.08,0,0,0-1.84-3.68h-2V14l.61,3.55v.08l-.61,3.85v.11h2V16.46a9.55,9.55,0,0,1,1.84,5.15h2V21.5L65,17.65v-.08L65.59,14v-.11h-2Z" />
	<path fill="currentColor" d="M51.73,14l.62,3.55v.08l-.62,3.85v.11h5.85V21.5L57,17.65v-.08L57.58,14v-.11H51.73Zm2.08,1.28h1.7v4.92h-1.7Z" />
	<polygon fill="currentColor" points="46.91 14.02 47.53 17.57 47.53 17.65 46.91 21.5 46.91 21.61 49.53 21.61 49.53 21.5 48.92 17.65 48.92 17.57 49.53 14.02 49.53 13.91 46.91 13.91 46.91 14.02" />
	<path fill="currentColor" d="M43,13.91H39.45V14l.61,3.55v.08l-.61,3.85v.11h2.61l-.48-3.3H43a2.18,2.18,0,0,0,2.19-2.2A2.09,2.09,0,0,0,43,13.91Zm-.62,3.17h-.14a.86.86,0,0,1-1-.86.84.84,0,0,1,1-.92h.14a.9.9,0,0,1,1,.92A.86.86,0,0,1,42.38,17.08Z" />
	<path fill="currentColor" d="M33.33,17a11.58,11.58,0,0,0-1.84-3.05h-2V14l.61,3.55v.08l-.61,3.85v.11h2V16.35a8.28,8.28,0,0,1,1.21,1.84l-.58,3.31v.11h2.42V21.5L34,18.19a7.93,7.93,0,0,1,1.21-1.84v5.26h2V21.5l-.62-3.85v-.08L37.18,14v-.11h-2A11.88,11.88,0,0,0,33.33,17Z" />
	<path fill="currentColor" d="M21.61,13.91V14l.61,3.55v.08l-.61,3.85v.11H23.5l.21-2.53h1.44l.2,2.53h1.9V21.5l-.62-3.85v-.08L27.25,14v-.11c-.92.07-1.88.11-2.82.11S22.54,14,21.61,13.91Zm3.54,2.83c0,.76-.31,1-.72,1s-.72-.25-.72-1V15.29h1.44Z" />
	<polygon fill="currentColor" points="17.34 15.3 17.34 17.07 15.65 17.07 15.65 15.3 15.65 13.91 13.56 13.91 13.56 14.02 14.18 17.57 14.18 17.65 13.56 21.5 13.56 21.61 15.65 21.61 15.65 20.22 15.65 18.45 17.34 18.45 17.34 20.22 17.34 21.61 19.41 21.61 19.41 21.5 18.8 17.65 18.8 17.57 19.41 14.02 19.41 13.91 17.34 13.91 17.34 15.3" />
	<polygon fill="currentColor" points="5.55 13.99 6.16 17.55 6.16 17.64 5.55 21.51 5.55 21.61 11.41 21.61 11.41 21.51 10.98 18.81 9.33 18.81 9.33 20.22 7.64 20.22 7.64 15.28 9.33 15.28 9.33 16.69 10.95 16.69 11.41 13.99 11.41 13.89 5.55 13.89 5.55 13.99" />
	<path fill="currentColor" d="M49.37,10.94l-.44-2.78V8.11l.44-2.56V5.47H45.16v.08l.44,2.56v.05l-.44,2.78V11h4.21ZM47.88,10H46.66V6.47h1.22Z" />
	<polygon fill="currentColor" points="44.07 10.95 43.63 8.16 43.63 8.11 44.07 5.55 44.07 5.47 42.19 5.47 42.19 5.55 42.63 8.11 42.63 8.16 42.19 10.95 42.19 11.02 44.07 11.02 44.07 10.95" />
	<polygon fill="currentColor" points="41.04 9.9 39.23 9.99 39.23 5.47 37.56 5.47 37.56 5.55 38.01 8.11 38.01 8.16 37.56 10.95 37.56 11.02 40.93 11.02 41.04 9.9" />
	<polygon fill="currentColor" points="34.44 5.55 34.88 8.11 34.88 8.16 34.44 10.95 34.44 11.02 36.33 11.02 36.33 10.95 35.88 8.16 35.88 8.11 36.33 5.55 36.33 5.47 34.44 5.47 34.44 5.55" />
	<path fill="currentColor" d="M32.73,11l.64-5.55h-1.5l-.15,4c0,.34-.08.51-.43.51s-.44-.18-.45-.49l-.15-4H29.57l-.15,4c0,.31-.11.49-.45.49s-.43-.17-.44-.51l-.15-4H26.89L27.52,11Z" />
	<polygon fill="currentColor" points="22.98 10.95 22.98 11.02 24.72 11.02 24.72 10.95 24.4 6.65 25.91 6.73 25.8 5.47 21.88 5.47 21.77 6.73 23.3 6.65 22.98 10.95" />
	<polygon fill="currentColor" points="54.94 7.56 53.58 8.93 61.85 8.93 63.21 7.56 54.94 7.56" />
	<polygon fill="currentColor" points="16.07 7.56 17.44 8.93 9.17 8.93 7.8 7.56 16.07 7.56" />
</svg>
