<svg viewBox="0 0 1386 458" width="1386" height="458">
	<path fill="#003462" d="M285.086,1.785L272.035,67.35C271.621,69.525 271.206,72.298 270.792,75.663C270.377,79.03 270.118,81.231 270.015,82.265L269.394,82.265C269.29,81.127 269.03,79.03 268.617,75.973C268.202,72.919 267.787,70.045 267.375,67.35L254.634,1.785L232.105,1.785L219.209,67.35C218.794,69.215 218.379,71.883 217.966,75.352C217.551,78.823 217.292,81.127 217.19,82.265L216.568,82.265C216.464,81.127 216.204,78.848 215.792,75.43C215.376,72.012 214.961,69.319 214.548,67.35L201.808,1.785L182.077,1.785L205.226,108.368L225.269,108.368L239.563,40.471C239.976,38.607 240.417,35.914 240.883,32.392C241.35,28.872 241.634,26.542 241.738,25.4L242.36,25.4C242.461,26.437 242.722,28.639 243.136,32.004C243.549,35.37 244.016,38.194 244.536,40.471L258.984,108.368L279.027,108.368L302.177,1.785L285.086,1.785Z" transform="translate(0 -.72) scale(4.16667)" />
	<path fill="#003462" d="M310.09,87.082L331.532,87.082L331.532,108.368L310.09,108.368L310.09,87.082ZM308.848,1.785L332.62,1.785L327.026,77.76L314.286,77.76L308.848,1.785Z" transform="translate(0 -.72) scale(4.16667)" />
	<path fill="#72c7a7" d="M181.196,38.452C179.095,31.745 175.727,25.502 171.186,19.894C167.274,15.065 162.493,10.97 156.975,7.723L155.034,6.58L147.878,22.276L148.809,22.845C152.409,25.04 155.531,27.727 158.089,30.831C161.266,34.684 163.613,38.968 165.066,43.566C166.519,48.169 167.094,53.036 166.775,58.033C166.458,62.982 165.086,67.835 162.699,72.455C160.311,77.077 157.146,81.004 153.296,84.125C149.41,87.274 145.108,89.622 140.508,91.102C135.912,92.579 131.06,93.144 126.084,92.785C122.912,92.556 119.75,91.869 116.648,90.775L109.503,106.447C114.442,108.342 119.538,109.494 124.694,109.855C127.056,110.022 129.399,110.043 131.717,109.924C136.454,109.68 141.088,108.842 145.56,107.417C152.227,105.291 158.426,101.899 163.985,97.332C169.568,92.753 174.154,87.031 177.619,80.326C181.034,73.716 183.034,66.688 183.562,59.44C184.091,52.221 183.295,45.159 181.196,38.452Z" transform="translate(0 -.72) scale(4.16667)" />
	<path fill="#003462" d="M102.809,103.431L109.962,87.741L108.883,87.077C105.334,84.894 102.251,82.232 99.72,79.164C96.544,75.312 94.174,71.011 92.677,66.38C91.182,61.752 90.587,56.878 90.907,51.895C91.223,46.943 92.594,42.091 94.98,37.473C97.365,32.855 100.53,28.929 104.387,25.803C108.267,22.658 112.585,20.322 117.222,18.863C121.86,17.406 126.738,16.85 131.726,17.212C134.911,17.444 138.084,18.137 141.195,19.236L148.328,3.591C143.464,1.757 138.412,0.647 133.267,0.304C126.028,-0.177 118.941,0.666 112.215,2.806C105.488,4.953 99.225,8.367 93.599,12.95C87.944,17.556 83.344,23.244 79.926,29.86C76.461,36.568 74.473,43.637 74.014,50.868C73.552,58.065 74.417,65.105 76.586,71.796C78.752,78.472 82.189,84.692 86.802,90.284C90.688,94.991 95.365,98.993 100.703,102.175L102.809,103.431Z" transform="translate(0 -.72) scale(4.16667)" />
	<path fill="#003462" d="M64.944,1.785L43.348,48.551L42.726,48.551L20.975,1.785L0,1.785L32.627,68.128L32.627,108.368L52.515,108.368L52.515,68.128L84.987,1.785L64.944,1.785Z" transform="translate(0 -.72) scale(4.16667)" />
</svg>