<svg xmlns="http://www.w3.org/2000/svg" viewBox="0 0 1010.44 556.49">
	<g class="cls-1">
		<g id="shapes">
			<g class="cls-2">
				<path fill="#9440a0" d="M968.69,566.33s-19.26,40.12,2.71,52.47,54.07-4.94,62.72-32.1,1.65-43.21-23.87-50.61-33.17,12.34-41.56,30.24" transform="translate(-213.84 -338.21)" />
			</g>
			<g class="cls-2">
				<path fill="#cb5699" d="M1129,627.58s5.74-13.18,20.2-4.31,26.58,26.49,12.11,36.76-28.9-10.84-31.07-14c-5.9-8.53-1.24-18.47-1.24-18.47" transform="translate(-213.84 -338.21)" />
			</g>
			<path fill="#318ce7" d="M317,649.1c5.25-10.93,7.74-23,12.6-34.09s12.93-21.81,24.57-25.2c23.66-6.89,47.28,19,71.24,13.29,11.48-2.74,20-12.2,27.12-21.61,12.16-16.08,22.64-33.79,27.72-53.3s4.36-41-4.94-58.9c-8.94-17.19-24.95-29.7-42-38.9C399,411.83,357.89,404.88,319.93,414.1s-72.11,35.29-88.39,70.8c-9.92,21.62-13.11,45.65-15.41,69.33-4,41.2-5,85.89,16.44,122.86C252.61,711.64,304.43,675.31,317,649.1Z" transform="translate(-213.84 -338.21)" />
			<path fill="#64ad66" d="M401.61,426.36c.61.75,1.24,1.48,1.9,2.19,14.85,16.07,42,23.59,59.76,8.66,13.63-11.48,19.49-31.43,14.05-48.39-8.65-27-45.3-41.39-70.87-30.84-4.71,1.95-9.17,4.89-12,9.14a28.69,28.69,0,0,0-3.58,8.58C386.26,393,390.23,412.55,401.61,426.36Z" transform="translate(-213.84 -338.21)" />
			<path fill="#64ad66" d="M708.54,557.3c4.23-.61,8.45-1.29,12.69-1.79,11.64-1.39,23.31-2.24,35-1.23a72.54,72.54,0,0,1,18.86,4.07,16.05,16.05,0,0,1,2.09.9,3.16,3.16,0,0,1,.22,5.66,11.82,11.82,0,0,1-2.64,1.25c-17.24,5.33-34.74,8.47-52.87,6.14a66.54,66.54,0,0,1-9.74-1.79c-11.51-3.27-22.2-.85-32.53,4.37-2.94,1.49-5.79,3.17-8.69,4.76-.43.23-.86.45-1.31.65-1.63.71-3,.42-3.75-.77a2.81,2.81,0,0,1,.88-3.75c3.23-2.69,6.43-5.45,9.82-7.93a15.27,15.27,0,0,0,5.46-7.1c1.44-3.85,3.08-7.7,3.88-11.71A56.85,56.85,0,0,1,698.81,523c5.92-7,12.24-13.49,20.17-18.21a19.74,19.74,0,0,1,3.62-1.81c2.7-.92,4.94.91,4.42,3.72a19.25,19.25,0,0,1-1.9,5.84c-4.45,7.93-9,15.83-13.71,23.58-2.92,4.78-6.29,9.29-9.76,14.35,2.59-1.46,4.73-2.8,7-3.91,5.39-2.66,9.51-6.9,14-10.78,6.2-5.4,10.91-12,16-18.35a195.4,195.4,0,0,1,26.21-27.28c6.14-5.17,12.33-10.27,19.35-14.23,2.35-1.32,4.88-2.31,7.35-3.42a5.12,5.12,0,0,1,1.25-.34c5-1,7.59,1.5,6.51,6.5-1,4.62-3.5,8.48-6.35,12.14-6,7.69-13.79,13.3-21.9,18.44-13.42,8.53-26,18.21-38.69,27.73-2,1.49-4,3-5.92,4.66.49-.18,1-.34,1.46-.55,12.75-5.59,25.4-11.43,38.27-16.71a343.83,343.83,0,0,1,48.23-16c3.46-.86,7-1.25,10.57-1.82a6.73,6.73,0,0,1,1.62-.05c3.24.24,4.88,3,3,5.59a35,35,0,0,1-6.29,6.47c-9,7.37-19.72,11.39-30.65,14.91-8.56,2.75-17.45,3.84-26.23,5.5a176.65,176.65,0,0,0-24,6.29c-5.49,1.86-11.18,3.11-16.66,5s-10.61,4-15.9,6.11a11,11,0,0,0-1.38.77Z" transform="translate(-213.84 -338.21)" />
			<path fill="#ffce03" d="M869.22,716.79c2.61-5.06,9.16-6.12,12.63-2,1.07,1.28,1.71,2.91,2.69,4.27,2.8,3.88,5.44,7.92,8.59,11.5,3.28,3.74,7.77,4.68,12.57,3.46,4.27-1.09,8.48-2.44,12.74-3.6,11.72-3.18,19.33-.35,26.18,9.66,2.5,3.64,5,7.3,7.6,10.84,4.36,5.83,10.34,7.91,17.41,6.86,4.36-.65,8.67-1.7,13-2.39,6.1-1,12.15-1.19,17.78,2.1,3.9,2.27,6.47,5.72,8.52,9.59,1.79,3.41,3.36,6.94,5.19,10.34a71,71,0,0,0,4.07,6.52,7.38,7.38,0,0,0,7.68,3.36c3.57-.52,7.15-1.05,10.74-1.37,9.93-.87,18.23,2.92,25.47,9.34a7.14,7.14,0,0,1-9.12,11c-6.63-5.66-14-6.83-22.3-5-12.05,2.68-20.82-2.25-26.84-12.55-2.5-4.29-4.61-8.81-6.86-13.25-3-6-4.61-6.87-11.26-5.84-4,.63-8,1.56-12.06,2.28-14.51,2.59-26-2.2-34.59-14.16-2.28-3.19-4.39-6.52-6.64-9.74-3.15-4.5-4.76-5.08-10-3.63-4.41,1.22-8.76,2.68-13.21,3.75-10.15,2.42-19,0-26.58-7.3a60.21,60.21,0,0,1-12.52-18.11C869.32,721,869.5,718.79,869.22,716.79Z" transform="translate(-213.84 -338.21)" />
			<path fill="#e53f51" d="M496.28,447.59c-1.71-4.26,1.09-8.82,5.46-8.75,1.34,0,2.67.49,4,.61,3.84.34,7.7.85,11.54.82,4,0,7-2.28,8.73-5.85,1.59-3.19,3-6.46,4.52-9.67,4.23-8.83,10-12,19.69-10.9,3.53.4,7.07.83,10.61,1.07,5.86.41,10.28-2.14,13.36-7,1.9-3,3.53-6.18,5.4-9.2,2.62-4.24,5.68-8,10.65-9.75a18.46,18.46,0,0,1,10.34-.14c3,.7,6,1.6,9,2.28a59.65,59.65,0,0,0,6.13.95,6,6,0,0,0,6.09-2.92c1.56-2.46,3.13-4.92,4.83-7.28,4.69-6.52,11.38-9.59,19.11-10.62a5.76,5.76,0,0,1,1.9,11.35c-7,1.06-11.54,4.94-14.79,11-4.71,8.77-12.34,11.52-21.79,9.77-3.94-.73-7.82-1.82-11.71-2.79-5.22-1.29-6.62-.8-9.49,3.79-1.74,2.8-3.28,5.73-5,8.57-6.06,10.22-15.06,14.73-26.86,13.65-3.15-.29-6.29-.75-9.45-1.07-4.4-.46-5.61.22-7.47,4.17-1.58,3.34-3,6.76-4.67,10q-5.79,11.21-18.45,12.37a48.62,48.62,0,0,1-17.65-1.89C498.91,449.75,497.65,448.47,496.28,447.59Z" transform="translate(-213.84 -338.21)" />
			<g class="cls-2">
				<path fill="#e53f51" d="M1185.76,619.44a90.76,90.76,0,0,0,29.47-21.54,33.15,33.15,0,0,0,3.07-4.43c1.8-5.25-.72-8.84-5.16-8.58a16.81,16.81,0,0,0-5.36,1.37c-11.85,4.91-21.58,12.72-29.88,22.38a66.17,66.17,0,0,0-4.27,5.6c-.94,1.37-1.22,2.91.07,4.27,2,2.09,4.25,3.36,7.27,2.37A42.09,42.09,0,0,0,1185.76,619.44Z" transform="translate(-213.84 -338.21)" />
				<path fill="#e53f51" d="M1191.66,635.09c3.79-.53,7.54-1.38,11.28-2.25,7-1.61,13.35-4.53,18.55-9.61a26.62,26.62,0,0,0,2.41-3c1.22-3.68-.57-6.26-4.2-7.12-4.56-1.09-8.84.2-13.08,1.63-7.8,2.63-14.74,7-21.86,11a10,10,0,0,0-3.15,3.06c-1.82,2.7-.52,5.89,2.69,6.34A26.68,26.68,0,0,0,1191.66,635.09Z" transform="translate(-213.84 -338.21)" />
				<path fill="#e53f51" d="M1195.85,653.44a63.37,63.37,0,0,0,19.58-5.49,29.85,29.85,0,0,0,6.61-4.66,4.27,4.27,0,0,0,1.19-4.93,4.52,4.52,0,0,0-4.18-2.92,22.26,22.26,0,0,0-6.27.16c-6.08,1.41-12.12,3-18.11,4.76a19.53,19.53,0,0,0-5.21,2.77,5.24,5.24,0,0,0-2.11,5.74,6.15,6.15,0,0,0,4.1,4.6A35.85,35.85,0,0,0,1195.85,653.44Z" transform="translate(-213.84 -338.21)" />
			</g>
			<path fill="#7561c1" d="M932.34,543.76a37,37,0,0,0,7.22,10.54c8.48,8.81,21.63,13.88,33.32,7.84,8.29-4.29,14.79-14.9,17.14-23.61,2.44-9,1.42-15.33-3.5-23.07-6.2-9.73-17.57-17.19-27.77-9.06-4.29,3.42-8,7.36-12.48,10.63-4.09,3-9.56,5.18-12.7,9.33C929.44,531.79,929.87,538.06,932.34,543.76Z" transform="translate(-213.84 -338.21)" />
			<g class="cls-2">
				<path fill="#9440a0" d="M391.85,725.67a11.85,11.85,0,0,0,.79-4.16c.15-8.06-3.83-14.78-12.56-14.65-5.63.08-11.25,1-14.15,6.4-2.34,4.32-2.67,12.82-.29,17.68s6,4.2,11,3.47C383,733.47,389.61,731.37,391.85,725.67Z" transform="translate(-213.84 -338.21)" />
				<path fill="#9440a0" d="M337.37,731.64c1.54-7.48-5.74-14.59-13.24-13.28-5.73,1-8.18,1.8-8.35,8.38-.12,4.43.28,9.67,3.72,12.35,4.56,3.55,14.36.2,16.87-4.65A10.7,10.7,0,0,0,337.37,731.64Z" transform="translate(-213.84 -338.21)" />
				<path fill="#9440a0" d="M370.71,675.78c2.44-6-4.71-6.51-8.42-5.55-5.11,1.33-9.39,3.3-8.25,9.69C356.25,692.39,365.87,681.5,370.71,675.78Z" transform="translate(-213.84 -338.21)" />
				<path fill="#9440a0" d="M289.87,740.94c-.46-5.64-.38-7.59-6.1-8.81-4.81-1-7.18,2-8.72,6.66C271.79,748.68,285.39,748.1,289.87,740.94Z" transform="translate(-213.84 -338.21)" />
				<path fill="#9440a0" d="M339.94,772.38c1.25-4.46.71-9.46-4.48-9.45-2.51,0-5.19,1-6.29,3.43-1.85,4.17,6.94,9.57,9.5,6.72" transform="translate(-213.84 -338.21)" />
			</g>
			<path fill="#ffce03" d="M708.53,659.93c-6.65,1.2-13.42,3.77-19.49,5.44-11.23,3.1-22.3,6.79-33.54,9.81-10.78,2.93-21.69,6.66-30.49,13.79-21.41,17.29-.6,35.54,15,45.55,24.32,15.58,49.48,31.69,75,45.4,13.74,7.4,32.14,14.56,47.72,16.47,23.34,2.86,41.66-13.88,39.79-37.86-1.81-23.16-19-37-35-51.34-11.3-10.15-15.92-22.53-25.63-33.86-6.08-7.1-14.33-12.79-23.62-13.89A33.25,33.25,0,0,0,708.53,659.93Z" transform="translate(-213.84 -338.21)" />
			<path fill="#7561c1" d="M801.4,731c5-6.36,11.15-11.66,18.63-9.5,6.75,2,7.4,9.21,7.17,16.09-.13,3.94-1.71,8.92-1.05,12.61,1,5.75,6.6,7.2,11.69,7.76,9.26,1,18.84-.24,25.16,6.8,2.43,2.71,3.39,7.32,4,11.16.78,5.26-2.69,9.19-2.62,14,.14,10.66,10.91,9.09,18.53,8.78,8.55-.34,14.11,3.76,14,12.59,0,3.94-2.64,9-2.09,12.6.69,4.65,5.25,5,9.16,5.68,4.08.68,9.29,1.27,10.68,5.73,1.35,4.3-1.48,11.14-4.28,15.37-9.95,15-27.08,29.59-43,37.82-20.63,10.66-43.5,6.66-63.13-4.33-17.43-9.75-32.81-24.91-38.11-44.16-8.86-32.19,9.55-70.9,27.15-97C795.46,739.73,798.17,735.15,801.4,731Z" transform="translate(-213.84 -338.21)" />
		</g>
		<g id="text">
			<text class="cls-11" transform="translate(197.26 9.35)">
			</text>
			<text class="cls-11" transform="translate(232.83 23.35)">
			</text>
			<text class="cls-12" transform="translate(181.35 181.5)">
			</text>
			<text class="cls-12" transform="translate(235.62 195.5)">
			</text>
			<path d="M458,567.77H423L416.1,584H402.7l31.5-70H447l31.6,70H465Zm-4.3-10.2L440.5,527l-13.1,30.6Z" transform="translate(-213.84 -338.21)" />
			<path d="M561.8,584l-.1-46.4-23,38.4h-5.8l-23-37.8V584H497.5V514h10.7l27.8,46.4L563.3,514H574l.1,70Z" transform="translate(-213.84 -338.21)" />
			<path d="M633.2,559.27V584h-13v-24.5L592.7,514h13.9l20.5,34.1L647.8,514h12.8Z" transform="translate(-213.84 -338.21)" />
			<path d="M436.7,654.67l-11.1,11.4V684h-13V614h13v35.9L460.2,614h14.6l-29.4,31.3L476.6,684H461.4Z" transform="translate(-213.84 -338.21)" />
			<path d="M540.9,667.77h-35L499,684H485.6l31.5-70h12.8l31.6,70H547.9Zm-4.3-10.2L523.4,627l-13.1,30.6Z" transform="translate(-213.84 -338.21)" />
			<path d="M625.05,617a23.07,23.07,0,0,1,10.35,8.6,26.28,26.28,0,0,1,0,26.55,22.91,22.91,0,0,1-10.35,8.65,38.74,38.74,0,0,1-15.85,3H593.4V684h-13V614h28.8A38.74,38.74,0,0,1,625.05,617Zm-3.55,32.2q4.39-3.6,4.4-10.3t-4.4-10.3q-4.39-3.6-12.9-3.6H593.4v27.8h15.2Q617.11,652.77,621.5,649.17Z" transform="translate(-213.84 -338.21)" />
			<path d="M715.5,673.07V684H663V614h51.1v10.9H676v18.2h33.8v10.7H676v19.3Z" transform="translate(-213.84 -338.21)" />
			<path d="M785.8,684l-14.3-20.5a25.7,25.7,0,0,1-2.7.1H753V684H740V614h28.8a38.74,38.74,0,0,1,15.85,3,23.07,23.07,0,0,1,10.35,8.6,24.06,24.06,0,0,1,3.6,13.3,23.68,23.68,0,0,1-3.85,13.6,22.88,22.88,0,0,1-11,8.5l16.1,23Zm-4.7-55.4q-4.4-3.6-12.9-3.6H753v27.9h15.2q8.5,0,12.9-3.65t4.4-10.35Q785.5,632.17,781.1,628.57Z" transform="translate(-213.84 -338.21)" />
			<path d="M885.3,614v70H874.6L836,636.57V684H823.1V614h10.7l38.6,47.4V614Z" transform="translate(-213.84 -338.21)" />
			<path d="M914.1,614h13v70h-13Z" transform="translate(-213.84 -338.21)" />
			<path d="M969.25,680.32a34.23,34.23,0,0,1-13.4-12.85,37.54,37.54,0,0,1,0-37,34.57,34.57,0,0,1,13.45-12.85A39.41,39.41,0,0,1,988.5,613a40,40,0,0,1,15.7,3,32.08,32.08,0,0,1,12,8.7l-8.4,7.9a24.53,24.53,0,0,0-18.7-8.2,26.22,26.22,0,0,0-12.9,3.15,22.69,22.69,0,0,0-8.9,8.75,26.8,26.8,0,0,0,0,25.4,22.69,22.69,0,0,0,8.9,8.75,26.22,26.22,0,0,0,12.9,3.15,24.38,24.38,0,0,0,18.7-8.3l8.4,8a32,32,0,0,1-12.05,8.7,40.33,40.33,0,0,1-15.75,3A39.41,39.41,0,0,1,969.25,680.32Z" transform="translate(-213.84 -338.21)" />
			<path d="M1062.8,654.67l-11.1,11.4V684h-13V614h13v35.9l34.6-35.9h14.6l-29.4,31.3,31.2,38.7h-15.2Z" transform="translate(-213.84 -338.21)" />
		</g>
	</g>
</svg>