<svg class="blob" viewBox="0 0 73 100">
	<path d="M359.618,233.695C367.17,261.138 381.367,286.341 389.856,313.465C398.345,340.59 400.579,372.01 385.192,395.965C353.913,444.654 272.173,435.264 238.544,482.328C222.437,504.885 221.932,534.769 223.829,562.406C227.083,609.623 235.825,657.132 256.904,699.498C277.984,741.865 312.387,778.789 356.45,796.125C398.782,812.76 446.419,810.206 490.795,800.19C580.167,780.118 663.684,729.008 716.695,654.138C769.706,579.268 789.995,480.452 764.085,392.492C748.324,338.926 716.93,291.475 684.499,246.016C628.07,166.927 560.949,86.288 465.989,53.926C377.239,23.687 341.474,167.917 359.618,233.695Z" transform="matrix(.13187 0 0 .13187 -29.414 -6.568)" />
</svg>
