<?xml version="1.0" encoding="UTF-8" standalone="no"?>
<!DOCTYPE svg PUBLIC "-//W3C//DTD SVG 1.1//EN" "http://www.w3.org/Graphics/SVG/1.1/DTD/svg11.dtd">
<svg width="100%" height="100%" viewBox="0 0 273 200" version="1.1" xmlns="http://www.w3.org/2000/svg" xmlns:xlink="http://www.w3.org/1999/xlink" xml:space="preserve" xmlns:serif="http://www.serif.com/" style="fill-rule:evenodd;clip-rule:evenodd;stroke-linejoin:round;stroke-miterlimit:2;">
    <g transform="matrix(0.554016,0,0,0.554016,-4.15164e-06,21.6066)">
        <path d="M243.597,-37.303C226.117,-34.151 208.322,-27.4 192.366,-23.013C162.848,-14.869 133.75,-5.176 104.205,2.757C75.869,10.454 47.192,20.253 24.06,38.982C-32.217,84.402 22.483,132.343 63.489,158.638C127.415,199.565 193.549,241.885 260.63,277.9C296.746,297.339 345.111,316.147 386.064,321.165C447.415,328.678 495.57,284.703 490.654,221.71C485.897,160.871 440.712,124.515 398.655,86.845C368.953,60.182 356.809,27.661 331.285,-2.102C315.304,-20.753 293.618,-35.701 269.199,-38.59C260.648,-39.421 252.021,-38.987 243.597,-37.303Z" style="fill:rgb(100,173,102);fill-rule:nonzero;"/>
    </g>
</svg>
