<?xml version="1.0" encoding="UTF-8" standalone="no"?>
<!DOCTYPE svg PUBLIC "-//W3C//DTD SVG 1.1//EN" "http://www.w3.org/Graphics/SVG/1.1/DTD/svg11.dtd">
<svg width="100%" height="100%" viewBox="0 0 73 100" version="1.1" xmlns="http://www.w3.org/2000/svg" xmlns:xlink="http://www.w3.org/1999/xlink" xml:space="preserve" xmlns:serif="http://www.serif.com/" style="fill-rule:evenodd;clip-rule:evenodd;stroke-linejoin:round;stroke-miterlimit:2;">
    <g transform="matrix(1,0,0,1,-5.19385,-126.129)">
        <g transform="matrix(0.131866,0,0,0.131866,-24.2202,119.561)">
            <path d="M359.618,233.695C367.17,261.138 381.367,286.341 389.856,313.465C398.345,340.59 400.579,372.01 385.192,395.965C353.913,444.654 272.173,435.264 238.544,482.328C222.437,504.885 221.932,534.769 223.829,562.406C227.083,609.623 235.825,657.132 256.904,699.498C277.984,741.865 312.387,778.789 356.45,796.125C398.782,812.76 446.419,810.206 490.795,800.19C580.167,780.118 663.684,729.008 716.695,654.138C769.706,579.268 789.995,480.452 764.085,392.492C748.324,338.926 716.93,291.475 684.499,246.016C628.07,166.927 560.949,86.288 465.989,53.926C377.239,23.687 341.474,167.917 359.618,233.695Z" style="fill:rgb(49,140,231);fill-rule:nonzero;"/>
        </g>
    </g>
</svg>
