<?xml version="1.0" encoding="UTF-8" standalone="no"?>
<!DOCTYPE svg PUBLIC "-//W3C//DTD SVG 1.1//EN" "http://www.w3.org/Graphics/SVG/1.1/DTD/svg11.dtd">
<svg width="100%" height="100%" viewBox="0 0 1048 1000" version="1.1" xmlns="http://www.w3.org/2000/svg" xmlns:xlink="http://www.w3.org/1999/xlink" xml:space="preserve" xmlns:serif="http://www.serif.com/" style="fill-rule:evenodd;clip-rule:evenodd;stroke-linejoin:round;stroke-miterlimit:2;">
    <g transform="matrix(1,0,0,1,-188.502,-171.842)">
        <g transform="matrix(0.339647,0,0,0.339647,436.304,889.852)">
            <path d="M106.125,-1954.11C177.658,-2041.2 213.424,-2084.75 263.586,-2103.61C313.748,-2122.47 369.345,-2113.27 480.54,-2094.87L1596.05,-1910.27C1707.25,-1891.87 1762.85,-1882.67 1804.26,-1848.66C1845.67,-1814.65 1865.5,-1761.9 1905.16,-1656.4L2303.06,-598.038C2342.72,-492.54 2362.55,-439.791 2353.8,-386.921C2345.05,-334.05 2309.28,-290.502 2237.75,-203.405L1520.13,670.36C1448.6,757.457 1412.83,801.006 1362.67,819.864C1312.51,838.722 1256.91,829.522 1145.71,811.122L30.2,626.525C-80.995,608.124 -136.592,598.924 -178.005,564.911C-219.417,530.899 -239.248,478.15 -278.91,372.653L-676.801,-685.709C-716.463,-791.206 -736.294,-843.955 -727.545,-896.826C-718.796,-949.697 -683.03,-993.245 -611.497,-1080.34L106.125,-1954.11Z" style="fill:rgb(247,240,235);fill-opacity:0.73;fill-rule:nonzero;"/>
        </g>
    </g>
</svg>
