<svg width="607" height="606" viewBox="0 0 607 606" fill="none" xmlns="http://www.w3.org/2000/svg">
<path opacity="0.8" d="M311.062 104.17C306.482 103.991 301.91 103.945 297.316 104.068C193.602 106.551 81.6933 179.6 79.05 289.59C77.0993 374.072 129.634 457.447 206.991 491.24C330.109 545.074 496.243 459.748 538.958 335.692C546.803 312.82 550.343 287.735 544.114 264.345C539.889 250.173 533.38 236.787 524.844 224.716C477.808 154.094 395.856 106.953 311.062 104.17Z" fill="#F7F0EB"/>
<path d="M261.939 319.569L295.429 300.219C298.879 298.219 300.609 295.619 300.609 293.009C300.609 290.399 300.609 288.349 300.609 288.349L265.889 268.769C264.919 268.137 264.112 267.285 263.533 266.283C262.954 265.28 262.621 264.155 262.559 262.999V221.549L204.099 255.329V296.779C204.161 297.935 204.494 299.06 205.073 300.063C205.652 301.065 206.459 301.917 207.429 302.549L236.969 319.549C243.849 323.559 255.039 323.559 261.939 319.569Z" fill="#7561C1"/>
<g opacity="0.4">
<path opacity="0.4" d="M261.939 319.569L295.429 300.219C298.879 298.219 300.609 295.619 300.609 293.009C300.609 290.399 300.609 288.349 300.609 288.349L265.889 268.769C264.919 268.137 264.112 267.285 263.533 266.283C262.954 265.28 262.621 264.155 262.559 262.999V221.549L204.099 255.329V296.779C204.161 297.935 204.494 299.06 205.073 300.063C205.652 301.065 206.459 301.917 207.429 302.549L236.969 319.549C243.849 323.559 255.039 323.559 261.939 319.569Z" fill="black"/>
</g>
<path opacity="0.2" d="M218.109 304.099V308.729L207.429 302.549C206.461 301.916 205.655 301.063 205.076 300.061C204.498 299.059 204.163 297.934 204.099 296.779V255.329L215.239 248.909C215.469 251.729 215.719 254.659 215.949 257.499L208.139 262.019V294.449C208.198 295.606 208.53 296.732 209.109 297.735C209.688 298.739 210.497 299.59 211.469 300.219L218.109 304.099Z" fill="black"/>
<path d="M208.109 294.459C208.172 295.615 208.506 296.74 209.084 297.742C209.663 298.745 210.47 299.597 211.439 300.229L236.939 314.919C243.839 318.919 255.029 318.919 261.939 314.919L295.429 295.569C302.329 291.569 302.329 285.129 295.429 281.149L269.909 266.449C268.94 265.817 268.133 264.965 267.554 263.962C266.976 262.96 266.642 261.835 266.579 260.679V228.249L208.119 262.029L208.109 294.459Z" fill="#7561C1"/>
<path opacity="0.3" d="M208.109 294.459C208.172 295.615 208.506 296.74 209.084 297.742C209.663 298.745 210.47 299.597 211.439 300.229L236.939 314.919C243.839 318.919 255.029 318.919 261.939 314.919L295.429 295.569C302.329 291.569 302.329 285.129 295.429 281.149L269.909 266.449C268.94 265.817 268.133 264.965 267.554 263.962C266.976 262.96 266.642 261.835 266.579 260.679V228.249L208.119 262.029L208.109 294.459Z" fill="black"/>
<path opacity="0.1" d="M276.689 270.369L269.899 266.449C268.93 265.817 268.123 264.965 267.544 263.962C266.966 262.96 266.632 261.835 266.569 260.679V228.249L208.109 262.029V294.459C208.172 295.615 208.506 296.74 209.084 297.742C209.663 298.745 210.47 299.597 211.439 300.229L218.109 304.079L276.689 270.369Z" fill="black"/>
<path d="M300.589 288.359V293.009C300.589 295.629 298.859 298.219 295.409 300.229L261.939 319.569C258.272 321.541 254.173 322.572 250.009 322.569V317.929C254.173 317.932 258.272 316.901 261.939 314.929L295.429 295.569C298.859 293.589 300.589 290.969 300.589 288.359Z" fill="#7561C1"/>
<path opacity="0.2" d="M300.589 288.359V293.009C300.589 295.629 298.859 298.219 295.409 300.229L261.939 319.569C258.272 321.541 254.173 322.572 250.009 322.569V317.929C254.173 317.932 258.272 316.901 261.939 314.929L295.429 295.569C298.859 293.589 300.589 290.969 300.589 288.359Z" fill="black"/>
<path d="M114.249 333.579C116.409 334.819 120.019 335.709 122.319 334.389L348.429 203.869C350.729 202.539 352.599 194.509 352.599 191.869V12.9589C352.548 11.5562 352.168 10.1853 351.489 8.95699C350.809 7.72872 349.85 6.67766 348.689 5.88887C347.427 5.27929 346.038 4.97524 344.636 5.0013C343.235 5.02736 341.859 5.38278 340.619 6.03887L114.509 136.559C113.296 137.35 112.286 138.416 111.562 139.671C110.837 140.925 110.418 142.332 110.339 143.779V326.509C110.39 327.912 110.771 329.282 111.45 330.511C112.129 331.739 113.088 332.79 114.249 333.579Z" fill="#455A64"/>
<path d="M121.729 339.099C120.545 339.612 119.265 339.865 117.975 339.843C116.685 339.821 115.415 339.523 114.249 338.969C111.039 337.129 110.339 333.609 110.339 330.969V315.099L118.149 319.619V336.459C118.149 338.849 119.709 339.919 121.729 339.099Z" fill="#7561C1"/>
<path opacity="0.4" d="M121.729 339.099C120.545 339.612 119.265 339.865 117.975 339.843C116.685 339.821 115.415 339.523 114.249 338.969C111.039 337.129 110.339 333.609 110.339 330.969V315.099L118.149 319.619V336.459C118.149 338.849 119.709 339.919 121.729 339.099Z" fill="black"/>
<path d="M122.319 334.379L348.429 203.859C350.729 202.529 352.599 194.509 352.599 191.859V12.9488C352.599 10.2988 350.729 9.2188 348.429 10.5488L122.319 141.099C121.106 141.888 120.096 142.952 119.372 144.205C118.647 145.458 118.228 146.864 118.149 148.309V331.019C118.159 333.669 120.019 335.709 122.319 334.379Z" fill="#37474F"/>
<path d="M118.149 319.579V336.419C118.149 339.069 120.019 340.149 122.319 338.819L348.429 208.299C349.641 207.509 350.651 206.444 351.375 205.192C352.099 203.939 352.519 202.534 352.599 201.089V184.209L118.149 319.579Z" fill="#7561C1"/>
<path opacity="0.3" d="M118.149 319.579V336.419C118.149 339.069 120.019 340.149 122.319 338.819L348.429 208.299C349.641 207.509 350.651 206.444 351.375 205.192C352.099 203.939 352.519 202.534 352.599 201.089V184.209L118.149 319.579Z" fill="black"/>
<path d="M125.969 298.689V150.869C126.017 150.003 126.268 149.16 126.702 148.41C127.137 147.659 127.742 147.021 128.469 146.549L342.239 23.099C343.619 22.309 344.739 22.949 344.739 24.549V172.379C344.694 173.247 344.443 174.091 344.009 174.844C343.574 175.596 342.968 176.235 342.239 176.709L128.429 300.099C127.089 300.929 125.969 300.279 125.969 298.689Z" fill="#7561C1"/>
<path d="M125.969 298.689V150.869C126.017 150.003 126.268 149.16 126.702 148.41C127.137 147.659 127.742 147.021 128.469 146.549L342.239 23.099C343.619 22.309 344.739 22.949 344.739 24.549V172.379C344.694 173.247 344.443 174.091 344.009 174.844C343.574 175.596 342.968 176.235 342.239 176.709L128.429 300.099C127.089 300.929 125.969 300.279 125.969 298.689Z" fill="#7561C1"/>
<path opacity="0.5" d="M125.969 298.689V150.869C126.017 150.003 126.268 149.16 126.702 148.41C127.137 147.659 127.742 147.021 128.469 146.549L342.239 23.099C343.619 22.309 344.739 22.949 344.739 24.549V172.379C344.694 173.247 344.443 174.091 344.009 174.844C343.574 175.596 342.968 176.235 342.239 176.709L128.429 300.099C127.089 300.929 125.969 300.279 125.969 298.689Z" fill="white"/>
<path d="M235.349 257.899C234.343 258.557 233.507 259.443 232.909 260.486C232.312 261.529 231.969 262.698 231.909 263.899C231.909 266.089 233.449 266.989 235.349 265.899C236.358 265.243 237.197 264.358 237.797 263.315C238.397 262.271 238.74 261.101 238.799 259.899C238.799 257.689 237.259 256.799 235.349 257.899Z" fill="#455A64"/>
<path d="M119.429 144.159C118.687 145.41 118.265 146.825 118.199 148.279V319.579L110.339 315.099V143.779C110.395 142.324 110.818 140.907 111.569 139.659L119.429 144.159Z" fill="#263238"/>
<path d="M310.849 61.5889L151.309 153.709V286.939L150.779 287.249L149.839 287.789L147.489 289.149V151.509L307.029 59.3889L309.939 61.0689L310.849 61.5889Z" fill="#EBEBEB"/>
<path d="M310.849 61.5889V194.839L157.029 283.639L153.219 285.839L152.269 286.389L151.329 286.919L151.309 286.939V153.709L310.849 61.5889Z" fill="#F0F0F0"/>
<path d="M307.029 59.3889L310.849 61.5989L151.309 153.709L147.489 151.499L307.029 59.3889Z" fill="#FAFAFA"/>
<path d="M312.219 60.8288L310.849 61.6188L151.309 153.729L150.779 154.039V287.249L149.839 287.789V153.499L150.389 153.179L309.939 61.0688L311.289 60.2888L312.219 60.8288Z" fill="#7561C1"/>
<path opacity="0.1" d="M312.219 60.8288L310.849 61.6188L151.309 153.729L150.779 154.039V287.249L149.839 287.789V153.499L150.389 153.179L309.939 61.0688L311.289 60.2888L312.219 60.8288Z" fill="black"/>
<path d="M310.849 61.6189L151.309 153.729L150.779 154.039V287.239L151.309 286.929L152.249 286.399L153.249 285.849L157.059 283.649L310.879 194.839L312.249 194.059V60.8289L310.849 61.6189Z" fill="#7561C1"/>
<path opacity="0.05" d="M310.849 61.6189L151.309 153.729L150.779 154.039V287.239L151.309 286.929L152.249 286.399L153.249 285.849L157.059 283.649L310.879 194.839L312.249 194.059V60.8289L310.849 61.6189Z" fill="black"/>
<path d="M311.289 60.2888L312.219 60.8288L150.769 154.039L149.839 153.499L311.289 60.2888Z" fill="#7561C1"/>
<path opacity="0.4" d="M311.289 60.2888L312.219 60.8288L150.769 154.039L149.839 153.499L311.289 60.2888Z" fill="white"/>
<path d="M313.709 61.6889L312.219 62.5489L310.849 63.3489L264.239 90.2589L152.269 154.899V286.389L151.329 286.919V154.359L310.849 62.2689L312.219 61.4789L312.789 61.1489L313.709 61.6889Z" fill="#7561C1"/>
<path opacity="0.1" d="M313.709 61.6889L312.219 62.5489L310.849 63.3489L264.239 90.2589L152.269 154.899V286.389L151.329 286.919V154.359L310.849 62.2689L312.219 61.4789L312.789 61.1489L313.709 61.6889Z" fill="black"/>
<path d="M312.219 62.549L310.849 63.349L264.239 90.259L152.239 154.909V286.389L153.239 285.839L157.049 283.639L310.869 194.829L312.239 194.049L313.729 193.189V61.689L312.219 62.549Z" fill="#7561C1"/>
<path d="M312.779 61.1489L313.719 61.6889L152.269 154.909L151.339 154.359L312.779 61.1489Z" fill="#7561C1"/>
<path opacity="0.4" d="M312.779 61.1489L313.719 61.6889L152.269 154.909L151.339 154.359L312.779 61.1489Z" fill="white"/>
<path d="M316.579 64.909L313.709 66.569L312.219 67.429L310.849 68.209L157.029 157.009V283.639L153.219 285.839V154.809L310.849 63.809L312.219 63.009L312.759 62.709L313.709 63.259L316.579 64.909Z" fill="#EBEBEB"/>
<path d="M312.749 62.699L316.569 64.899L157.039 157.009L153.219 154.809L312.749 62.699Z" fill="#FAFAFA"/>
<path d="M157.039 157.009V283.619L316.579 191.509L316.569 64.9089L157.039 157.009Z" fill="#E0E0E0"/>
<path d="M327.89 159.969L316.58 64.9087L157.03 157.019L168.67 252.879C175.937 312.81 204.824 368.031 249.91 408.179L250.42 408.639L409.97 316.529C364.3 276.202 335.08 220.469 327.89 159.969Z" fill="#F5F5F5"/>
<path d="M164.709 157.649C165.809 157.019 166.709 157.529 166.709 158.799C166.672 159.492 166.471 160.167 166.124 160.768C165.776 161.37 165.292 161.88 164.709 162.259C163.599 162.899 162.709 162.379 162.709 161.109C162.747 160.415 162.947 159.741 163.295 159.139C163.643 158.538 164.127 158.027 164.709 157.649Z" fill="#37474F"/>
<path d="M159.09 141.739C156.92 140.479 154.84 140.299 153.23 141.229C151.62 142.159 150.74 144.049 150.74 146.559C150.746 147.512 150.863 148.462 151.09 149.389L152.42 148.619C152.282 147.941 152.212 147.251 152.21 146.559C152.21 144.559 152.84 143.159 153.97 142.499C155.1 141.839 156.65 142.029 158.35 143.009C160.352 144.313 162.018 146.072 163.214 148.141C164.409 150.21 165.1 152.532 165.23 154.919C165.256 155.869 165.064 156.813 164.67 157.679C164.405 158.217 163.992 158.668 163.48 158.979L163.36 159.039C163.024 159.561 162.808 160.152 162.73 160.769C163.251 160.69 163.753 160.513 164.21 160.249C165.196 159.662 165.933 158.733 166.28 157.639C166.573 156.762 166.715 155.843 166.7 154.919C166.555 152.279 165.79 149.71 164.468 147.42C163.146 145.13 161.304 143.184 159.09 141.739Z" fill="#7561C1"/>
<path d="M174.429 152.099C175.529 151.459 176.429 151.979 176.429 153.249C176.39 153.942 176.189 154.616 175.842 155.217C175.494 155.818 175.011 156.329 174.429 156.709C173.319 157.339 172.429 156.829 172.429 155.549C172.467 154.857 172.667 154.183 173.015 153.584C173.363 152.984 173.847 152.475 174.429 152.099Z" fill="#37474F"/>
<path d="M168.779 136.099C166.609 134.849 164.529 134.669 162.919 135.599C161.309 136.529 160.429 138.419 160.429 140.929C160.435 141.879 160.553 142.826 160.779 143.749L162.109 142.979C161.975 142.321 161.905 141.651 161.899 140.979C161.899 138.979 162.529 137.569 163.659 136.919C164.789 136.269 166.339 136.449 168.039 137.429C170.042 138.733 171.709 140.491 172.905 142.561C174.1 144.63 174.79 146.952 174.919 149.339C174.953 150.287 174.761 151.229 174.359 152.089C174.092 152.625 173.68 153.075 173.169 153.389L173.049 153.459C172.712 153.981 172.497 154.572 172.419 155.189C172.941 155.11 173.443 154.933 173.899 154.669C174.887 154.078 175.623 153.146 175.969 152.049C176.262 151.176 176.404 150.259 176.389 149.339C176.254 146.688 175.494 144.108 174.172 141.807C172.849 139.506 171.001 137.55 168.779 136.099Z" fill="#7561C1"/>
<path d="M184.089 146.459C185.189 145.829 186.089 146.339 186.089 147.609C186.052 148.302 185.851 148.977 185.504 149.578C185.156 150.18 184.672 150.69 184.089 151.069C182.979 151.709 182.089 151.189 182.089 149.919C182.127 149.225 182.327 148.55 182.675 147.949C183.023 147.348 183.507 146.837 184.089 146.459Z" fill="#37474F"/>
<path d="M178.429 130.549C176.259 129.289 174.179 129.109 172.569 130.039C170.959 130.969 170.079 132.859 170.079 135.369C170.085 136.323 170.203 137.272 170.429 138.199L171.759 137.429C171.622 136.751 171.551 136.061 171.549 135.369C171.549 133.369 172.179 131.969 173.309 131.309C174.439 130.649 175.989 130.839 177.689 131.819C179.692 133.123 181.358 134.882 182.554 136.951C183.749 139.02 184.44 141.342 184.569 143.729C184.601 144.68 184.41 145.625 184.009 146.489C183.742 147.025 183.33 147.475 182.819 147.789L182.699 147.849C182.368 148.374 182.153 148.964 182.069 149.579C182.592 149.505 183.095 149.328 183.549 149.059C184.534 148.47 185.27 147.542 185.619 146.449C185.913 145.573 186.055 144.653 186.039 143.729C185.895 141.089 185.13 138.52 183.808 136.23C182.486 133.94 180.644 131.994 178.429 130.549Z" fill="#7561C1"/>
<path d="M193.78 140.869C194.88 140.229 195.78 140.749 195.78 142.019C195.741 142.712 195.539 143.386 195.192 143.987C194.844 144.588 194.361 145.099 193.78 145.479C192.68 146.109 191.78 145.599 191.78 144.319C191.818 143.627 192.019 142.954 192.366 142.354C192.714 141.755 193.198 141.246 193.78 140.869Z" fill="#37474F"/>
<path d="M188.159 124.949C185.989 123.699 183.909 123.519 182.299 124.449C180.689 125.379 179.809 127.269 179.809 129.779C179.816 130.729 179.933 131.676 180.159 132.599L181.489 131.829C181.355 131.17 181.285 130.501 181.279 129.829C181.279 127.829 181.909 126.419 183.039 125.769C184.169 125.119 185.729 125.299 187.419 126.279C189.411 127.574 191.07 129.318 192.265 131.371C193.46 133.423 194.157 135.728 194.299 138.099C194.333 139.047 194.141 139.989 193.739 140.849C193.472 141.385 193.06 141.835 192.549 142.149L192.429 142.219C192.096 142.743 191.881 143.333 191.799 143.949C192.321 143.87 192.823 143.693 193.279 143.429C194.267 142.838 195.003 141.906 195.349 140.809C195.642 139.936 195.784 139.019 195.769 138.099C195.62 135.464 194.854 132.901 193.532 130.617C192.21 128.332 190.37 126.391 188.159 124.949Z" fill="#7561C1"/>
<path d="M203.429 135.269C204.529 134.639 205.429 135.149 205.429 136.419C205.392 137.112 205.191 137.787 204.844 138.388C204.496 138.99 204.012 139.5 203.429 139.879C202.329 140.519 201.429 139.999 201.429 138.729C201.469 138.036 201.671 137.362 202.018 136.761C202.365 136.16 202.849 135.649 203.429 135.269Z" fill="#37474F"/>
<path d="M197.85 119.359C195.68 118.099 193.6 117.919 191.99 118.849C190.38 119.779 189.5 121.669 189.5 124.179C189.506 125.133 189.623 126.082 189.85 127.009L191.18 126.239C191.045 125.56 190.978 124.87 190.98 124.179C190.98 122.179 191.6 120.779 192.73 120.119C193.86 119.459 195.42 119.649 197.12 120.629C199.119 121.936 200.783 123.695 201.976 125.764C203.17 127.833 203.859 130.154 203.99 132.539C204.021 133.49 203.83 134.435 203.43 135.299C203.162 135.835 202.75 136.285 202.24 136.599L202.12 136.659C201.792 137.186 201.577 137.775 201.49 138.389C202.012 138.315 202.515 138.138 202.969 137.869C203.954 137.28 204.69 136.352 205.04 135.259C205.333 134.383 205.475 133.463 205.46 132.539C205.315 129.899 204.55 127.33 203.228 125.04C201.906 122.75 200.064 120.804 197.85 119.359Z" fill="#7561C1"/>
<path d="M213.16 129.679C214.26 129.039 215.16 129.559 215.16 130.829C215.121 131.522 214.919 132.196 214.572 132.797C214.224 133.398 213.741 133.909 213.16 134.289C212.06 134.919 211.16 134.409 211.16 133.129C211.198 132.437 211.399 131.764 211.746 131.164C212.094 130.565 212.578 130.056 213.16 129.679Z" fill="#37474F"/>
<path d="M207.539 113.759C205.369 112.509 203.289 112.329 201.679 113.259C200.069 114.189 199.189 116.079 199.189 118.579C199.2 119.532 199.317 120.481 199.539 121.409L200.869 120.639C200.735 119.96 200.668 119.27 200.669 118.579C200.669 116.579 201.289 115.179 202.419 114.579C203.549 113.979 205.109 114.109 206.809 115.089C208.81 116.394 210.474 118.153 211.668 120.223C212.862 122.292 213.551 124.613 213.679 126.999C213.711 127.947 213.519 128.889 213.119 129.749C212.852 130.285 212.44 130.735 211.929 131.049L211.809 131.119C211.481 131.645 211.266 132.234 211.179 132.849C211.704 132.768 212.209 132.592 212.669 132.329C213.654 131.737 214.387 130.805 214.729 129.709C215.026 128.836 215.171 127.92 215.159 126.999C215.022 124.348 214.26 121.766 212.936 119.466C211.612 117.165 209.763 115.209 207.539 113.759Z" fill="#7561C1"/>
<path d="M222.849 124.099C223.949 123.469 224.849 123.979 224.849 125.249C224.812 125.942 224.611 126.617 224.264 127.218C223.916 127.82 223.432 128.33 222.849 128.709C221.749 129.349 220.849 128.829 220.849 127.559C220.889 126.866 221.091 126.192 221.438 125.591C221.786 124.99 222.269 124.479 222.849 124.099Z" fill="#37474F"/>
<path d="M217.23 108.169C215.06 106.909 212.98 106.729 211.37 107.659C209.76 108.589 208.88 110.479 208.88 112.989C208.89 113.942 209.008 114.892 209.23 115.819L210.56 115.049C210.43 114.37 210.363 113.68 210.36 112.989C210.36 110.989 210.98 109.589 212.11 108.929C213.24 108.269 214.8 108.459 216.5 109.439C218.499 110.746 220.163 112.505 221.356 114.574C222.55 116.643 223.239 118.964 223.37 121.349C223.401 122.3 223.21 123.245 222.81 124.109C222.542 124.645 222.13 125.095 221.62 125.409L221.5 125.469C221.171 125.995 220.956 126.584 220.87 127.199C221.395 127.123 221.901 126.946 222.36 126.679C223.339 126.098 224.075 125.181 224.43 124.099C224.726 123.223 224.872 122.303 224.86 121.379C224.716 118.732 223.951 116.156 222.625 113.861C221.299 111.566 219.451 109.615 217.23 108.169Z" fill="#7561C1"/>
<path d="M232.54 118.489C233.64 117.849 234.54 118.369 234.54 119.639C234.501 120.332 234.299 121.006 233.952 121.607C233.604 122.208 233.121 122.719 232.54 123.099C231.44 123.729 230.54 123.219 230.54 121.939C230.578 121.247 230.779 120.574 231.126 119.974C231.474 119.375 231.958 118.866 232.54 118.489Z" fill="#37474F"/>
<path d="M226.919 102.569C224.749 101.319 222.669 101.139 221.059 102.069C219.449 102.999 218.569 104.879 218.569 107.389C218.58 108.342 218.697 109.292 218.919 110.219L220.249 109.449C220.119 108.77 220.053 108.08 220.049 107.389C220.049 105.389 220.669 103.989 221.799 103.389C222.929 102.789 224.489 102.919 226.189 103.899C228.19 105.205 229.854 106.963 231.048 109.033C232.242 111.102 232.931 113.423 233.059 115.809C233.091 116.757 232.899 117.699 232.499 118.559C232.238 119.099 231.825 119.551 231.309 119.859L231.189 119.929C230.861 120.455 230.646 121.044 230.559 121.659C231.084 121.578 231.589 121.402 232.049 121.139C233.032 120.545 233.764 119.614 234.109 118.519C234.406 117.646 234.551 116.73 234.539 115.809C234.402 113.158 233.64 110.577 232.316 108.276C230.992 105.975 229.143 104.019 226.919 102.569Z" fill="#7561C1"/>
<path d="M242.229 112.889C243.329 112.259 244.229 112.769 244.229 114.039C244.192 114.732 243.991 115.407 243.644 116.008C243.296 116.61 242.812 117.12 242.229 117.499C241.129 118.139 240.229 117.619 240.229 116.349C240.269 115.656 240.471 114.982 240.818 114.381C241.166 113.78 241.649 113.269 242.229 112.889Z" fill="#37474F"/>
<path d="M236.61 96.9787C234.44 95.7187 232.36 95.5387 230.75 96.4687C229.14 97.3987 228.26 99.2887 228.26 101.799C228.271 102.752 228.388 103.701 228.61 104.629L229.94 103.859C229.81 103.18 229.743 102.49 229.74 101.799C229.74 99.7987 230.36 98.3987 231.49 97.7387C232.62 97.0787 234.18 97.2687 235.88 98.2487C237.879 99.5556 239.543 101.315 240.736 103.384C241.93 105.453 242.619 107.774 242.75 110.159C242.783 111.107 242.591 112.049 242.19 112.909C241.926 113.45 241.513 113.904 241 114.219L240.88 114.279C240.551 114.805 240.336 115.394 240.25 116.009C240.775 115.933 241.281 115.756 241.74 115.489C242.721 114.899 243.454 113.971 243.8 112.879C244.096 112.003 244.242 111.083 244.23 110.159C244.083 107.518 243.317 104.949 241.993 102.659C240.669 100.369 238.825 98.4234 236.61 96.9787Z" fill="#7561C1"/>
<path d="M251.92 107.299C253.02 106.659 253.92 107.179 253.92 108.449C253.881 109.142 253.679 109.816 253.332 110.417C252.984 111.018 252.501 111.529 251.92 111.909C250.82 112.539 249.92 112.029 249.92 110.749C249.957 110.057 250.158 109.383 250.505 108.784C250.853 108.184 251.338 107.675 251.92 107.299Z" fill="#37474F"/>
<path d="M246.299 91.3789C244.129 90.1289 242.049 89.9489 240.439 90.8789C238.829 91.8089 237.949 93.6889 237.949 96.1989C237.96 97.1523 238.077 98.1016 238.299 99.0289L239.629 98.2589C239.499 97.5798 239.433 96.8902 239.429 96.1989C239.429 94.1989 240.049 92.7989 241.179 92.1989C242.309 91.5989 243.869 91.7289 245.569 92.7089C247.561 94.0107 249.22 95.7622 250.412 97.8221C251.603 99.8821 252.294 102.193 252.429 104.569C252.461 105.517 252.269 106.459 251.869 107.319C251.602 107.855 251.19 108.305 250.679 108.619L250.559 108.689C250.231 109.215 250.016 109.804 249.929 110.419C250.454 110.338 250.959 110.162 251.419 109.899C252.404 109.305 253.139 108.374 253.489 107.279C253.777 106.405 253.919 105.489 253.909 104.569C253.765 101.927 253.002 99.3567 251.679 97.0652C250.357 94.7737 248.514 92.8257 246.299 91.3789Z" fill="#7561C1"/>
<path d="M261.609 101.699C262.709 101.069 263.609 101.579 263.609 102.849C263.572 103.542 263.371 104.217 263.024 104.818C262.676 105.42 262.192 105.93 261.609 106.309C260.509 106.949 259.609 106.429 259.609 105.159C259.648 104.466 259.85 103.791 260.197 103.19C260.545 102.589 261.028 102.078 261.609 101.699Z" fill="#37474F"/>
<path d="M255.99 85.7888C253.82 84.5288 251.74 84.3488 250.14 85.2788C248.54 86.2088 247.64 88.0988 247.64 90.6088C247.651 91.5622 247.768 92.5114 247.99 93.4388L249.32 92.6688C249.19 91.9896 249.123 91.3001 249.12 90.6088C249.12 88.6088 249.74 87.2088 250.87 86.5488C252 85.8888 253.56 86.0788 255.26 87.0588C257.259 88.3656 258.923 90.1247 260.116 92.1938C261.31 94.2628 261.999 96.5837 262.13 98.9688C262.163 99.9168 261.971 100.859 261.57 101.719C261.309 102.262 260.895 102.717 260.38 103.029L260.26 103.089C259.931 103.615 259.716 104.204 259.63 104.819C260.154 104.738 260.659 104.562 261.12 104.299C262.104 103.71 262.84 102.782 263.19 101.689C263.483 100.812 263.625 99.8927 263.61 98.9688C263.463 96.328 262.697 93.7588 261.373 91.4691C260.049 89.1794 258.205 87.2335 255.99 85.7888Z" fill="#7561C1"/>
<path d="M271.29 96.0988C272.39 95.4588 273.29 95.9788 273.29 97.2488C273.251 97.9419 273.049 98.6162 272.702 99.2172C272.354 99.8182 271.871 100.329 271.29 100.709C270.19 101.339 269.29 100.829 269.29 99.5588C269.327 98.8654 269.528 98.1905 269.875 97.5893C270.223 96.988 270.707 96.4774 271.29 96.0988Z" fill="#37474F"/>
<path d="M265.669 80.1887C263.499 78.9387 261.419 78.7587 259.809 79.6887C258.199 80.6187 257.319 82.5087 257.319 85.0187C257.331 85.9721 257.448 86.9212 257.669 87.8487L258.999 87.0787C258.87 86.3996 258.803 85.71 258.799 85.0187C258.799 83.0187 259.419 81.6087 260.549 80.9587C261.679 80.3087 263.239 80.4887 264.939 81.4687C266.939 82.7756 268.603 84.5347 269.796 86.6037C270.989 88.6728 271.679 90.9937 271.809 93.3787C271.843 94.3267 271.651 95.2692 271.249 96.1287C270.985 96.6667 270.572 97.1178 270.059 97.4287L269.939 97.4987C269.611 98.0249 269.396 98.6143 269.309 99.2287C269.834 99.1479 270.339 98.9716 270.799 98.7087C271.784 98.1146 272.519 97.1838 272.869 96.0887C273.158 95.2147 273.3 94.299 273.289 93.3787C273.143 90.7366 272.377 88.166 271.053 85.8747C269.729 83.5834 267.885 81.6356 265.669 80.1887Z" fill="#7561C1"/>
<path d="M280.979 90.5088C282.079 89.8788 282.979 90.3888 282.979 91.6688C282.942 92.3609 282.741 93.0343 282.394 93.634C282.046 94.2336 281.562 94.7424 280.979 95.1188C279.879 95.7588 278.979 95.2388 278.979 93.9688C279.018 93.2757 279.22 92.6014 279.567 92.0004C279.915 91.3994 280.398 90.8885 280.979 90.5088Z" fill="#37474F"/>
<path d="M275.36 74.5989C273.19 73.3489 271.11 73.1589 269.51 74.0889C267.91 75.0189 267.02 76.9089 267.02 79.4189C267.026 80.372 267.14 81.3213 267.36 82.2489L268.69 81.4789C268.56 80.7998 268.493 80.1102 268.49 79.4189C268.49 77.4189 269.11 76.0189 270.24 75.3589C271.37 74.6989 272.93 74.8889 274.63 75.8789C276.63 77.1846 278.295 78.9434 279.488 81.0127C280.682 83.082 281.371 85.4035 281.5 87.7889C281.531 88.7368 281.339 89.6787 280.94 90.5389C280.678 91.0792 280.265 91.5312 279.75 91.8389L279.63 91.8989C279.3 92.4286 279.086 93.0213 279 93.6389C279.523 93.5535 280.027 93.3775 280.49 93.1189C281.474 92.5256 282.21 91.5944 282.56 90.4989C282.852 89.6259 282.994 88.7095 282.98 87.7889C282.834 85.1464 282.069 82.5752 280.745 80.2837C279.421 77.9921 277.576 76.0446 275.36 74.5989Z" fill="#7561C1"/>
<path d="M290.67 84.9189C291.77 84.2789 292.67 84.7989 292.67 86.0689C292.63 86.7618 292.428 87.4358 292.081 88.0367C291.734 88.6375 291.25 89.1486 290.67 89.5289C289.57 90.1589 288.67 89.6489 288.67 88.3789C288.707 87.6854 288.908 87.0106 289.255 86.4093C289.603 85.8081 290.087 85.2974 290.67 84.9189Z" fill="#37474F"/>
<path d="M285.059 68.9987C282.879 67.7487 280.799 67.5687 279.199 68.4987C277.599 69.4287 276.709 71.3187 276.709 73.8287C276.718 74.7818 276.832 75.7309 277.049 76.6587L278.389 75.8787C278.255 75.2204 278.185 74.5506 278.179 73.8787C278.179 71.8787 278.799 70.4687 279.929 69.8187C281.059 69.1687 282.619 69.3487 284.319 70.3287C286.32 71.6351 287.985 73.3938 289.181 75.4628C290.376 77.5318 291.067 79.853 291.199 82.2387C291.227 83.1863 291.035 84.1273 290.639 84.9887C290.369 85.5256 289.953 85.976 289.439 86.2887L289.319 86.3587C288.989 86.8833 288.778 87.4738 288.699 88.0887C289.22 88.0063 289.722 87.8301 290.179 87.5687C291.164 86.9747 291.899 86.0438 292.249 84.9487C292.538 84.0748 292.68 83.1591 292.669 82.2387C292.532 79.5889 291.771 77.0089 290.448 74.7083C289.126 72.4078 287.28 70.4517 285.059 68.9987Z" fill="#7561C1"/>
<path d="M300.359 79.3188C301.459 78.6888 302.359 79.1988 302.359 80.4788C302.321 81.1707 302.12 81.8439 301.773 82.4434C301.425 83.0429 300.941 83.5519 300.359 83.9288C299.259 84.5688 298.359 84.0488 298.359 82.7788C298.398 82.0857 298.6 81.4115 298.947 80.8105C299.295 80.2095 299.778 79.6985 300.359 79.3188Z" fill="#37474F"/>
<path d="M294.749 63.4087C292.579 62.1587 290.489 61.9687 288.889 62.8987C287.289 63.8287 286.429 65.7187 286.429 68.2287C286.436 69.1818 286.55 70.1311 286.769 71.0587L288.109 70.2887C287.972 69.6106 287.901 68.9206 287.899 68.2287C287.899 66.2287 288.519 64.8287 289.649 64.1687C290.779 63.5087 292.339 63.6987 294.039 64.6887C296.041 65.9939 297.707 67.7524 298.903 69.8216C300.098 71.8908 300.789 74.2126 300.919 76.5987C300.945 77.5461 300.754 78.4869 300.359 79.3487C300.086 79.8835 299.671 80.3331 299.159 80.6487L299.039 80.7087C298.709 81.237 298.498 81.8307 298.419 82.4487C298.939 82.3618 299.44 82.1859 299.899 81.9287C300.884 81.3354 301.62 80.4042 301.969 79.3087C302.257 78.4346 302.399 77.519 302.389 76.5987C302.243 73.9543 301.475 71.3816 300.147 69.0898C298.82 66.798 296.97 64.8516 294.749 63.4087Z" fill="#7561C1"/>
<path d="M310.05 73.7287C311.15 73.0887 312.05 73.6087 312.05 74.8787C312.01 75.5716 311.808 76.2456 311.461 76.8465C311.114 77.4474 310.63 77.9584 310.05 78.3387C308.95 78.9687 308.05 78.4587 308.05 77.1887C308.087 76.4953 308.288 75.8204 308.635 75.2192C308.983 74.6179 309.467 74.1072 310.05 73.7287Z" fill="#37474F"/>
<path d="M304.429 57.8088C302.259 56.5588 300.169 56.3788 298.569 57.3088C296.969 58.2388 296.079 60.1288 296.079 62.6388C296.086 63.5925 296.204 64.5422 296.429 65.4688L297.759 64.6888C297.625 64.0305 297.555 63.3607 297.549 62.6888C297.549 60.6888 298.169 59.2788 299.299 58.6288C300.429 57.9788 301.989 58.1588 303.689 59.1388C305.69 60.4452 307.355 62.2039 308.551 64.2729C309.746 66.3419 310.437 68.6631 310.569 71.0488C310.597 71.9963 310.405 72.9373 310.009 73.7988C309.741 74.3376 309.325 74.7886 308.809 75.0988L308.689 75.1688C308.359 75.6933 308.147 76.2838 308.069 76.8988C308.59 76.8164 309.092 76.6402 309.549 76.3788C310.537 75.7883 311.273 74.8561 311.619 73.7588C311.913 72.886 312.055 71.9695 312.039 71.0488C311.904 68.3984 311.144 65.8175 309.822 63.5166C308.499 61.2157 306.651 59.2599 304.429 57.8088Z" fill="#7561C1"/>
<path opacity="0.4" d="M304.43 57.8088C302.26 56.5588 300.17 56.3788 298.57 57.3088C296.97 58.2388 296.08 60.1288 296.08 62.6388C296.084 63.2455 296.138 63.8508 296.24 64.4488C295.763 64.0812 295.262 63.747 294.74 63.4488C292.56 62.1988 290.48 62.0088 288.88 62.9388C287.28 63.8688 286.43 65.7188 286.43 68.2288C286.434 68.8388 286.488 69.4473 286.59 70.0488C286.115 69.6783 285.614 69.3441 285.09 69.0488C282.91 67.7988 280.83 67.6188 279.23 68.5488C277.63 69.4788 276.74 71.3688 276.74 73.8788C276.744 74.4855 276.798 75.0908 276.9 75.6888C276.421 75.3188 275.917 74.9846 275.39 74.6888C273.22 73.4388 271.14 73.2488 269.54 74.1788C267.94 75.1088 267.05 76.9988 267.05 79.5088C267.054 80.1188 267.108 80.7273 267.21 81.3288C266.734 80.9559 266.229 80.6215 265.7 80.3288C263.53 79.0788 261.45 78.8988 259.84 79.8288C258.23 80.7588 257.35 82.6488 257.35 85.1588C257.358 85.7624 257.415 86.3643 257.52 86.9588C257.047 86.5854 256.546 86.251 256.02 85.9588C253.85 84.6988 251.77 84.5188 250.17 85.4488C248.57 86.3788 247.67 88.2688 247.67 90.7788C247.677 91.3857 247.734 91.991 247.84 92.5888C247.361 92.2188 246.857 91.8846 246.33 91.5888C244.16 90.3388 242.08 90.1588 240.47 91.0888C238.86 92.0188 237.98 93.8988 237.98 96.4088C237.988 97.019 238.045 97.6276 238.15 98.2288C237.676 97.8523 237.171 97.5177 236.64 97.2288C234.47 95.9688 232.39 95.7888 230.78 96.7188C229.17 97.6488 228.29 99.5388 228.29 102.049C228.297 102.656 228.354 103.261 228.46 103.859C227.981 103.489 227.477 103.155 226.95 102.859C224.78 101.609 222.7 101.429 221.09 102.359C219.48 103.289 218.6 105.169 218.6 107.679C218.607 108.289 218.664 108.898 218.77 109.499C218.294 109.126 217.789 108.791 217.26 108.499C215.09 107.239 213.01 107.059 211.4 107.989C209.79 108.919 208.91 110.809 208.91 113.319C208.917 113.926 208.974 114.531 209.08 115.129C208.601 114.759 208.097 114.425 207.57 114.129C205.4 112.879 203.32 112.699 201.71 113.629C200.1 114.559 199.22 116.449 199.22 118.949C199.227 119.559 199.284 120.168 199.39 120.769C198.914 120.396 198.409 120.061 197.88 119.769C195.71 118.509 193.63 118.329 192.02 119.259C190.41 120.189 189.53 122.079 189.53 124.589C189.537 125.196 189.594 125.801 189.7 126.399C189.221 126.029 188.717 125.695 188.19 125.399C186.02 124.149 183.94 123.969 182.33 124.899C180.72 125.829 179.84 127.719 179.84 130.229C179.848 130.836 179.905 131.441 180.01 132.039C179.534 131.666 179.029 131.331 178.5 131.039C176.33 129.779 174.25 129.599 172.64 130.529C171.03 131.459 170.15 133.349 170.15 135.859C170.157 136.466 170.214 137.071 170.32 137.669C169.841 137.299 169.337 136.965 168.81 136.669C166.64 135.419 164.56 135.239 162.95 136.169C161.34 137.099 160.46 138.989 160.46 141.499C160.468 142.106 160.525 142.711 160.63 143.309C160.154 142.936 159.649 142.601 159.12 142.309C156.95 141.049 154.87 140.869 153.26 141.799C151.65 142.729 150.77 144.619 150.77 147.129C150.776 148.083 150.893 149.032 151.12 149.959L152.45 149.189C152.312 148.511 152.242 147.821 152.24 147.129C152.24 145.129 152.87 143.729 154 143.069C155.13 142.409 156.68 142.599 158.38 143.579C160.382 144.883 162.048 146.642 163.244 148.711C164.439 150.78 165.13 153.103 165.26 155.489C165.286 156.439 165.094 157.383 164.7 158.249C164.435 158.787 164.022 159.238 163.51 159.549L163.39 159.609C163.054 160.131 162.838 160.722 162.76 161.339C163.281 161.26 163.783 161.083 164.24 160.819C165.226 160.232 165.963 159.303 166.31 158.209C166.603 157.333 166.745 156.413 166.73 155.489C166.73 151.559 164.49 146.929 161.4 144.019L162.14 143.589C162.005 142.93 161.935 142.261 161.93 141.589C161.93 139.589 162.56 138.179 163.69 137.529C164.82 136.879 166.37 137.059 168.07 138.039C170.072 139.343 171.739 141.101 172.935 143.17C174.13 145.24 174.821 147.562 174.95 149.949C174.983 150.897 174.791 151.839 174.39 152.699C174.122 153.235 173.71 153.685 173.2 153.999L173.08 154.069C172.742 154.591 172.527 155.182 172.45 155.799C172.971 155.72 173.473 155.543 173.93 155.279C174.917 154.688 175.653 153.756 176 152.659C176.292 151.786 176.434 150.869 176.42 149.949C176.42 146.019 174.18 141.379 171.09 138.479L171.83 138.049C171.692 137.371 171.622 136.681 171.62 135.989C171.62 133.989 172.25 132.589 173.38 131.929C174.51 131.269 176.06 131.459 177.76 132.439C179.762 133.743 181.428 135.502 182.624 137.571C183.819 139.64 184.51 141.963 184.64 144.349C184.671 145.3 184.48 146.245 184.08 147.109C183.812 147.645 183.4 148.095 182.89 148.409L182.77 148.469C182.436 148.993 182.221 149.583 182.14 150.199C182.662 150.125 183.165 149.948 183.62 149.679C184.604 149.09 185.341 148.162 185.69 147.069C185.983 146.193 186.125 145.273 186.11 144.349C186.11 140.419 183.87 135.789 180.78 132.879L181.52 132.449C181.385 131.79 181.315 131.121 181.31 130.449C181.31 128.449 181.94 127.039 183.07 126.389C184.2 125.739 185.76 125.919 187.45 126.899C189.356 128.134 190.962 129.782 192.147 131.721C193.333 133.659 194.068 135.838 194.3 138.099C194.333 139.047 194.141 139.989 193.74 140.849C193.472 141.385 193.06 141.835 192.55 142.149L192.43 142.219C192.096 142.743 191.881 143.333 191.8 143.949C192.321 143.87 192.823 143.693 193.28 143.429C194.267 142.838 195.003 141.906 195.35 140.809C195.642 139.936 195.784 139.019 195.77 138.099C195.77 134.169 193.53 129.529 190.44 126.629L191.18 126.199C191.045 125.52 190.978 124.83 190.98 124.139C190.98 122.139 191.6 120.739 192.73 120.079C193.86 119.419 195.42 119.609 197.11 120.589C199.112 121.893 200.778 123.652 201.974 125.721C203.169 127.79 203.86 130.113 203.99 132.499C204.021 133.45 203.83 134.395 203.43 135.259C203.162 135.795 202.75 136.245 202.24 136.559L202.12 136.619C201.791 137.145 201.576 137.734 201.49 138.349C202.015 138.273 202.521 138.096 202.98 137.829C203.959 137.236 204.691 136.309 205.04 135.219C205.336 134.343 205.482 133.423 205.47 132.499C205.47 128.569 203.22 123.939 200.13 121.029L200.87 120.599C200.735 119.92 200.668 119.23 200.67 118.539C200.67 116.539 201.29 115.139 202.42 114.539C203.55 113.939 205.11 114.069 206.81 115.049C208.81 116.354 210.475 118.113 211.668 120.183C212.862 122.252 213.551 124.573 213.68 126.959C213.711 127.907 213.519 128.849 213.12 129.709C212.852 130.245 212.44 130.695 211.93 131.009L211.81 131.079C211.481 131.605 211.266 132.194 211.18 132.809C211.704 132.728 212.209 132.552 212.67 132.289C213.654 131.697 214.387 130.765 214.73 129.669C215.026 128.796 215.171 127.88 215.16 126.959C215.16 123.029 212.91 118.389 209.82 115.489L210.56 115.059C210.43 114.38 210.363 113.69 210.36 112.999C210.36 110.999 210.98 109.599 212.11 108.939C213.24 108.279 214.8 108.469 216.5 109.449C218.499 110.756 220.163 112.515 221.356 114.584C222.55 116.653 223.239 118.974 223.37 121.359C223.401 122.31 223.21 123.255 222.81 124.119C222.542 124.655 222.13 125.105 221.62 125.419L221.5 125.479C221.171 126.005 220.956 126.594 220.87 127.209C221.395 127.133 221.901 126.956 222.36 126.689C223.341 126.106 224.077 125.185 224.43 124.099C224.726 123.223 224.872 122.303 224.86 121.379C224.86 117.449 222.61 112.819 219.52 109.909L220.26 109.479C220.13 108.8 220.063 108.11 220.06 107.419C220.06 105.419 220.68 104.019 221.81 103.419C222.94 102.819 224.5 102.949 226.2 103.929C228.2 105.235 229.865 106.993 231.058 109.063C232.252 111.132 232.941 113.453 233.07 115.839C233.101 116.787 232.909 117.729 232.51 118.589C232.248 119.129 231.835 119.581 231.32 119.889L231.2 119.959C230.871 120.485 230.656 121.074 230.57 121.689C231.094 121.608 231.599 121.432 232.06 121.169C233.042 120.575 233.774 119.644 234.12 118.549C234.416 117.676 234.561 116.76 234.55 115.839C234.55 111.909 232.3 107.269 229.21 104.369L229.95 103.939C229.82 103.26 229.753 102.57 229.75 101.879C229.75 99.8788 230.37 98.4788 231.5 97.8188C232.63 97.1588 234.19 97.3488 235.89 98.3288C237.889 99.6357 239.553 101.395 240.746 103.464C241.94 105.533 242.629 107.854 242.76 110.239C242.793 111.187 242.601 112.129 242.2 112.989C241.936 113.53 241.523 113.984 241.01 114.299L240.89 114.359C240.561 114.885 240.346 115.474 240.26 116.089C240.785 116.013 241.291 115.836 241.75 115.569C242.731 114.979 243.464 114.051 243.81 112.959C244.106 112.083 244.252 111.163 244.24 110.239C244.24 106.309 241.99 101.679 238.9 98.7688L239.64 98.3388C239.51 97.6598 239.443 96.9702 239.44 96.2788C239.44 94.2788 240.06 92.8788 241.19 92.2788C242.32 91.6788 243.88 91.8088 245.58 92.7888C247.559 94.0838 249.209 95.8231 250.399 97.8682C251.588 99.9132 252.283 102.208 252.43 104.569C252.461 105.517 252.269 106.459 251.87 107.319C251.602 107.855 251.19 108.305 250.68 108.619L250.56 108.689C250.231 109.215 250.016 109.804 249.93 110.419C250.454 110.338 250.959 110.162 251.42 109.899C252.404 109.305 253.139 108.374 253.49 107.279C253.777 106.405 253.919 105.489 253.91 104.569C253.91 100.639 251.66 95.9988 248.57 93.0988L249.31 92.6688C249.18 91.9897 249.113 91.3001 249.11 90.6088C249.11 88.6088 249.73 87.2088 250.86 86.5488C251.99 85.8888 253.55 86.0788 255.25 87.0588C257.249 88.3657 258.913 90.1248 260.106 92.1938C261.3 94.2629 261.989 96.5838 262.12 98.9688C262.153 99.9169 261.961 100.859 261.56 101.719C261.299 102.262 260.885 102.717 260.37 103.029L260.25 103.089C259.921 103.615 259.706 104.204 259.62 104.819C260.144 104.738 260.649 104.562 261.11 104.299C262.094 103.71 262.831 102.782 263.18 101.689C263.473 100.813 263.615 99.8927 263.6 98.9688C263.6 95.0388 261.35 90.3988 258.26 87.4988L258.99 87.0788C258.86 86.3997 258.793 85.7101 258.79 85.0188C258.79 83.0188 259.41 81.6088 260.54 80.9588C261.67 80.3088 263.23 80.4888 264.93 81.4688C266.929 82.7757 268.593 84.5348 269.786 86.6038C270.98 88.6729 271.669 90.9938 271.8 93.3788C271.833 94.3269 271.641 95.2693 271.24 96.1288C270.975 96.6669 270.562 97.118 270.05 97.4288L269.93 97.4988C269.601 98.025 269.386 98.6144 269.3 99.2288C269.824 99.148 270.329 98.9717 270.79 98.7088C271.774 98.1148 272.509 97.1839 272.86 96.0888C273.148 95.2148 273.29 94.2991 273.28 93.3788C273.28 89.4488 271.03 84.8088 267.94 81.9088L268.68 81.4788C268.55 80.7997 268.483 80.1101 268.48 79.4188C268.48 77.4188 269.1 76.0188 270.23 75.3588C271.36 74.6988 272.92 74.8888 274.62 75.8788C276.62 77.1845 278.285 78.9433 279.478 81.0126C280.672 83.0819 281.361 85.4034 281.49 87.7888C281.521 88.7367 281.329 89.6786 280.93 90.5388C280.668 91.0791 280.255 91.5311 279.74 91.8388L279.62 91.8988C279.29 92.4285 279.076 93.0212 278.99 93.6388C279.513 93.5534 280.017 93.3774 280.48 93.1188C281.464 92.5255 282.2 91.5943 282.55 90.4988C282.842 89.6258 282.984 88.7094 282.97 87.7888C282.97 83.8488 280.72 79.2188 277.63 76.3188L278.38 75.8788C278.245 75.2205 278.175 74.5507 278.17 73.8788C278.17 71.8788 278.79 70.4688 279.92 69.8188C281.05 69.1688 282.61 69.3488 284.31 70.3288C286.31 71.6352 287.975 73.3939 289.171 75.4629C290.366 77.5319 291.057 79.8531 291.19 82.2388C291.217 83.1863 291.025 84.1273 290.63 84.9888C290.359 85.5257 289.943 85.976 289.43 86.2888L289.31 86.3588C288.979 86.8834 288.768 87.4738 288.69 88.0888C289.21 88.0064 289.712 87.8302 290.17 87.5688C291.154 86.9748 291.889 86.0439 292.24 84.9488C292.528 84.0748 292.67 83.1591 292.66 82.2388C292.66 78.3088 290.41 73.6688 287.32 70.7688L288.07 70.3388C287.932 69.6607 287.862 68.9707 287.86 68.2788C287.86 66.2788 288.48 64.8788 289.61 64.2188C290.74 63.5588 292.3 63.7488 294 64.7388C296.001 66.044 297.667 67.8025 298.863 69.8717C300.058 71.9409 300.749 74.2627 300.88 76.6488C300.906 77.5962 300.714 78.537 300.32 79.3988C300.046 79.9336 299.631 80.3832 299.12 80.6988L299 80.7588C298.669 81.287 298.458 81.8807 298.38 82.4988C298.899 82.4119 299.4 82.236 299.86 81.9788C300.844 81.3855 301.58 80.4543 301.93 79.3588C302.217 78.4847 302.359 77.5691 302.35 76.6488C302.35 72.7088 300.1 68.0788 297.01 65.1688L297.76 64.7388C297.625 64.0805 297.555 63.4107 297.55 62.7388C297.55 60.7388 298.17 59.3288 299.3 58.6788C300.43 58.0288 301.99 58.2088 303.69 59.1888C305.69 60.4952 307.355 62.2539 308.551 64.3229C309.746 66.3919 310.437 68.7131 310.57 71.0988C310.597 72.0463 310.405 72.9873 310.01 73.8488C309.741 74.3876 309.325 74.8386 308.81 75.1488L308.69 75.2188C308.359 75.7434 308.148 76.3338 308.07 76.9488C308.59 76.8664 309.092 76.6902 309.55 76.4288C310.537 75.8383 311.273 74.9061 311.62 73.8088C311.913 72.936 312.055 72.0195 312.04 71.0988C311.912 68.4398 311.156 65.8489 309.833 63.5387C308.51 61.2285 306.658 59.2648 304.43 57.8088Z" fill="black"/>
<path d="M173.649 169.639L304.929 93.8488C307.219 92.5288 309.329 93.5788 309.639 96.2088L311.819 114.209C311.916 115.612 311.635 117.015 311.005 118.272C310.376 119.53 309.421 120.596 308.239 121.359L177.009 197.039C174.719 198.359 172.599 197.299 172.279 194.679L170.079 176.789C169.979 175.386 170.257 173.983 170.885 172.725C171.513 171.467 172.468 170.401 173.649 169.639Z" fill="#7561C1"/>
<path d="M185.359 183.909L183.629 185.269L181.239 173.679L180.709 185.239L181.939 184.829L181.859 186.059L178.429 188.099L178.509 186.859L179.639 185.919L180.179 173.769L179.029 174.069L179.109 172.879L182.669 170.829L184.799 181.449L187.169 168.229L190.699 166.229L190.619 167.469L189.619 168.329L189.889 180.049L191.099 179.629L191.019 180.859L186.959 183.099L187.039 181.869L188.169 180.939L187.929 169.539L185.359 183.909Z" fill="#FAFAFA"/>
<path d="M193.239 184.339C192.469 184.779 191.949 184.469 191.949 183.559C191.92 183.079 192.012 182.6 192.217 182.165C192.421 181.729 192.732 181.353 193.119 181.069L193.299 181.659C193.429 182.069 193.569 182.409 193.909 182.209C194.249 182.009 194.459 181.389 194.679 180.519L195.249 178.329L194.889 178.539C194.339 178.859 193.979 178.659 193.639 178.009C193.031 176.17 192.78 174.232 192.899 172.299V170.689C192.899 170.239 192.799 170.149 192.599 170.269C192.337 170.464 192.102 170.692 191.899 170.949L191.679 169.949C192.152 169.288 192.742 168.718 193.419 168.269C194.359 167.729 194.649 168.389 194.649 169.509C194.649 169.989 194.649 170.509 194.649 171.109C194.571 172.792 194.743 174.477 195.159 176.109C195.319 176.629 195.499 176.609 195.689 176.499H195.749L197.219 170.149C197.509 168.909 197.359 168.699 196.899 168.709H196.429C196.335 168.201 196.386 167.676 196.575 167.196C196.764 166.715 197.084 166.297 197.499 165.989C198.179 165.599 198.619 165.989 198.619 167.169C198.488 168.889 198.179 170.592 197.699 172.249L195.959 179.249C195.329 181.609 194.739 183.469 193.239 184.339Z" fill="#FAFAFA"/>
<path d="M203.88 172.649L204.23 158.499L203.13 158.689L203.21 157.499L205.63 156.099L205.85 156.199L205.68 163.299L205.27 168.509H205.38L205.89 165.299C206.41 162.009 206.99 160.409 208.31 159.649C209.79 158.789 210.45 160.249 210.45 163.039C210.45 167.449 209 170.699 206.85 171.939C205.957 172.476 204.919 172.724 203.88 172.649ZM206.33 167.649L205.81 170.649C205.98 170.694 206.158 170.7 206.331 170.667C206.504 170.634 206.668 170.563 206.81 170.459C208.09 169.719 208.58 166.809 208.58 164.249C208.58 162.949 208.58 161.349 207.95 161.709C207.32 162.069 207.02 163.619 206.33 167.639V167.649Z" fill="#FAFAFA"/>
<path d="M211.75 153.719L211.859 152.509L214.329 151.099L214.549 151.209L214.25 165.139C214.25 165.719 214.299 165.999 214.609 165.819C214.911 165.578 215.157 165.274 215.329 164.929L215.65 165.769C215.219 166.621 214.592 167.358 213.82 167.919C212.97 168.419 212.49 167.999 212.53 166.469L212.87 153.529L211.75 153.719Z" fill="#FAFAFA"/>
<path d="M219.97 152.909C222.04 151.709 222.97 153.369 222.97 156.519C222.97 159.669 221.97 163.189 219.56 164.589C217.61 165.709 216.56 164.249 216.56 161.049C216.56 157.849 217.43 154.369 219.97 152.909ZM221.14 157.559C221.14 155.259 220.92 153.759 219.89 154.349C218.62 155.079 218.42 157.629 218.42 159.999C218.42 162.369 218.7 163.669 219.69 163.099C220.9 162.399 221.14 160.099 221.14 157.559Z" fill="#FAFAFA"/>
<path d="M229.319 153.099L229.029 154.859C228.439 158.419 227.929 159.769 226.729 160.459C225.169 161.359 224.489 159.639 224.489 157.119C224.489 153.119 225.799 149.569 227.809 148.409C228.32 148.103 228.904 147.941 229.499 147.939L230.419 146.879L230.969 146.779L230.749 156.149C230.659 159.709 229.329 163.549 226.609 165.149C225.519 165.779 224.379 165.759 224.379 164.219C224.353 163.798 224.43 163.378 224.605 162.994C224.779 162.61 225.045 162.275 225.379 162.019C225.517 161.927 225.682 161.884 225.847 161.897C226.012 161.91 226.167 161.977 226.289 162.089L226.159 162.709C225.939 163.769 226.089 164.109 226.809 163.709C228.239 162.889 228.999 160.549 229.169 157.209L229.389 153.119L229.319 153.099ZM228.669 152.379L229.139 149.549C228.971 149.499 228.793 149.488 228.62 149.518C228.446 149.547 228.282 149.616 228.139 149.719C226.849 150.459 226.339 153.189 226.339 156.089C226.339 157.969 226.419 158.919 227.029 158.569C227.639 158.219 227.919 156.949 228.669 152.349V152.379Z" fill="#FAFAFA"/>
<path d="M305.039 107.979V108.189C305.108 109.171 304.911 110.153 304.469 111.033C304.028 111.912 303.358 112.657 302.529 113.189L240.809 148.789C240.502 149.02 240.135 149.16 239.751 149.192C239.367 149.224 238.982 149.148 238.64 148.972C238.298 148.795 238.012 148.526 237.816 148.195C237.619 147.864 237.52 147.484 237.529 147.099V146.919C237.463 145.938 237.66 144.958 238.1 144.079C238.539 143.2 239.205 142.454 240.029 141.919L301.759 106.289C302.067 106.058 302.434 105.918 302.818 105.886C303.202 105.853 303.587 105.93 303.929 106.106C304.271 106.282 304.557 106.552 304.753 106.883C304.95 107.214 305.049 107.594 305.039 107.979Z" fill="#FAFAFA"/>
<path d="M297.43 116.149L302.55 113.149C303.378 112.617 304.048 111.872 304.489 110.992C304.931 110.113 305.128 109.131 305.06 108.149V107.939C305.066 107.553 304.964 107.173 304.764 106.843C304.565 106.513 304.276 106.245 303.931 106.072C303.586 105.899 303.2 105.826 302.816 105.863C302.431 105.899 302.065 106.043 301.76 106.279L296.64 109.279L297.43 116.149Z" fill="#455A64"/>
<path opacity="0.4" d="M203.769 190.709C203.812 191.402 203.667 192.093 203.35 192.71C203.034 193.328 202.557 193.849 201.969 194.219L176.229 209.099C176.017 209.267 175.762 209.372 175.492 209.403C175.223 209.433 174.95 209.388 174.706 209.271C174.461 209.154 174.254 208.971 174.108 208.743C173.962 208.515 173.883 208.25 173.879 207.979C173.834 207.287 173.976 206.595 174.291 205.978C174.607 205.36 175.083 204.838 175.669 204.469L201.429 189.589C201.641 189.42 201.896 189.313 202.165 189.282C202.434 189.251 202.707 189.297 202.951 189.414C203.196 189.531 203.402 189.715 203.547 189.944C203.692 190.173 203.769 190.438 203.769 190.709Z" fill="#455A64"/>
<path opacity="0.4" d="M263.549 156.199C263.591 156.891 263.445 157.582 263.129 158.2C262.812 158.817 262.336 159.338 261.749 159.709L211.079 188.959C210.867 189.127 210.611 189.232 210.342 189.263C210.073 189.293 209.8 189.248 209.556 189.131C209.311 189.014 209.104 188.831 208.958 188.603C208.812 188.375 208.733 188.11 208.729 187.839C208.687 187.146 208.832 186.455 209.149 185.837C209.465 185.22 209.942 184.699 210.529 184.329L261.199 155.099C261.411 154.932 261.664 154.826 261.932 154.795C262.2 154.764 262.471 154.808 262.715 154.922C262.959 155.036 263.166 155.216 263.314 155.442C263.461 155.667 263.543 155.93 263.549 156.199Z" fill="#455A64"/>
<path opacity="0.4" d="M311.549 130.959L270.859 154.449C270.647 154.617 270.392 154.722 270.122 154.753C269.853 154.783 269.58 154.738 269.336 154.621C269.091 154.504 268.884 154.321 268.738 154.093C268.592 153.865 268.513 153.6 268.509 153.329C268.467 152.636 268.612 151.945 268.929 151.327C269.245 150.71 269.722 150.189 270.31 149.819L311.019 126.309C311.232 126.139 311.488 126.033 311.758 126.002C312.028 125.971 312.301 126.018 312.546 126.136C312.79 126.254 312.997 126.439 313.141 126.67C313.285 126.9 313.361 127.167 313.359 127.439C313.399 128.134 313.253 128.827 312.934 129.446C312.616 130.064 312.138 130.587 311.549 130.959Z" fill="#455A64"/>
<path opacity="0.4" d="M195.22 207.519C195.262 208.211 195.117 208.903 194.8 209.52C194.484 210.138 194.007 210.659 193.42 211.029L177.63 220.099C177.416 220.27 177.159 220.379 176.888 220.414C176.616 220.449 176.34 220.409 176.09 220.297C175.84 220.185 175.626 220.007 175.47 219.782C175.315 219.556 175.225 219.292 175.21 219.019C175.151 218.336 175.282 217.65 175.587 217.036C175.892 216.423 176.36 215.905 176.94 215.539L192.86 206.359C193.075 206.185 193.335 206.077 193.609 206.046C193.884 206.016 194.162 206.064 194.41 206.186C194.657 206.308 194.865 206.498 195.009 206.734C195.152 206.97 195.226 207.242 195.22 207.519Z" fill="#455A64"/>
<path opacity="0.4" d="M244.969 178.789C245.012 179.48 244.868 180.171 244.553 180.788C244.238 181.405 243.764 181.927 243.179 182.299L202.529 205.769C202.318 205.941 202.062 206.05 201.791 206.083C201.521 206.115 201.246 206.07 201 205.953C200.754 205.835 200.546 205.651 200.401 205.42C200.255 205.189 200.179 204.922 200.179 204.649C200.137 203.957 200.281 203.267 200.596 202.65C200.911 202.033 201.385 201.511 201.969 201.139L242.609 177.679C242.821 177.508 243.077 177.4 243.347 177.368C243.617 177.336 243.891 177.38 244.137 177.496C244.383 177.611 244.591 177.794 244.739 178.023C244.886 178.251 244.966 178.517 244.969 178.789Z" fill="#455A64"/>
<path opacity="0.4" d="M312.949 142.019L252.289 177.019C252.076 177.19 251.819 177.298 251.547 177.33C251.275 177.362 251 177.316 250.753 177.198C250.506 177.079 250.298 176.894 250.152 176.662C250.007 176.431 249.929 176.162 249.929 175.889C249.889 175.196 250.035 174.506 250.352 173.889C250.668 173.272 251.144 172.75 251.729 172.379L312.289 137.379C312.504 137.21 312.76 137.103 313.031 137.07C313.302 137.037 313.577 137.079 313.826 137.191C314.074 137.304 314.287 137.483 314.441 137.708C314.595 137.933 314.685 138.196 314.699 138.469C314.769 139.165 314.642 139.867 314.333 140.494C314.023 141.122 313.544 141.65 312.949 142.019Z" fill="#455A64"/>
<path opacity="0.4" d="M216.43 206.909C216.473 207.603 216.328 208.296 216.012 208.915C215.695 209.534 215.218 210.057 214.63 210.429L179.04 230.979C178.826 231.147 178.573 231.256 178.304 231.294C178.035 231.333 177.761 231.3 177.509 231.198C177.258 231.097 177.037 230.93 176.87 230.716C176.704 230.502 176.596 230.248 176.56 229.979C176.479 229.308 176.593 228.628 176.887 228.02C177.181 227.413 177.644 226.902 178.22 226.549L214.08 205.839C214.289 205.673 214.54 205.568 214.805 205.535C215.07 205.503 215.339 205.544 215.582 205.655C215.825 205.765 216.033 205.941 216.182 206.162C216.332 206.384 216.417 206.642 216.43 206.909Z" fill="#455A64"/>
<path opacity="0.4" d="M281.089 169.549C281.136 170.242 280.994 170.935 280.679 171.555C280.364 172.175 279.887 172.698 279.299 173.069L224.299 204.809C224.087 204.977 223.831 205.082 223.562 205.113C223.293 205.143 223.02 205.097 222.776 204.981C222.531 204.864 222.324 204.681 222.178 204.453C222.032 204.225 221.953 203.96 221.949 203.689C221.908 202.995 222.052 202.302 222.369 201.683C222.686 201.064 223.162 200.541 223.749 200.169L278.749 168.429C278.962 168.263 279.217 168.16 279.484 168.132C279.752 168.103 280.023 168.149 280.266 168.265C280.509 168.382 280.714 168.563 280.86 168.79C281.005 169.017 281.085 169.279 281.089 169.549Z" fill="#455A64"/>
<path opacity="0.4" d="M314.309 152.859L288.409 167.859C288.197 168.03 287.941 168.138 287.67 168.17C287.399 168.202 287.124 168.157 286.878 168.04C286.631 167.923 286.423 167.739 286.276 167.509C286.13 167.278 286.051 167.012 286.049 166.739C286.009 166.045 286.154 165.353 286.47 164.734C286.787 164.115 287.263 163.592 287.849 163.219L313.519 148.399C313.737 148.232 313.994 148.126 314.266 148.092C314.538 148.058 314.814 148.097 315.065 148.205C315.317 148.313 315.535 148.486 315.698 148.706C315.86 148.927 315.961 149.186 315.989 149.459C316.056 150.126 315.934 150.798 315.637 151.4C315.34 152.001 314.88 152.506 314.309 152.859Z" fill="#455A64"/>
<path opacity="0.4" d="M237.59 206.099C237.635 206.791 237.493 207.482 237.178 208.1C236.863 208.718 236.386 209.239 235.8 209.609L180.33 241.609C180.112 241.777 179.854 241.885 179.582 241.924C179.309 241.963 179.032 241.93 178.776 241.829C178.52 241.729 178.295 241.563 178.122 241.349C177.949 241.135 177.834 240.88 177.79 240.609C177.69 239.946 177.79 239.269 178.074 238.662C178.359 238.055 178.816 237.546 179.39 237.199L235.23 204.959C235.443 204.787 235.702 204.678 235.974 204.647C236.247 204.616 236.523 204.663 236.77 204.782C237.018 204.901 237.226 205.089 237.371 205.322C237.516 205.555 237.592 205.824 237.59 206.099Z" fill="#455A64"/>
<path opacity="0.4" d="M267.43 188.849C267.474 189.541 267.331 190.232 267.016 190.849C266.701 191.467 266.226 191.988 265.64 192.359L244.88 204.359C244.668 204.531 244.412 204.64 244.141 204.673C243.871 204.705 243.596 204.66 243.35 204.543C243.104 204.425 242.896 204.241 242.751 204.01C242.605 203.779 242.529 203.512 242.53 203.239C242.485 202.547 242.628 201.856 242.943 201.238C243.258 200.621 243.733 200.099 244.32 199.729L265.07 187.729C265.282 187.558 265.538 187.45 265.809 187.418C266.08 187.386 266.355 187.431 266.601 187.548C266.848 187.665 267.056 187.849 267.203 188.079C267.349 188.309 267.428 188.576 267.43 188.849Z" fill="#455A64"/>
<path opacity="0.4" d="M315.649 163.499L275.429 186.739C275.217 186.907 274.961 187.012 274.692 187.043C274.423 187.073 274.15 187.028 273.906 186.911C273.661 186.794 273.454 186.611 273.308 186.383C273.162 186.155 273.083 185.89 273.079 185.619C273.034 184.925 273.177 184.233 273.492 183.613C273.807 182.994 274.283 182.471 274.869 182.099L314.769 159.099C314.986 158.93 315.243 158.821 315.515 158.782C315.787 158.743 316.064 158.776 316.32 158.877C316.575 158.978 316.8 159.144 316.972 159.358C317.143 159.572 317.256 159.828 317.299 160.099C317.386 160.765 317.276 161.441 316.983 162.046C316.69 162.65 316.226 163.155 315.649 163.499Z" fill="#455A64"/>
<path opacity="0.4" d="M189.209 246.099C189.265 246.786 189.131 247.476 188.823 248.093C188.514 248.71 188.043 249.23 187.459 249.599L181.869 252.829C181.645 252.996 181.382 253.104 181.105 253.143C180.828 253.181 180.546 253.149 180.284 253.049C180.023 252.95 179.791 252.785 179.61 252.572C179.429 252.359 179.305 252.103 179.249 251.829C179.133 251.178 179.217 250.507 179.49 249.906C179.763 249.304 180.213 248.799 180.779 248.459L186.779 244.969C186.995 244.788 187.258 244.673 187.536 244.636C187.815 244.6 188.099 244.643 188.354 244.762C188.608 244.88 188.824 245.069 188.976 245.306C189.128 245.542 189.209 245.818 189.209 246.099Z" fill="#455A64"/>
<path opacity="0.4" d="M216.429 230.439C216.486 231.124 216.354 231.812 216.047 232.427C215.74 233.042 215.271 233.562 214.689 233.929L196.689 244.329C196.476 244.501 196.219 244.611 195.947 244.646C195.675 244.681 195.398 244.64 195.148 244.527C194.898 244.414 194.685 244.234 194.531 244.006C194.378 243.779 194.291 243.513 194.279 243.239C194.224 242.553 194.357 241.864 194.666 241.249C194.975 240.633 195.446 240.115 196.029 239.749L214.029 229.339C214.242 229.165 214.5 229.054 214.773 229.019C215.045 228.984 215.322 229.026 215.572 229.141C215.822 229.255 216.035 229.438 216.187 229.667C216.338 229.897 216.422 230.164 216.429 230.439Z" fill="#455A64"/>
<path opacity="0.4" d="M253.76 208.859C253.825 209.539 253.699 210.224 253.397 210.837C253.095 211.45 252.629 211.966 252.05 212.329L223.79 228.639C223.575 228.808 223.319 228.915 223.048 228.948C222.777 228.981 222.502 228.939 222.253 228.826C222.005 228.714 221.792 228.535 221.638 228.31C221.484 228.085 221.394 227.821 221.38 227.549C221.331 226.869 221.469 226.189 221.777 225.582C222.085 224.974 222.553 224.461 223.13 224.099L251.34 207.819C251.552 207.652 251.804 207.546 252.072 207.511C252.339 207.476 252.611 207.514 252.858 207.62C253.106 207.727 253.32 207.898 253.479 208.116C253.638 208.334 253.734 208.591 253.76 208.859Z" fill="#455A64"/>
<path opacity="0.4" d="M205.95 249.439C206.032 250.109 205.921 250.788 205.628 251.396C205.336 252.004 204.874 252.515 204.3 252.869L183.93 264.629C183.706 264.797 183.444 264.908 183.167 264.951C182.89 264.994 182.607 264.969 182.342 264.877C182.077 264.785 181.839 264.63 181.649 264.424C181.458 264.219 181.321 263.97 181.25 263.699C181.116 263.061 181.186 262.398 181.45 261.802C181.714 261.206 182.158 260.709 182.72 260.379L203.46 248.379C203.678 248.21 203.937 248.102 204.21 248.067C204.484 248.032 204.762 248.07 205.016 248.178C205.269 248.286 205.49 248.46 205.654 248.682C205.818 248.903 205.92 249.165 205.95 249.439Z" fill="#455A64"/>
<path opacity="0.4" d="M235.819 232.199C235.904 232.866 235.794 233.544 235.503 234.15C235.212 234.757 234.753 235.267 234.179 235.619L221.479 242.949L213.609 247.489C213.395 247.658 213.139 247.768 212.868 247.808C212.597 247.847 212.32 247.815 212.066 247.713C211.811 247.612 211.588 247.446 211.419 247.231C211.249 247.016 211.139 246.76 211.099 246.489C211.019 245.818 211.133 245.139 211.427 244.531C211.721 243.923 212.184 243.412 212.759 243.059L233.329 231.179C233.545 231.011 233.801 230.903 234.071 230.866C234.342 230.828 234.618 230.863 234.87 230.967C235.123 231.07 235.344 231.239 235.511 231.455C235.677 231.672 235.784 231.928 235.819 232.199Z" fill="#455A64"/>
<path opacity="0.4" d="M255.78 220.669C255.863 221.338 255.753 222.016 255.462 222.624C255.172 223.232 254.713 223.744 254.14 224.099L243.48 230.249C243.265 230.416 243.01 230.524 242.74 230.562C242.47 230.6 242.196 230.567 241.943 230.466C241.69 230.364 241.468 230.199 241.299 229.986C241.13 229.772 241.02 229.518 240.98 229.249C240.897 228.578 241.009 227.897 241.304 227.289C241.598 226.681 242.062 226.17 242.64 225.819L253.3 219.669C253.513 219.501 253.766 219.392 254.035 219.353C254.304 219.315 254.578 219.348 254.83 219.449C255.081 219.551 255.302 219.717 255.469 219.931C255.636 220.145 255.743 220.4 255.78 220.669Z" fill="#455A64"/>
<path opacity="0.4" d="M223.51 252.099C223.623 252.752 223.537 253.424 223.262 254.027C222.987 254.63 222.537 255.136 221.97 255.479L186.43 276.009C186.201 276.174 185.938 276.283 185.659 276.327C185.381 276.371 185.097 276.349 184.829 276.262C184.561 276.175 184.317 276.027 184.117 275.828C183.918 275.629 183.768 275.386 183.68 275.119C183.529 274.493 183.584 273.835 183.836 273.242C184.088 272.65 184.524 272.154 185.08 271.829L220.89 251.149C221.108 250.973 221.368 250.857 221.644 250.811C221.92 250.765 222.204 250.791 222.467 250.886C222.73 250.982 222.964 251.144 223.147 251.356C223.33 251.568 223.455 251.824 223.51 252.099Z" fill="#455A64"/>
<path opacity="0.4" d="M258.169 232.099C258.276 232.755 258.185 233.428 257.907 234.032C257.629 234.636 257.177 235.143 256.609 235.489L231.059 250.239C230.837 250.407 230.575 250.516 230.299 250.555C230.023 250.594 229.742 250.561 229.482 250.461C229.221 250.361 228.991 250.196 228.812 249.983C228.633 249.769 228.512 249.513 228.459 249.239C228.35 248.582 228.44 247.908 228.718 247.304C228.996 246.699 229.45 246.192 230.019 245.849L255.599 231.099C255.82 230.932 256.079 230.825 256.353 230.787C256.627 230.749 256.906 230.781 257.164 230.882C257.421 230.982 257.649 231.146 257.825 231.359C258.001 231.572 258.12 231.827 258.169 232.099Z" fill="#455A64"/>
<path opacity="0.4" d="M206.51 274.649C206.647 275.284 206.58 275.947 206.32 276.543C206.06 277.138 205.619 277.637 205.06 277.969L189.43 286.969C189.199 287.134 188.934 287.244 188.654 287.29C188.374 287.336 188.087 287.316 187.816 287.233C187.545 287.15 187.297 287.005 187.091 286.81C186.885 286.615 186.727 286.375 186.63 286.109C186.456 285.495 186.493 284.841 186.736 284.252C186.979 283.662 187.414 283.171 187.97 282.859L203.83 273.699C204.056 273.533 204.319 273.425 204.596 273.384C204.873 273.344 205.157 273.371 205.421 273.465C205.685 273.559 205.922 273.716 206.112 273.922C206.302 274.128 206.438 274.378 206.51 274.649Z" fill="#455A64"/>
<path opacity="0.4" d="M234.95 260.709L214.17 272.709C213.944 272.876 213.68 272.987 213.402 273.03C213.124 273.074 212.84 273.049 212.573 272.959C212.307 272.869 212.066 272.715 211.872 272.511C211.678 272.307 211.537 272.059 211.46 271.789C211.325 271.15 211.395 270.485 211.659 269.887C211.922 269.29 212.367 268.79 212.93 268.459L233.73 256.459C233.953 256.293 234.215 256.184 234.49 256.142C234.766 256.1 235.047 256.126 235.311 256.217C235.574 256.309 235.811 256.464 236 256.668C236.19 256.872 236.327 257.12 236.4 257.389C236.538 258.024 236.472 258.687 236.212 259.284C235.952 259.88 235.51 260.378 234.95 260.709Z" fill="#455A64"/>
<path opacity="0.4" d="M260.97 243.209C261.103 243.847 261.034 244.511 260.773 245.108C260.511 245.704 260.069 246.205 259.51 246.539L244.05 255.459C243.824 255.627 243.562 255.737 243.284 255.781C243.007 255.825 242.723 255.8 242.457 255.709C242.192 255.619 241.952 255.465 241.759 255.261C241.566 255.057 241.425 254.809 241.35 254.539C241.215 253.9 241.285 253.235 241.549 252.637C241.812 252.04 242.257 251.54 242.82 251.209L258.31 242.269C258.533 242.103 258.794 241.994 259.07 241.952C259.345 241.911 259.627 241.938 259.89 242.03C260.153 242.123 260.388 242.279 260.577 242.485C260.765 242.69 260.9 242.939 260.97 243.209Z" fill="#455A64"/>
<path opacity="0.4" d="M229.809 273.739C229.973 274.359 229.928 275.015 229.68 275.606C229.432 276.198 228.996 276.691 228.439 277.009L192.819 297.579C192.584 297.743 192.315 297.852 192.031 297.899C191.748 297.946 191.458 297.929 191.182 297.85C190.906 297.77 190.651 297.63 190.436 297.44C190.221 297.249 190.052 297.013 189.939 296.749C189.749 296.147 189.773 295.497 190.006 294.911C190.239 294.324 190.668 293.836 191.219 293.529L227.029 272.859C227.259 272.691 227.524 272.581 227.804 272.535C228.084 272.489 228.371 272.51 228.642 272.596C228.913 272.681 229.159 272.829 229.362 273.028C229.565 273.227 229.718 273.47 229.809 273.739Z" fill="#455A64"/>
<path opacity="0.4" d="M264.3 253.819C264.471 254.431 264.433 255.083 264.192 255.672C263.951 256.261 263.521 256.752 262.97 257.069L237.54 271.749C237.31 271.914 237.046 272.024 236.766 272.069C236.487 272.114 236.202 272.094 235.932 272.009C235.662 271.925 235.416 271.779 235.212 271.583C235.009 271.386 234.854 271.145 234.76 270.879C234.594 270.259 234.639 269.602 234.887 269.01C235.135 268.418 235.572 267.926 236.13 267.609L261.52 252.949C261.749 252.784 262.014 252.674 262.293 252.629C262.572 252.584 262.857 252.604 263.127 252.689C263.397 252.773 263.643 252.919 263.847 253.115C264.05 253.311 264.205 253.552 264.3 253.819Z" fill="#455A64"/>
<path d="M253.429 272.449C253.615 273.052 253.588 273.701 253.354 274.287C253.119 274.873 252.69 275.361 252.139 275.669L196.539 307.769C196.302 307.931 196.032 308.041 195.748 308.09C195.465 308.138 195.174 308.125 194.896 308.051C194.617 307.977 194.358 307.844 194.137 307.66C193.915 307.477 193.735 307.248 193.609 306.989C193.398 306.402 193.403 305.758 193.625 305.175C193.847 304.591 194.271 304.107 194.819 303.809L250.569 271.619C250.803 271.453 251.071 271.342 251.353 271.294C251.636 271.246 251.925 271.263 252.2 271.343C252.475 271.422 252.729 271.563 252.941 271.755C253.154 271.947 253.321 272.184 253.429 272.449Z" fill="#7561C1"/>
<path opacity="0.4" d="M293.32 249.439C293.51 250.041 293.486 250.69 293.253 251.277C293.02 251.864 292.591 252.352 292.04 252.659L260.89 270.659C260.655 270.823 260.386 270.932 260.104 270.979C259.821 271.026 259.531 271.009 259.256 270.93C258.981 270.85 258.727 270.71 258.513 270.519C258.299 270.329 258.13 270.093 258.02 269.829C257.829 269.227 257.853 268.578 258.086 267.991C258.319 267.404 258.748 266.916 259.3 266.609L290.46 248.609C290.693 248.443 290.961 248.332 291.243 248.284C291.526 248.236 291.815 248.253 292.09 248.333C292.365 248.412 292.619 248.553 292.832 248.745C293.044 248.937 293.211 249.174 293.32 249.439Z" fill="#455A64"/>
<path opacity="0.4" d="M331.9 229.649L300.75 247.649C300.515 247.813 300.247 247.923 299.965 247.971C299.683 248.018 299.394 248.002 299.119 247.923C298.844 247.845 298.59 247.706 298.375 247.516C298.161 247.327 297.991 247.092 297.88 246.829C297.689 246.227 297.713 245.577 297.946 244.991C298.179 244.404 298.608 243.916 299.159 243.609L330.16 225.689C330.397 225.528 330.667 225.421 330.95 225.374C331.233 225.327 331.523 225.341 331.8 225.416C332.077 225.491 332.335 225.625 332.555 225.808C332.776 225.992 332.955 226.22 333.079 226.479C333.285 227.062 333.28 227.698 333.064 228.278C332.848 228.857 332.436 229.342 331.9 229.649Z" fill="#455A64"/>
<path opacity="0.4" d="M217.639 305.339C217.85 305.924 217.844 306.564 217.624 307.145C217.404 307.726 216.984 308.21 216.439 308.509L200.719 317.589C200.478 317.752 200.204 317.862 199.917 317.913C199.63 317.963 199.335 317.953 199.052 317.882C198.77 317.811 198.505 317.682 198.275 317.502C198.045 317.322 197.856 317.096 197.719 316.839C197.489 316.267 197.478 315.63 197.688 315.051C197.898 314.471 198.316 313.99 198.859 313.699L214.709 304.549C214.948 304.387 215.218 304.278 215.502 304.23C215.786 304.182 216.078 304.196 216.356 304.271C216.634 304.346 216.893 304.48 217.114 304.665C217.336 304.849 217.515 305.079 217.639 305.339Z" fill="#455A64"/>
<path opacity="0.4" d="M272.48 273.679C272.686 274.267 272.677 274.91 272.454 275.493C272.23 276.075 271.807 276.56 271.26 276.859L225.65 303.199C225.41 303.374 225.135 303.494 224.843 303.55C224.552 303.605 224.252 303.596 223.964 303.521C223.677 303.446 223.41 303.309 223.183 303.118C222.955 302.927 222.773 302.688 222.65 302.419C222.443 301.83 222.452 301.187 222.675 300.605C222.899 300.022 223.322 299.538 223.87 299.239L269.52 272.889C269.759 272.721 270.031 272.608 270.319 272.557C270.606 272.506 270.902 272.518 271.184 272.594C271.466 272.669 271.728 272.805 271.952 272.993C272.176 273.18 272.356 273.414 272.48 273.679Z" fill="#455A64"/>
<path opacity="0.4" d="M314.94 249.169C315.146 249.758 315.137 250.401 314.914 250.983C314.69 251.566 314.267 252.05 313.72 252.349L280.43 271.549C280.191 271.713 279.92 271.823 279.635 271.872C279.349 271.921 279.057 271.908 278.777 271.832C278.498 271.757 278.238 271.622 278.015 271.437C277.793 271.252 277.614 271.02 277.49 270.759C277.287 270.167 277.299 269.523 277.524 268.94C277.749 268.357 278.172 267.871 278.72 267.569L311.98 248.369C312.219 248.202 312.493 248.089 312.781 248.039C313.069 247.988 313.364 248.002 313.646 248.078C313.928 248.154 314.19 248.292 314.414 248.48C314.637 248.668 314.817 248.904 314.94 249.169Z" fill="#455A64"/>
<path opacity="0.4" d="M336.04 239.469L322.94 247.029C322.702 247.195 322.431 247.308 322.146 247.359C321.86 247.411 321.567 247.399 321.286 247.326C321.006 247.253 320.744 247.12 320.52 246.935C320.297 246.751 320.115 246.52 319.99 246.259C319.787 245.667 319.799 245.023 320.024 244.44C320.249 243.857 320.672 243.371 321.22 243.069L334.22 235.569C334.46 235.403 334.734 235.29 335.022 235.237C335.31 235.185 335.605 235.195 335.889 235.266C336.173 235.337 336.438 235.467 336.668 235.649C336.897 235.83 337.085 236.059 337.22 236.319C337.441 236.897 337.443 237.537 337.226 238.117C337.008 238.697 336.587 239.178 336.04 239.469Z" fill="#455A64"/>
<path opacity="0.4" d="M242.039 303.289C242.273 303.857 242.288 304.491 242.082 305.069C241.875 305.647 241.461 306.128 240.919 306.419L205.179 327.039C204.934 327.201 204.659 327.312 204.369 327.365C204.08 327.417 203.783 327.41 203.496 327.343C203.21 327.277 202.94 327.153 202.703 326.978C202.466 326.804 202.268 326.583 202.119 326.329C201.872 325.772 201.846 325.141 202.047 324.565C202.247 323.989 202.659 323.512 203.199 323.229L239.009 302.559C239.252 302.395 239.527 302.283 239.816 302.231C240.104 302.178 240.4 302.187 240.685 302.255C240.971 302.324 241.238 302.452 241.471 302.629C241.704 302.807 241.898 303.032 242.039 303.289Z" fill="#455A64"/>
<path opacity="0.4" d="M291.91 274.499C292.143 275.067 292.158 275.701 291.952 276.279C291.745 276.857 291.331 277.338 290.79 277.629L250.04 301.149C249.797 301.306 249.525 301.413 249.24 301.462C248.955 301.51 248.663 301.5 248.382 301.432C248.101 301.363 247.837 301.238 247.606 301.064C247.375 300.89 247.182 300.67 247.04 300.419C246.801 299.853 246.784 299.218 246.992 298.641C247.199 298.063 247.616 297.584 248.16 297.299L288.91 273.769C289.152 273.611 289.424 273.504 289.709 273.456C289.994 273.407 290.286 273.417 290.567 273.486C290.848 273.554 291.112 273.679 291.343 273.853C291.574 274.028 291.767 274.247 291.91 274.499Z" fill="#455A64"/>
<path opacity="0.4" d="M340.5 248.919L299.9 272.359C299.658 272.518 299.385 272.626 299.1 272.675C298.815 272.725 298.522 272.715 298.241 272.646C297.959 272.578 297.695 272.452 297.464 272.277C297.234 272.102 297.041 271.881 296.9 271.629C296.661 271.062 296.644 270.425 296.851 269.846C297.058 269.267 297.475 268.786 298.02 268.499L338.55 245.099C338.794 244.935 339.069 244.824 339.359 244.771C339.648 244.719 339.945 244.727 340.231 244.795C340.518 244.862 340.787 244.988 341.022 245.164C341.258 245.34 341.454 245.563 341.6 245.819C341.841 246.379 341.861 247.01 341.657 247.584C341.453 248.159 341.04 248.636 340.5 248.919Z" fill="#455A64"/>
<path opacity="0.4" d="M216.839 329.679C217.098 330.224 217.138 330.848 216.952 331.422C216.766 331.996 216.368 332.478 215.839 332.769L209.959 336.099C209.71 336.261 209.431 336.372 209.139 336.426C208.846 336.48 208.546 336.476 208.255 336.413C207.965 336.351 207.689 336.232 207.444 336.063C207.2 335.894 206.991 335.679 206.829 335.429C206.562 334.888 206.517 334.264 206.704 333.69C206.891 333.116 207.295 332.639 207.829 332.359L213.719 328.959C213.97 328.795 214.251 328.684 214.545 328.632C214.839 328.579 215.141 328.587 215.433 328.654C215.724 328.722 215.999 328.847 216.241 329.023C216.482 329.199 216.686 329.422 216.839 329.679Z" fill="#455A64"/>
<path opacity="0.4" d="M266.62 300.939C266.878 301.488 266.913 302.116 266.718 302.691C266.522 303.266 266.11 303.742 265.57 304.019L224.97 327.469C224.722 327.63 224.444 327.741 224.153 327.794C223.862 327.846 223.563 327.841 223.274 327.776C222.985 327.712 222.712 327.591 222.471 327.419C222.23 327.248 222.025 327.03 221.87 326.779C221.61 326.228 221.575 325.598 221.771 325.022C221.967 324.445 222.378 323.967 222.92 323.689L263.52 300.249C263.767 300.086 264.045 299.974 264.336 299.92C264.627 299.867 264.927 299.872 265.216 299.937C265.505 300.001 265.778 300.123 266.019 300.295C266.261 300.467 266.465 300.686 266.62 300.939Z" fill="#455A64"/>
<path opacity="0.4" d="M316.43 272.169C316.688 272.718 316.724 273.346 316.528 273.921C316.332 274.496 315.92 274.972 315.38 275.249L274.72 298.729C274.472 298.892 274.195 299.003 273.903 299.057C273.612 299.111 273.313 299.105 273.023 299.041C272.734 298.976 272.461 298.854 272.22 298.682C271.979 298.51 271.774 298.291 271.62 298.039C271.36 297.488 271.325 296.858 271.521 296.282C271.717 295.705 272.128 295.227 272.67 294.949L313.33 271.469C313.578 271.306 313.856 271.195 314.148 271.142C314.439 271.089 314.739 271.096 315.028 271.161C315.317 271.227 315.59 271.349 315.831 271.522C316.072 271.696 316.275 271.915 316.43 272.169Z" fill="#455A64"/>
<path opacity="0.4" d="M345.28 258.009L324.6 269.949C324.352 270.11 324.074 270.221 323.783 270.274C323.492 270.327 323.193 270.321 322.904 270.256C322.615 270.192 322.342 270.071 322.101 269.899C321.86 269.728 321.655 269.51 321.5 269.259C321.245 268.707 321.213 268.079 321.408 267.504C321.603 266.929 322.012 266.451 322.55 266.169L343.2 254.259C343.448 254.096 343.725 253.985 344.017 253.931C344.308 253.878 344.608 253.883 344.897 253.946C345.187 254.009 345.461 254.13 345.703 254.3C345.946 254.471 346.152 254.688 346.31 254.939C346.575 255.483 346.615 256.11 346.423 256.684C346.23 257.259 345.819 257.734 345.28 258.009Z" fill="#455A64"/>
<path opacity="0.4" d="M241.74 326.969C242.004 327.499 242.047 328.113 241.859 328.675C241.672 329.238 241.269 329.703 240.74 329.969L215 344.829C214.489 345.155 213.872 345.272 213.278 345.154C212.684 345.037 212.158 344.695 211.81 344.199C211.673 343.94 211.589 343.656 211.563 343.365C211.537 343.073 211.569 342.779 211.657 342.5C211.746 342.221 211.889 341.962 212.078 341.739C212.267 341.515 212.499 341.332 212.76 341.199L238.55 326.309C239.061 325.978 239.683 325.861 240.28 325.985C240.877 326.108 241.401 326.462 241.74 326.969Z" fill="#455A64"/>
<path opacity="0.4" d="M291.6 298.179C291.735 298.444 291.817 298.734 291.841 299.032C291.864 299.329 291.828 299.628 291.735 299.912C291.642 300.196 291.494 300.458 291.299 300.684C291.104 300.91 290.866 301.095 290.6 301.229L250.03 324.659C249.523 324.987 248.908 325.102 248.316 324.981C247.725 324.859 247.206 324.51 246.87 324.009C246.598 323.472 246.55 322.849 246.738 322.277C246.926 321.705 247.333 321.231 247.87 320.959L288.43 297.539C288.937 297.212 289.552 297.096 290.144 297.215C290.736 297.335 291.258 297.68 291.6 298.179Z" fill="#455A64"/>
<path opacity="0.4" d="M350.34 266.749L299.89 295.879C299.382 296.208 298.766 296.324 298.173 296.2C297.581 296.077 297.062 295.724 296.73 295.219C296.594 294.953 296.512 294.663 296.488 294.366C296.465 294.068 296.501 293.769 296.594 293.485C296.687 293.202 296.835 292.94 297.03 292.714C297.225 292.488 297.463 292.302 297.73 292.169L348.13 263.099C348.64 262.774 349.256 262.659 349.848 262.778C350.441 262.898 350.965 263.242 351.31 263.739C351.444 264 351.526 264.285 351.55 264.578C351.575 264.871 351.541 265.166 351.45 265.446C351.36 265.725 351.216 265.984 351.025 266.208C350.834 266.432 350.601 266.616 350.34 266.749Z" fill="#455A64"/>
<path opacity="0.4" d="M266.95 323.889C267.096 324.143 267.189 324.425 267.222 324.717C267.256 325.009 267.229 325.305 267.144 325.586C267.058 325.867 266.917 326.128 266.727 326.352C266.537 326.576 266.303 326.759 266.04 326.889L220.35 353.269C219.829 353.593 219.206 353.711 218.603 353.6C218 353.489 217.46 353.157 217.09 352.669C216.937 352.417 216.839 352.137 216.801 351.845C216.763 351.554 216.787 351.257 216.869 350.975C216.952 350.693 217.093 350.431 217.282 350.206C217.471 349.981 217.706 349.798 217.97 349.669L263.7 323.269C264.219 322.943 264.843 322.825 265.446 322.94C266.049 323.055 266.586 323.394 266.95 323.889Z" fill="#455A64"/>
<path opacity="0.4" d="M316.729 295.149C316.875 295.404 316.966 295.686 316.999 295.977C317.032 296.269 317.004 296.564 316.919 296.845C316.834 297.125 316.693 297.386 316.504 297.61C316.315 297.834 316.082 298.018 315.819 298.149L275.249 321.569C274.732 321.896 274.111 322.014 273.51 321.901C272.908 321.788 272.372 321.451 272.009 320.959C271.861 320.705 271.766 320.424 271.732 320.132C271.697 319.84 271.722 319.545 271.807 319.263C271.891 318.982 272.033 318.721 272.222 318.496C272.412 318.272 272.646 318.089 272.909 317.959L313.489 294.539C314.007 294.212 314.628 294.094 315.229 294.207C315.831 294.32 316.366 294.657 316.729 295.149Z" fill="#455A64"/>
<path opacity="0.4" d="M355.669 275.149L325.03 292.829C324.514 293.155 323.894 293.273 323.294 293.16C322.695 293.047 322.161 292.71 321.799 292.219C321.653 291.964 321.56 291.682 321.527 291.39C321.493 291.099 321.52 290.803 321.605 290.522C321.691 290.241 321.833 289.98 322.022 289.756C322.212 289.532 322.446 289.349 322.71 289.219L353.32 271.549C353.838 271.222 354.461 271.103 355.064 271.216C355.667 271.329 356.205 271.666 356.57 272.159C356.716 272.412 356.81 272.693 356.844 272.983C356.878 273.274 356.852 273.569 356.767 273.849C356.683 274.129 356.542 274.389 356.353 274.613C356.164 274.836 355.932 275.019 355.669 275.149Z" fill="#455A64"/>
<path d="M330.57 219.609L270.769 254.099C270.469 253.319 270.199 252.529 269.919 251.749C269.839 251.529 269.759 251.299 269.689 251.079L268.879 248.709C268.609 247.909 268.349 247.119 268.099 246.309C263.979 233.379 260.989 219.249 258.599 203.309L318.329 168.849C320.053 181.792 322.785 194.581 326.499 207.099C326.869 208.339 327.24 209.559 327.63 210.769C327.95 211.769 328.27 212.769 328.63 213.819C329.25 215.779 329.896 217.709 330.57 219.609Z" fill="#7561C1"/>
<path opacity="0.5" d="M330.57 219.609L270.769 254.099C270.469 253.319 270.199 252.529 269.919 251.749C269.839 251.529 269.759 251.299 269.689 251.079L268.879 248.709C268.609 247.909 268.349 247.119 268.099 246.309C263.979 233.379 260.989 219.249 258.599 203.309L318.329 168.849C320.053 181.792 322.785 194.581 326.499 207.099C326.869 208.339 327.24 209.559 327.63 210.769C327.95 211.769 328.27 212.769 328.63 213.819C329.25 215.779 329.896 217.709 330.57 219.609Z" fill="black"/>
<path d="M330.57 219.609L270.769 254.099C270.469 253.319 270.199 252.529 269.919 251.749C269.839 251.529 269.759 251.299 269.689 251.079L268.879 248.709C268.609 247.909 268.349 247.119 268.099 246.309C270.329 237.009 277.939 206.099 277.939 206.099L311.359 224.929L304.539 218.099L309.929 200.579L326.499 207.099C326.873 208.332 327.243 209.552 327.609 210.759C327.939 211.759 328.259 212.759 328.609 213.809C329.243 215.776 329.896 217.709 330.57 219.609Z" fill="#7561C1"/>
<path d="M298.069 187.929C300.289 186.639 302.499 187.929 303.069 190.869C303.639 193.809 302.399 197.149 300.179 198.429C297.959 199.709 295.609 198.429 295.019 195.519C294.429 192.609 295.849 189.219 298.069 187.929Z" fill="#7561C1"/>
<path d="M516.429 220.158C500.109 214.158 474.079 214.158 458.299 220.158C442.519 226.158 442.529 235.918 458.299 241.928C474.069 247.938 500.109 247.928 516.429 241.928C532.749 235.928 532.699 226.168 516.429 220.158Z" fill="#733232"/>
<path d="M529.429 200.378L445.709 200.468L451.999 299.098H452.079C452.479 302.688 455.829 306.238 462.229 308.978C475.869 314.828 498.349 314.828 512.459 308.978C519.069 306.228 522.539 302.688 522.949 299.098H523.029L529.429 200.378Z" fill="#FAFAFA"/>
<path d="M445.659 200.468L446.949 220.468C449.143 221.963 451.489 223.22 453.949 224.218C472.059 231.718 501.949 231.708 520.639 224.218C521.449 223.888 522.129 223.538 522.859 223.218C524.678 222.343 526.432 221.341 528.109 220.218L529.389 200.318L445.659 200.468Z" fill="#EBEBEB"/>
<path d="M534.679 203.299V188.219H524.919C523.527 187.474 522.095 186.806 520.629 186.219C501.899 178.719 472.049 178.719 453.939 186.219C452.539 186.815 451.171 187.483 449.839 188.219H440.359V203.299C440.359 208.209 444.889 213.129 453.939 216.879C472.049 224.369 501.939 224.369 520.629 216.879C529.999 213.099 534.679 208.209 534.679 203.299Z" fill="#7561C1"/>
<g opacity="0.5">
<path opacity="0.5" d="M534.679 203.299V188.219H524.919C523.527 187.474 522.095 186.806 520.629 186.219C501.899 178.719 472.049 178.719 453.939 186.219C452.539 186.815 451.171 187.483 449.839 188.219H440.359V203.299C440.359 208.209 444.889 213.129 453.939 216.879C472.049 224.369 501.939 224.369 520.629 216.879C529.999 213.099 534.679 208.209 534.679 203.299Z" fill="black"/>
</g>
<path d="M520.629 174.638C501.899 167.148 472.049 167.148 453.939 174.638C435.829 182.128 435.839 194.299 453.939 201.789C472.039 209.279 501.939 209.289 520.629 201.789C539.319 194.289 539.359 182.098 520.629 174.638Z" fill="#7561C1"/>
<g opacity="0.2">
<path opacity="0.2" d="M520.629 174.638C501.899 167.148 472.049 167.148 453.939 174.638C435.829 182.128 435.839 194.299 453.939 201.789C472.039 209.279 501.939 209.289 520.629 201.789C539.319 194.289 539.359 182.098 520.629 174.638Z" fill="black"/>
</g>
<path d="M514.809 175.858C499.379 169.938 474.759 169.938 459.809 175.858C444.859 181.778 444.889 191.388 459.809 197.318C474.729 203.248 499.349 203.238 514.809 197.318C530.269 191.398 530.249 181.788 514.809 175.858Z" fill="#7561C1"/>
<g opacity="0.5">
<path opacity="0.5" d="M514.809 175.858C499.379 169.938 474.759 169.938 459.809 175.858C444.859 181.778 444.889 191.388 459.809 197.318C474.729 203.248 499.349 203.238 514.809 197.318C530.269 191.398 530.249 181.788 514.809 175.858Z" fill="black"/>
</g>
<path d="M526.039 184.588L523.019 172.158H452.009L448.979 184.588H526.039Z" fill="#7561C1"/>
<g opacity="0.5">
<path opacity="0.5" d="M526.039 184.588L523.019 172.158H452.009L448.979 184.588H526.039Z" fill="black"/>
</g>
<path d="M512.589 164.208C498.409 159.058 475.799 159.058 462.099 164.208C448.399 169.358 448.389 177.728 462.099 182.878C475.809 188.028 498.409 188.038 512.589 182.878C526.769 177.718 526.769 169.368 512.589 164.208Z" fill="#7561C1"/>
<g opacity="0.2">
<path opacity="0.2" d="M512.589 164.208C498.409 159.058 475.799 159.058 462.099 164.208C448.399 169.358 448.389 177.728 462.099 182.878C475.809 188.028 498.409 188.038 512.589 182.878C526.769 177.718 526.769 169.368 512.589 164.208Z" fill="black"/>
</g>
<path d="M518.309 173.559C518.309 173.759 517.909 174.418 516.739 175.328C514.949 176.58 512.989 177.57 510.919 178.268C504.659 180.528 495.999 181.848 487.169 181.848C478.339 181.848 469.819 180.548 463.809 178.298C461.791 177.597 459.895 176.584 458.189 175.298C457.039 174.368 456.719 173.678 456.719 173.508C456.719 173.158 457.949 170.978 463.809 168.768C469.669 166.558 478.339 165.208 487.169 165.208C495.999 165.208 504.659 166.508 510.919 168.798C516.809 170.958 518.279 173.099 518.309 173.559Z" fill="#7561C1"/>
<g opacity="0.5">
<path opacity="0.5" d="M518.309 173.559C518.309 173.759 517.909 174.418 516.739 175.328C514.949 176.58 512.989 177.57 510.919 178.268C504.659 180.528 495.999 181.848 487.169 181.848C478.339 181.848 469.819 180.548 463.809 178.298C461.791 177.597 459.895 176.584 458.189 175.298C457.039 174.368 456.719 173.678 456.719 173.508C456.719 173.158 457.949 170.978 463.809 168.768C469.669 166.558 478.339 165.208 487.169 165.208C495.999 165.208 504.659 166.508 510.919 168.798C516.809 170.958 518.279 173.099 518.309 173.559Z" fill="black"/>
</g>
<path d="M516.739 175.329C514.949 176.58 512.989 177.57 510.919 178.269C504.659 180.529 495.999 181.849 487.169 181.849C478.339 181.849 469.819 180.549 463.809 178.299C461.791 177.597 459.895 176.584 458.189 175.299C459.89 174.005 461.788 172.992 463.809 172.299C469.809 170.039 478.339 168.739 487.169 168.739C495.999 168.739 504.659 170.039 510.919 172.319C512.997 173.03 514.958 174.044 516.739 175.329Z" fill="#7561C1"/>
<g opacity="0.5">
<path opacity="0.5" d="M502.529 175.648C504.589 174.478 507.109 173.998 508.139 174.578C509.169 175.158 508.329 176.578 506.269 177.778C504.209 178.978 501.689 179.438 500.659 178.848C499.629 178.258 500.429 176.818 502.529 175.648Z" fill="black"/>
</g>
<path d="M448.799 267.239C448.799 270.949 452.519 274.659 459.949 277.489C474.809 283.149 499.329 283.149 514.709 277.489C522.379 274.669 526.229 270.959 526.239 267.259L528.619 231.039C528.619 234.979 524.539 238.919 516.379 241.929C500.059 247.929 474.029 247.929 458.249 241.929C450.359 238.929 446.419 234.979 446.419 231.039L448.799 267.239Z" fill="#B16668"/>
<path d="M474.349 269.378C472.969 267.518 472.209 265.238 471.089 263.228C469.028 259.408 465.669 256.45 461.619 254.889C461.35 254.783 461.052 254.78 460.782 254.879C460.511 254.979 460.286 255.174 460.149 255.428C458.089 259.618 459.349 265.488 463.609 269.748C467.869 274.008 473.609 275.278 477.829 273.308C478.069 273.198 478.129 272.728 477.939 272.618C476.531 271.798 475.309 270.695 474.349 269.378Z" fill="#733232"/>
<path d="M463.889 253.748C466.093 254.601 468.126 255.844 469.889 257.418C471.721 259.072 473.194 261.084 474.219 263.328C475.809 266.708 477.319 268.798 479.649 270.538C479.772 270.63 479.912 270.696 480.061 270.733C480.21 270.77 480.365 270.777 480.516 270.754C480.668 270.73 480.813 270.677 480.944 270.597C481.075 270.518 481.189 270.413 481.279 270.288C484.069 266.068 482.959 259.618 478.369 255.028C474.019 250.668 467.979 249.418 463.769 251.668C463.58 251.775 463.425 251.932 463.321 252.123C463.217 252.313 463.168 252.529 463.181 252.746C463.193 252.963 463.266 253.171 463.391 253.349C463.517 253.526 463.689 253.664 463.889 253.748Z" fill="#733232"/>
<path d="M302.329 314.029L278.149 320.449L273.319 321.729C273.021 321.808 272.705 321.779 272.427 321.647C272.148 321.516 271.926 321.289 271.799 321.009C271.694 320.798 271.649 320.561 271.67 320.327C271.691 320.092 271.777 319.867 271.919 319.679L275.339 315.259L290.339 295.779L295.139 303.129L302.329 314.029Z" fill="#ED9B80"/>
<path d="M295.189 303.099L275.539 318.159L271.789 321.019C271.683 320.808 271.639 320.571 271.66 320.337C271.681 320.102 271.767 319.877 271.909 319.689L275.329 315.269L290.329 295.789L295.189 303.099Z" fill="#FFBDA7"/>
<path d="M278.149 320.449L273.319 321.729C273.021 321.808 272.705 321.779 272.427 321.647C272.148 321.516 271.926 321.289 271.799 321.009C271.694 320.798 271.649 320.561 271.67 320.327C271.691 320.092 271.777 319.867 271.919 319.679L275.339 315.259C275.117 316.232 275.179 317.249 275.519 318.189C275.767 318.734 276.13 319.218 276.585 319.609C277.039 319.999 277.573 320.286 278.149 320.449Z" fill="#37474F"/>
<path d="M399.699 223.099L397.299 224.689L394.399 226.609L290.429 295.739C289.649 299.16 290.192 302.751 291.949 305.789C294.429 310.479 298.879 314.019 302.369 314.009L405.609 245.369L411.139 241.689C407.429 243.879 396.009 225.319 399.699 223.099Z" fill="#263238"/>
<path d="M397.299 224.668L394.399 226.588L290.429 295.738C289.649 299.16 290.192 302.75 291.949 305.788L398.949 233.718L397.299 224.668Z" fill="#37474F"/>
<path d="M390.549 229.099L385.199 232.669C383.619 233.669 384.819 237.669 387.019 241.669C389.929 247.049 394.569 252.559 396.679 251.259L400.609 248.609L402.029 247.669C399.919 248.969 395.269 243.459 392.359 238.079C390.259 234.199 389.069 230.369 390.359 229.219C390.405 229.156 390.473 229.113 390.549 229.099Z" fill="#F0F0F0"/>
<path d="M392.359 238.098C390.259 234.218 389.069 230.388 390.359 229.238C390.394 229.189 390.443 229.151 390.499 229.128L385.149 232.698C383.569 233.698 384.769 237.698 386.969 241.698L392.309 238.108L392.359 238.098Z" fill="#FAFAFA"/>
<path d="M389.219 230.019C385.539 232.299 397.009 250.879 400.699 248.599L406.069 245.039C402.379 247.319 390.909 228.739 394.589 226.469L389.219 230.019Z" fill="#7561C1"/>
<path d="M399.699 223.099L394.399 226.609C390.769 228.819 401.669 246.859 405.569 245.389C405.647 245.368 405.722 245.334 405.789 245.289L411.099 241.709C407.429 243.879 396.009 225.319 399.699 223.099Z" fill="#F0F0F0"/>
<path d="M422.169 208.169L399.699 223.099C398.119 224.099 399.289 227.989 401.449 232.019C404.339 237.409 408.979 243.019 411.099 241.709L432.709 227.369C438.029 224.439 433.869 213.459 428.379 209.289C426.369 207.689 424.159 207.099 422.169 208.169Z" fill="#ED9B80"/>
<path d="M422.169 208.169L399.699 223.099C398.119 224.099 399.289 227.989 401.449 232.019L424.099 217.709C424.099 217.709 421.419 212.139 422.599 209.909C423.779 207.679 426.009 207.909 428.409 209.279C426.369 207.689 424.159 207.099 422.169 208.169Z" fill="#FFBDA7"/>
<path opacity="0.4" d="M394.589 226.469L389.219 230.019C387.649 231.019 388.849 234.959 391.029 239.019L396.379 235.419C394.209 231.379 393.019 227.439 394.589 226.469Z" fill="white"/>
<path d="M399.699 223.099L394.399 226.609C392.819 227.609 393.989 231.529 396.149 235.609L401.449 232.049C399.299 227.969 398.119 224.029 399.699 223.099Z" fill="#FAFAFA"/>
<path d="M366.429 407.448C366.832 408.763 367.166 410.099 367.429 411.448C367.719 412.958 368.119 415.448 367.579 416.588C367.039 417.728 364.989 418.418 361.809 418.348C359.749 418.348 356.529 419.658 354.319 420.858C352.098 421.92 349.594 422.236 347.179 421.758C344.359 421.388 341.449 419.758 341.009 418.528C340.569 417.298 341.159 416.798 347.859 414.048C347.919 414.048 354.919 410.968 358.189 407.458L366.429 407.448Z" fill="#263238"/>
<path d="M358.579 399.099L358.149 405.189C358.087 406.083 357.831 406.953 357.399 407.738C356.967 408.524 356.06 409.252 355.339 409.784C352.885 411.499 351.163 412.565 348.429 413.784L345.429 415.099C345.249 415.739 345.499 416.739 348.429 417.229C352.949 417.979 363.379 410.699 363.379 410.699C365.119 409.609 366.379 408.279 366.379 407.429C366.506 404.366 366.84 401.316 367.379 398.299L358.579 399.099Z" fill="#FFBDA7"/>
<path d="M402.519 392.309L399.839 386.099L406.579 382.359L409.729 389.979C410.729 391.669 412.219 391.809 412.889 392.719C413.559 393.629 411.749 405.969 409.479 409.349C407.209 412.729 401.789 410.069 400.919 409.129C400.049 408.189 404.409 406.969 404.559 406.129C404.574 403.378 404.417 400.629 404.089 397.899C403.927 395.952 403.394 394.055 402.519 392.309Z" fill="#FFBDA7"/>
<path d="M410.979 391.198C410.269 392.378 410.239 394.728 409.879 398.068C409.519 401.408 409.179 406.718 407.289 408.128C405.089 409.758 400.789 408.608 403.039 407.318C403.659 406.968 403.749 406.828 404.099 406.618C404.849 406.158 404.579 405.758 404.579 405.758C403.587 406.457 402.52 407.044 401.399 407.508C400.635 407.744 399.973 408.23 399.521 408.889C399.069 409.548 398.853 410.341 398.909 411.138C399.039 411.553 399.26 411.933 399.556 412.252C399.852 412.57 400.215 412.818 400.619 412.978C402.539 413.461 404.545 413.492 406.479 413.068C410.549 412.188 412.859 410.518 413.349 407.238C413.949 403.238 415.849 398.618 416.449 396.288C417.179 393.478 413.549 390.988 410.979 391.198Z" fill="#263238"/>
<path d="M364.719 302.479C364.719 302.479 379.299 343.479 380.609 347.969C381.581 351.697 382.995 355.295 384.819 358.689C386.379 361.609 402.519 392.309 402.519 392.309C407.609 391.869 409.119 388.459 409.119 388.459C409.119 388.459 402.629 360.989 401.119 356.029C400.275 352.927 398.694 350.076 396.509 347.719L393.559 316.849C392.989 311.259 392.259 307.269 385.909 296.609L381.909 291.559L364.719 302.479Z" fill="#FFBDA7"/>
<path d="M372.619 299.609C375.949 305.499 379.499 310.689 379.539 317.139C379.599 328.799 372.889 345.139 371.249 355.019C372.295 358.565 372.601 362.289 372.149 365.959C371.549 370.049 366.769 402.359 366.769 402.359C366.769 402.359 362.159 404.979 358.329 402.639C358.329 402.639 355.709 356.519 355.969 338.639C356.229 320.759 358.619 295.569 358.619 295.569L372.619 299.609Z" fill="#FFBDA7"/>
<path d="M364.999 252.768L366.139 262.828L376.059 263.978L374.629 250.628L364.999 252.768Z" fill="#FFBDA7"/>
<path d="M365.709 228.349C363.299 229.399 358.819 228.649 357.249 239.829C356.019 248.639 357.609 251.659 358.729 252.889C359.489 253.729 364.389 254.499 366.619 253.959C369.409 253.299 375.519 250.769 378.619 246.409C382.239 241.279 383.389 234.189 379.809 231.139C374.749 226.849 367.749 227.469 365.709 228.349Z" fill="#FFBDA7"/>
<path d="M366.839 252.519C364.514 253.062 362.136 253.344 359.749 253.359C361.501 253.877 363.323 254.12 365.149 254.079C366.979 253.179 366.839 252.519 366.839 252.519Z" fill="#F0997A"/>
<path d="M357.429 239.349C357.429 239.349 354.789 242.819 355.069 243.219C355.609 243.623 356.214 243.931 356.859 244.129L357.429 239.349Z" fill="#F0997A"/>
<path d="M376.379 224.338C370.239 220.408 363.189 221.708 359.779 224.708C356.249 227.848 355.209 237.028 363.089 240.988L363.329 241.338C363.243 241.51 363.18 241.691 363.139 241.878C363.079 242.155 363.074 242.441 363.126 242.719C363.177 242.997 363.282 243.263 363.437 243.5C363.591 243.737 363.791 243.941 364.025 244.101C364.259 244.26 364.522 244.371 364.799 244.428L364.959 243.658L365.399 241.658L366.019 240.658C366.379 240.236 366.856 239.93 367.391 239.781C367.925 239.631 368.492 239.644 369.019 239.818C370.899 240.328 371.519 243.988 369.619 246.078C369.061 246.685 368.338 247.116 367.539 247.318C367.22 247.416 366.878 247.41 366.562 247.303C366.246 247.195 365.972 246.99 365.779 246.718C365.81 247.7 366.092 248.657 366.599 249.498C367.279 250.588 369.749 253.788 372.859 253.788L374.929 253.468C381.519 248.298 385.169 246.548 386.329 239.188C386.819 236.018 385.099 230.998 383.599 229.758C383.207 229.338 382.136 228.063 381.649 227.478C381.049 226.606 380.267 225.874 379.357 225.332C378.448 224.79 377.432 224.451 376.379 224.338Z" fill="#784B4B"/>
<path d="M381.109 257.349C384.109 257.539 387.109 260.619 387.339 264.009C387.569 267.399 383.339 278.359 383.339 278.359L381.109 257.349Z" fill="#FFBDA7"/>
<path d="M381.959 288.498C383.109 284.358 385.959 279.848 385.959 272.368C385.952 266.986 384.259 261.74 381.119 257.368L375.409 257.448C375.409 257.448 375.299 258.838 372.409 259.398C370.202 259.893 367.904 259.793 365.749 259.108C365.209 259.168 362.169 259.268 362.169 259.268L354.939 271.928C354.021 273.203 353.509 274.725 353.472 276.296C353.434 277.866 353.873 279.411 354.729 280.728C355.475 281.933 356.454 282.977 357.609 283.798C358.279 286.868 359.349 290.008 359.349 290.008C370.719 292.938 377.149 293.468 381.959 288.498Z" fill="#7561C1"/>
<path opacity="0.3" d="M381.959 288.498C383.109 284.358 385.959 279.848 385.959 272.368C385.952 266.986 384.259 261.74 381.119 257.368L375.409 257.448C375.409 257.448 375.299 258.838 372.409 259.398C370.202 259.893 367.904 259.793 365.749 259.108C365.209 259.168 362.169 259.268 362.169 259.268L354.939 271.928C354.021 273.203 353.509 274.725 353.472 276.296C353.434 277.866 353.873 279.411 354.729 280.728C355.475 281.933 356.454 282.977 357.609 283.798C358.279 286.868 359.349 290.008 359.349 290.008C370.719 292.938 377.149 293.468 381.959 288.498Z" fill="black"/>
<path d="M389.612 230.684C387.421 228.507 384.448 227.284 381.348 227.284L380.796 245.983C380.004 250.075 377.848 259.77 379.37 267.703C379.37 270.781 381.457 276.386 383.649 278.563C385.841 280.739 388.633 283.284 391.733 283.284C394.586 279.979 396.638 274.313 395.537 269.317C392.684 256.37 391.134 254.01 393.036 242.205C393.873 237.011 391.804 232.86 389.612 230.684Z" fill="#784B4B"/>
<path d="M359.309 289.959V293.319C359.309 293.319 347.899 320.824 345.839 339.784C345.839 339.784 355.169 350.364 376.339 347.284C398.339 344.784 400.339 334.784 400.339 334.784C400.339 334.784 397.569 301.579 381.959 291.559V288.499L359.309 289.959Z" fill="#7561C1"/>
<path opacity="0.3" d="M359.309 289.959V293.319C359.309 293.319 347.899 320.824 345.839 339.784C345.839 339.784 355.669 350.364 376.839 347.284C398.839 344.084 400.339 334.784 400.339 334.784C400.339 334.784 397.569 301.579 381.959 291.559V288.499L359.309 289.959Z" fill="black"/>
<path d="M381.959 288.499C381.959 288.499 380.639 291.499 371.959 291.989C368.469 292.199 361.729 291.559 359.299 289.989V293.349C359.299 293.349 362.669 295.979 372.709 295.429C381.929 294.929 381.949 291.589 381.949 291.589L381.959 288.499Z" fill="#7561C1"/>
<path d="M362.269 259.259C353.469 259.539 354.269 261.449 349.519 269.259C346.859 273.639 342.869 281.739 340.769 285.889C336.289 287.799 326.289 288.729 322.279 287.769C321.469 287.605 320.753 287.136 320.279 286.459C319.039 284.629 317.769 284.349 316.279 283.019C315.099 282.019 314.769 281.079 314.419 281.239C314.031 281.465 313.743 281.831 313.613 282.261C313.483 282.691 313.521 283.155 313.719 283.559C314.049 284.344 314.49 285.078 315.029 285.739C313.438 285.118 311.94 284.28 310.579 283.249C307.299 280.819 305.349 280.799 305.579 285.999C305.699 289.259 307.829 291.769 315.129 293.889C317.807 294.72 320.541 295.362 323.309 295.809C330.318 296.456 337.381 296.153 344.309 294.909C344.949 294.779 345.719 294.059 347.569 292.229C350.449 289.389 358.059 276.639 358.059 276.639C364.069 273.409 363.339 263.649 362.269 259.259Z" fill="#FFBDA7"/>
</svg>
