<?xml version="1.0" encoding="UTF-8" standalone="no"?>
<!DOCTYPE svg PUBLIC "-//W3C//DTD SVG 1.1//EN" "http://www.w3.org/Graphics/SVG/1.1/DTD/svg11.dtd">
<svg width="100%" height="100%" viewBox="0 0 103 100" version="1.1" xmlns="http://www.w3.org/2000/svg" xmlns:xlink="http://www.w3.org/1999/xlink" xml:space="preserve" xmlns:serif="http://www.serif.com/" style="fill-rule:evenodd;clip-rule:evenodd;stroke-linejoin:round;stroke-miterlimit:2;">
    <g transform="matrix(1,0,0,1,-335.034,-245.433)">
        <g transform="matrix(0.152849,0,0,0.152849,393.628,232.347)">
            <path d="M217.649,707.047C250.612,697.509 281.234,681.764 284.632,648.924C287.499,619.208 260.177,605.184 232.754,595.144C217.052,589.388 194.955,587.678 181.493,579.213C160.47,566.136 163.671,541.816 169.562,520.916C180.352,482.924 200.461,447.237 182.823,411.195C176.029,397.332 159.425,386.225 145.294,377.719C125.848,366.286 104.875,373.675 86.069,365.749C44.369,348.242 67.667,308.402 81.002,278.941C95.934,245.871 88.65,217.493 53.749,203.88C38.254,197.612 14.157,199.941 0.873,192.053C-16.317,181.944 -10.443,163.461 -6.901,147.01C-3.088,129.889 2.876,108.47 -12.454,95.912C-27.218,83.765 -58.618,84.009 -79.706,88.287C-154.517,103.541 -239.132,147.671 -296.811,197.162C-371.536,261.302 -392.168,357.568 -380.158,452.215C-369.527,536.242 -334.361,620.816 -267.083,672.271C-154.575,758.304 26.933,747.509 157.562,719.84C173.872,716.511 196.193,713.143 217.649,707.047Z" style="fill:rgb(117,97,193);fill-rule:nonzero;"/>
        </g>
    </g>
</svg>
