<?xml version="1.0" encoding="UTF-8" standalone="no"?>
<!DOCTYPE svg PUBLIC "-//W3C//DTD SVG 1.1//EN" "http://www.w3.org/Graphics/SVG/1.1/DTD/svg11.dtd">
<svg width="100%" height="100%" viewBox="0 0 222 235" version="1.1" xmlns="http://www.w3.org/2000/svg" xmlns:xlink="http://www.w3.org/1999/xlink" xml:space="preserve" xmlns:serif="http://www.serif.com/" style="fill-rule:evenodd;clip-rule:evenodd;stroke-linejoin:round;stroke-miterlimit:2;">
    <g transform="matrix(1,0,0,1,-82.0089,-21.8971)">
        <g transform="matrix(1,0,0,1,162.442,20.9825)">
            <path d="M53.643,85.899C61.931,93.724 70.847,100.915 78.506,109.375C93.181,125.04 105.018,142.301 110.233,163.393C113.815,177.559 106.591,185.809 91.703,184.968C76.183,184.131 61.89,177.924 48.541,170.765C41.551,167.345 35.188,162.975 27.874,158.612C28.838,160.497 29.48,161.754 29.805,163.013C36.877,178.1 44.264,192.87 46.6,209.883C46.926,211.142 46.937,212.719 46.946,213.98C47.694,230.373 37.303,238.646 21.441,234.343C10.021,231.269 0.162,225.032 -8.443,217.208C-35.524,193.432 -58.197,166.155 -70.787,131.87C-77.892,112.053 -82.153,91.585 -79.766,70.754C-75.573,36.667 -53.264,12.227 -19.439,4.421C12.171,-3.055 42.605,2.092 72.449,13.55C93.403,21.602 112.476,32.19 127.477,49.113C131.626,53.814 135.463,59.148 138.036,64.807C144.785,78.95 138.546,92.239 123.366,94.869C114.512,96.508 104.692,95.946 95.816,94.432C81.869,92.322 68.542,88.317 54.589,85.261C54.591,85.577 53.958,85.581 53.643,85.899Z" style="fill:rgb(203,86,153);fill-rule:nonzero;"/>
        </g>
    </g>
</svg>
