<?xml version="1.0" encoding="UTF-8" standalone="no"?>
<!DOCTYPE svg PUBLIC "-//W3C//DTD SVG 1.1//EN" "http://www.w3.org/Graphics/SVG/1.1/DTD/svg11.dtd">
<svg width="100%" height="100%" viewBox="0 0 601 613" version="1.1" xmlns="http://www.w3.org/2000/svg" xmlns:xlink="http://www.w3.org/1999/xlink" xml:space="preserve" xmlns:serif="http://www.serif.com/" style="fill-rule:evenodd;clip-rule:evenodd;stroke-linejoin:round;stroke-miterlimit:2;">
    <g transform="matrix(1,0,0,1,4.91598e-07,1.55706e-05)">
        <path d="M18.714,404.713C35.506,443.267 62.175,479.843 89.832,508.511C173.791,595.504 303.186,645.92 418.753,585.618C500.736,543.11 564.941,438.324 587.659,352.32C611.365,263.35 601.487,201.071 553.088,123.964C491.847,28.075 379.243,-46.067 278.493,34.006C236.02,67.617 199.473,107.159 155.024,138.792C114.526,168.449 60.2,190.197 29.58,230.728C-9.931,286.087 -5.98,348.366 18.714,404.713Z" style="fill:rgb(117,97,193);fill-rule:nonzero;"/>
        <path d="M18.714,404.713C35.506,443.267 62.175,479.843 89.832,508.511C173.791,595.504 303.186,645.92 418.753,585.618C500.736,543.11 564.941,438.324 587.659,352.32C611.365,263.35 601.487,201.071 553.088,123.964C491.847,28.075 379.243,-46.067 278.493,34.006C236.02,67.617 199.473,107.159 155.024,138.792C114.526,168.449 60.2,190.197 29.58,230.728C-9.931,286.087 -5.98,348.366 18.714,404.713Z" style="fill:rgb(50,73,137);fill-rule:nonzero;"/>
    </g>
</svg>
