<svg viewBox="0 0 756 660">
	<g transform="matrix(1,0,0,1,-102.744,-137.003)">
		<path d="M684.735,624.538C656.624,620.074 630.003,608.758 602.105,603.327C574.207,597.897 542.732,599.159 520.63,617.106C475.708,653.589 494.099,733.785 451.052,772.422C430.42,790.93 400.775,794.744 373.098,795.921C325.812,797.921 277.626,794.498 233.185,778.244C188.743,761.99 148.234,731.891 126.121,690.02C104.897,649.793 102.155,602.166 107.191,556.953C117.235,465.907 158.774,377.241 227.307,316.258C295.841,255.276 391.8,224.161 482.089,240.162C537.072,249.889 587.71,275.831 636.483,303.024C721.339,350.34 808.92,408.11 851.608,498.899C891.496,583.751 752.118,635.28 684.735,624.538Z" style="fill:rgb(203,86,153);fill-rule:nonzero;" />
		<g>
			<path d="M691.589,254.237C711.446,229.909 736.039,209.869 763.875,195.332C768.051,193.409 772.376,191.829 776.808,190.609C790.947,189.554 798.189,198.103 794.676,208.908C793.091,213.378 790.776,217.555 787.825,221.269C768.029,247.38 742.437,266.377 713.198,280.644C707.791,283.248 702.25,285.562 696.597,287.577C692.604,289.014 688.617,288.71 686.09,284.643C682.218,278.349 680.534,271.967 684.933,265.144C686.933,261.38 689.156,257.737 691.589,254.237Z" style="fill:rgb(255,206,3);fill-rule:nonzero;" />
			<path d="M656.726,229.537C660.486,220.513 665.011,211.795 669.579,203.115C678.084,186.856 689.406,173.05 705.322,163.484C708.212,161.93 711.211,160.588 714.295,159.467C724.178,158.831 729.397,164.923 729.175,174.45C728.921,186.424 722.966,196.168 716.691,205.722C705.148,223.298 689.861,237.624 675.372,252.634C672.643,255.257 669.364,257.241 665.773,258.441C657.924,261.193 650.881,255.918 651.844,247.694C652.625,241.445 654.268,235.334 656.726,229.537Z" style="fill:rgb(255,206,3);fill-rule:nonzero;" />
			<path d="M614.085,207.319C620.357,191.058 629.213,175.916 640.312,162.478C644.947,157.342 650.259,152.86 656.102,149.156C658.004,147.807 660.288,147.103 662.619,147.148C664.95,147.192 667.206,147.982 669.055,149.402C670.95,150.748 672.394,152.634 673.2,154.814C674.005,156.994 674.134,159.366 673.569,161.62C672.82,166.935 671.322,172.117 669.12,177.012C661.705,191.127 653.87,205.026 645.648,218.691C642.824,222.882 639.38,226.62 635.434,229.777C633.326,231.624 630.691,232.762 627.901,233.032C625.111,233.302 622.307,232.689 619.884,231.28C617.406,230.055 615.296,228.198 613.765,225.897C612.235,223.596 611.338,220.932 611.166,218.174C611.916,214.499 612.891,210.874 614.085,207.319Z" style="fill:rgb(255,206,3);fill-rule:nonzero;" />
		</g>
	</g>
	<image href="/img/remi.jpg" preserveAspectRatio="none" style="clip-path: url(#_clip_image_1); width: 100%; height: 100%;" />
	<defs>
		<clipPath id="_clip_image_1" clipPathUnits="objectBoundingBox">
			<path d="M0.577,1 C0.587,1,0.596,1,0.606,1 C0.825,1,1,1,1,0.895 C1,0.691,1,0.461,0.967,0.339 C0.732,0.144,0.345,0.266,0.201,0.546 C0.174,0.597,0.155,0.656,0.158,0.717 C0.161,0.753,0.169,0.789,0.181,0.823 C0.249,1,0.4,1,0.577,1" />
		</clipPath>
	</defs>
</svg>
