<svg viewBox="0 0 601 613" class="image_blob image_blob_2">
	<g transform="matrix(1,0,0,1,4.91598e-07,1.55706e-05)">
		<path d="M18.714,404.713C35.506,443.267 62.175,479.843 89.832,508.511C173.791,595.504 303.186,645.92 418.753,585.618C500.736,543.11 564.941,438.324 587.659,352.32C611.365,263.35 601.487,201.071 553.088,123.964C491.847,28.075 379.243,-46.067 278.493,34.006C236.02,67.617 199.473,107.159 155.024,138.792C114.526,168.449 60.2,190.197 29.58,230.728C-9.931,286.087 -5.98,348.366 18.714,404.713Z" />
	</g>
	<image href="/img/amy.png" preserveAspectRatio="none" style="clip-path: url(#_clip_image_2);" />
	<defs>
		<clipPath id="_clip_image_2" clipPathUnits="objectBoundingBox">
			<path d="M0.031,0.661 C0.059,0.724,0.104,0.784,0.15,0.831 C0.29,0.973,0.505,1,0.698,0.957 C0.835,0.887,0.942,0.716,0.979,0.576 C1,0.43,1,0.329,0.922,0.203 C0.82,0.046,0.632,-0.075,0.464,0.056 C0.393,0.11,0.332,0.175,0.258,0.227 C0.191,0.275,0.1,0.311,0.049,0.377 C-0.017,0.467,-0.01,0.569,0.031,0.661" />
		</clipPath>
	</defs>
</svg>
