<?xml version="1.0" encoding="UTF-8" standalone="no"?>
<!DOCTYPE svg PUBLIC "-//W3C//DTD SVG 1.1//EN" "http://www.w3.org/Graphics/SVG/1.1/DTD/svg11.dtd">
<svg width="100%" height="100%" viewBox="0 0 95 100" version="1.1" xmlns="http://www.w3.org/2000/svg" xmlns:xlink="http://www.w3.org/1999/xlink" xml:space="preserve" xmlns:serif="http://www.serif.com/" style="fill-rule:evenodd;clip-rule:evenodd;stroke-linejoin:round;stroke-miterlimit:2;">
    <g transform="matrix(1,0,0,1,-218.255,-233.419)">
        <g transform="matrix(0.299887,0,0,0.299887,197.531,228.565)">
            <path d="M221.995,346.735C177.953,338.907 189.377,312.955 189.377,312.955C192.941,303.244 212.803,294.472 212.803,294.472C163.723,294.092 133.191,266.017 133.191,266.017C113.076,239.307 132.02,229.794 139.107,226.771C146.195,223.748 168.578,222.463 168.578,222.463C64.032,200.107 69.145,137.438 69.145,137.438C69.754,109.619 96.542,114.485 96.542,114.485C108.239,115.814 137.854,134.307 137.854,134.307C83.97,78.334 99.823,32.652 99.823,32.652C108.093,3.972 141.01,21.473 141.01,21.473C177.063,41.062 199.829,128.678 199.829,128.678C191.885,97.519 199.83,70.898 199.83,70.898C208.313,45.158 234.368,55.682 234.368,55.682C274.706,72.841 285.639,141.069 285.639,141.069C286.447,137.971 318.867,89.249 339.402,148.361C360.197,207.592 332.193,258.364 332.193,258.364C335.431,250.712 375.82,198.43 382.527,244.487C386.168,268.597 361.736,314.397 322.068,333.86C277.974,355.373 238.348,349.596 221.995,346.735Z" style="fill:rgb(229,63,81);fill-rule:nonzero;"/>
        </g>
    </g>
</svg>
