<svg class="leaf_thin" viewBox="0 0 695 459">
	<g transform="matrix(1,0,0,1,147,0)">
		<g transform="matrix(1,0,0,1,0.000301183,3.52347e-07)">
			<path d="M34.42,359.548C52.246,356.978 70.031,354.114 87.9,352.008C136.955,346.153 186.137,342.573 235.402,346.827C262.542,348.979 289.273,354.744 314.886,363.971C317.908,365.025 320.851,366.292 323.693,367.762C325.959,368.775 327.897,370.401 329.287,372.457C330.678,374.513 331.465,376.916 331.562,379.395C331.658,381.874 331.059,384.331 329.833,386.488C328.606,388.646 326.801,390.417 324.621,391.603C321.144,393.811 317.407,395.58 313.495,396.869C240.839,419.32 167.088,432.547 90.681,422.732C76.83,421.241 63.11,418.721 49.634,415.192C1.126,401.418 -43.926,411.612 -87.46,433.6C-99.85,439.876 -111.861,446.953 -124.083,453.65C-125.895,454.619 -127.707,455.546 -129.603,456.388C-136.473,459.379 -142.247,458.157 -145.407,453.145C-146.918,450.535 -147.376,447.447 -146.687,444.512C-145.998,441.576 -144.214,439.014 -141.699,437.349C-128.086,426.018 -114.6,414.392 -100.314,403.945C-89.825,396.499 -81.81,386.082 -77.303,374.038C-71.234,357.821 -64.323,341.604 -60.952,324.713C-52.636,284.075 -33.903,246.293 -6.586,215.067C18.363,185.581 44.998,158.244 78.417,138.362C83.228,135.305 88.34,132.75 93.673,130.738C105.052,126.862 114.493,134.571 112.301,146.407C110.966,154.982 108.263,163.288 104.294,171.007C85.54,204.41 66.364,237.687 46.515,270.332C34.209,290.467 20.007,309.464 5.383,330.778C16.298,324.628 25.317,318.984 34.883,314.308C57.599,303.104 74.962,285.244 93.884,268.9C120.013,246.154 139.863,218.353 161.314,191.605C194.328,149.82 231.321,111.337 271.772,76.694C297.649,54.917 323.736,33.434 353.32,16.754C363.224,11.193 373.886,7.023 384.296,2.347C385.984,1.649 387.754,1.168 389.564,0.915C410.636,-3.297 421.551,7.234 416.999,28.295C412.785,47.756 402.249,64.015 390.238,79.432C364.952,111.824 332.122,135.455 297.944,157.106C241.387,193.037 188.37,233.812 134.89,273.912C126.461,280.189 118.033,286.549 109.941,293.542C112.006,292.784 114.155,292.11 116.094,291.225C169.827,267.678 223.139,243.079 277.378,220.838C343.375,193.392 411.313,170.865 480.636,153.442C495.218,149.819 510.137,148.176 525.182,145.775C527.441,145.43 529.733,145.36 532.009,145.565C545.664,146.576 552.575,158.202 544.652,169.111C537.03,179.301 528.12,188.461 518.144,196.365C480.215,227.409 435.037,244.342 388.974,259.169C352.899,270.753 315.433,275.345 278.431,282.337C244.137,288.788 210.338,297.642 177.286,308.832C154.15,316.667 130.17,321.932 107.075,329.894C83.981,337.855 62.361,346.743 40.067,355.631C38.053,356.571 36.109,357.655 34.251,358.874L34.42,359.548Z" />
		</g>
	</g>
</svg>
