<?xml version="1.0" encoding="UTF-8" standalone="no"?>
<!DOCTYPE svg PUBLIC "-//W3C//DTD SVG 1.1//EN" "http://www.w3.org/Graphics/SVG/1.1/DTD/svg11.dtd">
<svg width="100%" height="100%" viewBox="0 0 147 113" version="1.1" xmlns="http://www.w3.org/2000/svg" xmlns:xlink="http://www.w3.org/1999/xlink" xml:space="preserve" xmlns:serif="http://www.serif.com/" style="fill-rule:evenodd;clip-rule:evenodd;stroke-linejoin:round;stroke-miterlimit:2;">
    <g transform="matrix(1,0,0,1,-8.09939,-7.35455)">
        <path d="M78.142,91.805C69.192,66.377 55.17,43.032 36.926,23.186C34.114,20.417 31.082,17.882 27.858,15.605C16.748,10.636 8.41,15.43 8.1,25.178C8.078,29.25 8.731,33.297 10.032,37.155C18.413,64.006 33.545,86.799 53.001,106.836C56.609,110.513 60.409,113.996 64.387,117.269C67.193,119.592 70.501,120.508 73.727,117.96C78.686,114.005 81.905,109.343 80.34,102.551C79.821,98.929 79.087,95.341 78.142,91.805Z" style="fill:rgb(117,97,193);fill-rule:nonzero;"/>
        <path d="M113.487,82.014C113.079,73.632 111.964,65.275 110.803,56.935C108.671,41.329 103.549,26.883 93.483,14.522C91.602,12.426 89.571,10.469 87.408,8.666C79.612,5.274 73.623,8.673 71.028,16.431C67.746,26.174 69.717,35.776 72.001,45.319C76.203,62.874 84.375,78.894 91.703,95.235C93.143,98.148 95.213,100.704 97.763,102.719C103.3,107.228 110.524,105.019 112.141,98.098C113.331,92.824 113.784,87.412 113.487,82.014Z" style="fill:rgb(117,97,193);fill-rule:nonzero;"/>
        <path d="M154.391,76.491C154.062,61.534 151.321,46.728 146.272,32.644C144.026,27.147 141.041,21.98 137.402,17.287C136.259,15.644 134.619,14.411 132.724,13.768C130.828,13.125 128.777,13.106 126.87,13.714C124.948,14.249 123.233,15.351 121.947,16.877C120.662,18.402 119.867,20.28 119.667,22.265C118.724,26.775 118.424,31.396 118.776,35.99C120.654,49.547 122.932,63.053 125.591,76.482C126.651,80.689 128.343,84.71 130.611,88.409C131.775,90.514 133.571,92.201 135.746,93.231C137.92,94.261 140.363,94.584 142.73,94.151C145.087,93.884 147.332,92.999 149.238,91.587C151.144,90.174 152.644,88.284 153.586,86.107C154.051,82.921 154.32,79.71 154.391,76.491Z" style="fill:rgb(117,97,193);fill-rule:nonzero;"/>
    </g>
</svg>
