<svg class="background" viewBox="0 0 1440 320" style="fill-rule:evenodd;clip-rule:evenodd;stroke-linejoin:round;stroke-miterlimit:2;">
    <path d="M0,256L24,261.3C48,267 96,277 144,266.7C192,256 240,224 288,229.3C336,235 384,277 432,293.3C480,309 528,299 576,282.7C624,267 672,245 720,218.7C768,192 816,160 864,138.7C912,117 960,107 1008,112C1056,117 1104,139 1152,128C1200,117 1248,75 1296,69.3C1344,64 1392,96 1416,112L1440,128L1440,0L1416,0L24,0L0,0L0,256Z" style="fill:url(#gradient);fill-rule:nonzero;"/>
    <defs>
        <linearGradient id="gradient" x1="0" y1="0" x2="1" y2="0" gradientUnits="userSpaceOnUse" gradientTransform="matrix(1440,0,0,301.172,0,150.586)"><stop offset="0" style="stop-color:rgb(0,124,187);stop-opacity:1"/><stop offset="0.44" style="stop-color:rgb(0,162,187);stop-opacity:1"/><stop offset="1" style="stop-color:rgb(0,172,187);stop-opacity:1"/></linearGradient>
    </defs>
</svg>
